<?xml version="1.0" encoding="UTF-8" standalone="no"?>
<!DOCTYPE svg PUBLIC "-//W3C//DTD SVG 1.1//EN"
 "http://www.w3.org/Graphics/SVG/1.1/DTD/svg11.dtd">
<!-- Generated by graphviz version 2.26.3 (20100126.1600)
 -->
<!-- Title: G Pages: 1 -->
<svg width="808pt" height="2166pt"
 viewBox="0.00 0.00 808.00 2166.00" xmlns="http://www.w3.org/2000/svg" xmlns:xlink="http://www.w3.org/1999/xlink">
<g id="graph1" class="graph" transform="scale(1 1) rotate(0) translate(4 2162)">
<title>G</title>
<polygon fill="white" stroke="white" points="-4,5 -4,-2162 805,-2162 805,5 -4,5"/>
<g id="graph2" class="cluster"><title>cluster_ImboClient</title>
<polyline fill="none" stroke="gray" points="20,-152 780,-152 "/>
<path fill="none" stroke="gray" d="M780,-152C786,-152 792,-158 792,-164"/>
<polyline fill="none" stroke="gray" points="792,-164 792,-2138 "/>
<path fill="none" stroke="gray" d="M792,-2138C792,-2144 786,-2150 780,-2150"/>
<polyline fill="none" stroke="gray" points="780,-2150 20,-2150 "/>
<path fill="none" stroke="gray" d="M20,-2150C14,-2150 8,-2144 8,-2138"/>
<polyline fill="none" stroke="gray" points="8,-2138 8,-164 "/>
<path fill="none" stroke="gray" d="M8,-164C8,-158 14,-152 20,-152"/>
<text text-anchor="middle" x="400" y="-2136.1" font-family="Times Roman,serif" font-size="11.00" fill="gray">ImboClient</text>
</g>
<g id="graph3" class="cluster"><title>cluster_ImboClient\Driver</title>
<polyline fill="none" stroke="gray" points="304,-1908 722,-1908 "/>
<path fill="none" stroke="gray" d="M722,-1908C728,-1908 734,-1914 734,-1920"/>
<polyline fill="none" stroke="gray" points="734,-1920 734,-2108 "/>
<path fill="none" stroke="gray" d="M734,-2108C734,-2114 728,-2120 722,-2120"/>
<polyline fill="none" stroke="gray" points="722,-2120 304,-2120 "/>
<path fill="none" stroke="gray" d="M304,-2120C298,-2120 292,-2114 292,-2108"/>
<polyline fill="none" stroke="gray" points="292,-2108 292,-1920 "/>
<path fill="none" stroke="gray" d="M292,-1920C292,-1914 298,-1908 304,-1908"/>
<text text-anchor="middle" x="513" y="-2106.1" font-family="Times Roman,serif" font-size="11.00" fill="gray">Driver</text>
</g>
<g id="graph4" class="cluster"><title>cluster_ImboClient\Driver\cURL</title>
<polyline fill="none" stroke="gray" points="658,-2016 714,-2016 "/>
<path fill="none" stroke="gray" d="M714,-2016C720,-2016 726,-2022 726,-2028"/>
<polyline fill="none" stroke="gray" points="726,-2028 726,-2078 "/>
<path fill="none" stroke="gray" d="M726,-2078C726,-2084 720,-2090 714,-2090"/>
<polyline fill="none" stroke="gray" points="714,-2090 658,-2090 "/>
<path fill="none" stroke="gray" d="M658,-2090C652,-2090 646,-2084 646,-2078"/>
<polyline fill="none" stroke="gray" points="646,-2078 646,-2028 "/>
<path fill="none" stroke="gray" d="M646,-2028C646,-2022 652,-2016 658,-2016"/>
<text text-anchor="middle" x="686" y="-2076.1" font-family="Times Roman,serif" font-size="11.00" fill="gray">cURL</text>
</g>
<g id="graph6" class="cluster"><title>cluster_ImboClient\Exception</title>
<polyline fill="none" stroke="gray" points="600,-314 772,-314 "/>
<path fill="none" stroke="gray" d="M772,-314C778,-314 784,-320 784,-326"/>
<polyline fill="none" stroke="gray" points="784,-326 784,-538 "/>
<path fill="none" stroke="gray" d="M784,-538C784,-544 778,-550 772,-550"/>
<polyline fill="none" stroke="gray" points="772,-550 600,-550 "/>
<path fill="none" stroke="gray" d="M600,-550C594,-550 588,-544 588,-538"/>
<polyline fill="none" stroke="gray" points="588,-538 588,-326 "/>
<path fill="none" stroke="gray" d="M588,-326C588,-320 594,-314 600,-314"/>
<text text-anchor="middle" x="686" y="-536.1" font-family="Times Roman,serif" font-size="11.00" fill="gray">Exception</text>
</g>
<g id="graph7" class="cluster"><title>cluster_ImboClient\Http</title>
<polyline fill="none" stroke="gray" points="273,-1634 755,-1634 "/>
<path fill="none" stroke="gray" d="M755,-1634C761,-1634 767,-1640 767,-1646"/>
<polyline fill="none" stroke="gray" points="767,-1646 767,-1888 "/>
<path fill="none" stroke="gray" d="M767,-1888C767,-1894 761,-1900 755,-1900"/>
<polyline fill="none" stroke="gray" points="755,-1900 273,-1900 "/>
<path fill="none" stroke="gray" d="M273,-1900C267,-1900 261,-1894 261,-1888"/>
<polyline fill="none" stroke="gray" points="261,-1888 261,-1646 "/>
<path fill="none" stroke="gray" d="M261,-1646C261,-1640 267,-1634 273,-1634"/>
<text text-anchor="middle" x="514" y="-1886.1" font-family="Times Roman,serif" font-size="11.00" fill="gray">Http</text>
</g>
<g id="graph8" class="cluster"><title>cluster_ImboClient\Http\Response</title>
<polyline fill="none" stroke="gray" points="297,-1742 731,-1742 "/>
<path fill="none" stroke="gray" d="M731,-1742C737,-1742 743,-1748 743,-1754"/>
<polyline fill="none" stroke="gray" points="743,-1754 743,-1858 "/>
<path fill="none" stroke="gray" d="M743,-1858C743,-1864 737,-1870 731,-1870"/>
<polyline fill="none" stroke="gray" points="731,-1870 297,-1870 "/>
<path fill="none" stroke="gray" d="M297,-1870C291,-1870 285,-1864 285,-1858"/>
<polyline fill="none" stroke="gray" points="285,-1858 285,-1754 "/>
<path fill="none" stroke="gray" d="M285,-1754C285,-1748 291,-1742 297,-1742"/>
<text text-anchor="middle" x="514" y="-1856.1" font-family="Times Roman,serif" font-size="11.00" fill="gray">Response</text>
</g>
<g id="graph10" class="cluster"><title>cluster_ImboClient\Url</title>
<polyline fill="none" stroke="gray" points="28,-604 748,-604 "/>
<path fill="none" stroke="gray" d="M748,-604C754,-604 760,-610 760,-616"/>
<polyline fill="none" stroke="gray" points="760,-616 760,-1614 "/>
<path fill="none" stroke="gray" d="M760,-1614C760,-1620 754,-1626 748,-1626"/>
<polyline fill="none" stroke="gray" points="748,-1626 28,-1626 "/>
<path fill="none" stroke="gray" d="M28,-1626C22,-1626 16,-1620 16,-1614"/>
<polyline fill="none" stroke="gray" points="16,-1614 16,-616 "/>
<path fill="none" stroke="gray" d="M16,-616C16,-610 22,-604 28,-604"/>
<text text-anchor="middle" x="388" y="-1612.1" font-family="Times Roman,serif" font-size="11.00" fill="gray">Url</text>
</g>
<g id="graph11" class="cluster"><title>cluster_ImboClient\Url\Images</title>
<polyline fill="none" stroke="gray" points="307,-1360 721,-1360 "/>
<path fill="none" stroke="gray" d="M721,-1360C727,-1360 733,-1366 733,-1372"/>
<polyline fill="none" stroke="gray" points="733,-1372 733,-1584 "/>
<path fill="none" stroke="gray" d="M733,-1584C733,-1590 727,-1596 721,-1596"/>
<polyline fill="none" stroke="gray" points="721,-1596 307,-1596 "/>
<path fill="none" stroke="gray" d="M307,-1596C301,-1596 295,-1590 295,-1584"/>
<polyline fill="none" stroke="gray" points="295,-1584 295,-1372 "/>
<path fill="none" stroke="gray" d="M295,-1372C295,-1366 301,-1360 307,-1360"/>
<text text-anchor="middle" x="514" y="-1582.1" font-family="Times Roman,serif" font-size="11.00" fill="gray">Images</text>
</g>
<!-- \\ImboClient\\Driver\\cURL\\Wrapper -->
<g id="node4" class="node"><title>\\ImboClient\\Driver\\cURL\\Wrapper</title>
<a xlink:href="library.ImboClient.Driver.cURL.Wrapper.html" xlink:title="Wrapper" target="_parent">
<polygon fill="none" stroke="black" points="718,-2060 654,-2060 654,-2024 718,-2024 718,-2060"/>
<text text-anchor="middle" x="686" y="-2039.1" font-family="Courier,monospace" font-size="11.00">Wrapper</text>
</a>
</g>
<!-- \\ImboClient\\Driver\\cURLTest -->
<g id="node5" class="node"><title>\\ImboClient\\Driver\\cURLTest</title>
<a xlink:href="tests.ImboClient.Driver.cURLTest.html" xlink:title="cURLTest" target="_parent">
<polygon fill="none" stroke="black" points="721,-1952 651,-1952 651,-1916 721,-1916 721,-1952"/>
<text text-anchor="middle" x="686" y="-1931.1" font-family="Courier,monospace" font-size="11.00">cURLTest</text>
</a>
</g>
<!-- \\PHPUnit_Framework_TestCase -->
<g id="node57" class="node"><title>\\PHPUnit_Framework_TestCase</title>
<ellipse fill="none" stroke="black" cx="359" cy="-126" rx="164.756" ry="18.3848"/>
<text text-anchor="middle" x="359" y="-122.4" font-family="Times Roman,serif" font-size="14.00" fill="gray">\PHPUnit_Framework_TestCase</text>
</g>
<!-- \\ImboClient\\Driver\\cURLTest&#45;&gt;\\PHPUnit_Framework_TestCase -->
<g id="edge37" class="edge"><title>\\ImboClient\\Driver\\cURLTest&#45;&gt;\\PHPUnit_Framework_TestCase</title>
<path fill="none" stroke="black" d="M650.129,-1922.04C628.107,-1912.66 601.597,-1897.25 588,-1874 491.109,-1708.35 653.069,-290.022 524,-148 521.367,-145.103 518.551,-142.451 515.578,-140.025"/>
<polygon fill="none" stroke="black" points="517.525,-137.115 507.361,-134.125 513.442,-142.801 517.525,-137.115"/>
</g>
<!-- \\ImboClient\\Driver\\DriverInterface -->
<g id="node6" class="node"><title>\\ImboClient\\Driver\\DriverInterface</title>
<a xlink:href="library.ImboClient.Driver.DriverInterface.html" xlink:title="DriverInterface" target="_parent">
<polygon fill="none" stroke="black" points="418,-2006 300,-2006 300,-1970 418,-1970 418,-2006"/>
<text text-anchor="middle" x="359" y="-1985.1" font-family="Courier,monospace" font-size="11.00">DriverInterface</text>
</a>
</g>
<!-- \\ImboClient\\Driver\\cURL -->
<g id="node7" class="node"><title>\\ImboClient\\Driver\\cURL</title>
<a xlink:href="library.ImboClient.Driver.cURL.html" xlink:title="cURL" target="_parent">
<polygon fill="none" stroke="black" points="713,-2006 659,-2006 659,-1970 713,-1970 713,-2006"/>
<text text-anchor="middle" x="686" y="-1985.1" font-family="Courier,monospace" font-size="11.00">cURL</text>
</a>
</g>
<!-- \\ImboClient\\Driver\\cURL&#45;&gt;\\ImboClient\\Driver\\DriverInterface -->
<g id="edge83" class="edge"><title>\\ImboClient\\Driver\\cURL&#45;&gt;\\ImboClient\\Driver\\DriverInterface</title>
<path fill="none" stroke="black" stroke-dasharray="1,5" d="M658.962,-1988C608.864,-1988 500.183,-1988 428.326,-1988"/>
<polygon fill="none" stroke="black" points="428.002,-1984.5 418.002,-1988 428.002,-1991.5 428.002,-1984.5"/>
</g>
<!-- \\ImboClient\\Exception\\ServerExceptionTest -->
<g id="node10" class="node"><title>\\ImboClient\\Exception\\ServerExceptionTest</title>
<a xlink:href="tests.ImboClient.Exception.ServerExceptionTest.html" xlink:title="ServerExceptionTest" target="_parent">
<polygon fill="none" stroke="black" points="758,-358 614,-358 614,-322 758,-322 758,-358"/>
<text text-anchor="middle" x="686" y="-337.1" font-family="Courier,monospace" font-size="11.00">ServerExceptionTest</text>
</a>
</g>
<!-- \\ImboClient\\Exception\\ServerExceptionTest&#45;&gt;\\PHPUnit_Framework_TestCase -->
<g id="edge39" class="edge"><title>\\ImboClient\\Exception\\ServerExceptionTest&#45;&gt;\\PHPUnit_Framework_TestCase</title>
<path fill="none" stroke="black" d="M613.011,-332.249C603.888,-328.898 595.237,-324.293 588,-318 527.081,-265.023 587.197,-198.238 524,-148 520.105,-144.903 515.987,-142.124 511.694,-139.633"/>
<polygon fill="none" stroke="black" points="513.137,-136.438 502.653,-134.915 509.899,-142.644 513.137,-136.438"/>
</g>
<!-- \\ImboClient\\Exception\\ServerException -->
<g id="node11" class="node"><title>\\ImboClient\\Exception\\ServerException</title>
<a xlink:href="library.ImboClient.Exception.ServerException.html" xlink:title="ServerException" target="_parent">
<polygon fill="none" stroke="black" points="745,-520 627,-520 627,-484 745,-484 745,-520"/>
<text text-anchor="middle" x="686" y="-499.1" font-family="Courier,monospace" font-size="11.00">ServerException</text>
</a>
</g>
<!-- \\ImboClient\\Exception -->
<g id="node55" class="node"><title>\\ImboClient\\Exception</title>
<a xlink:href="library.ImboClient.Exception.html" xlink:title="Exception" target="_parent">
<polygon fill="none" stroke="black" points="397,-466 321,-466 321,-430 397,-430 397,-466"/>
<text text-anchor="middle" x="359" y="-445.1" font-family="Courier,monospace" font-size="11.00">Exception</text>
</a>
</g>
<!-- \\ImboClient\\Exception\\ServerException&#45;&gt;\\ImboClient\\Exception -->
<g id="edge85" class="edge"><title>\\ImboClient\\Exception\\ServerException&#45;&gt;\\ImboClient\\Exception</title>
<path fill="none" stroke="black" stroke-dasharray="1,5" d="M626.783,-492.221C564.105,-481.871 466.336,-465.725 407.886,-456.073"/>
<polygon fill="none" stroke="black" points="408.236,-452.583 397.799,-454.407 407.095,-459.49 408.236,-452.583"/>
</g>
<!-- \\RuntimeException -->
<g id="node80" class="node"><title>\\RuntimeException</title>
<ellipse fill="none" stroke="black" cx="359" cy="-72" rx="103.238" ry="18.3848"/>
<text text-anchor="middle" x="359" y="-68.4" font-family="Times Roman,serif" font-size="14.00" fill="gray">\RuntimeException</text>
</g>
<!-- \\ImboClient\\Exception\\ServerException&#45;&gt;\\RuntimeException -->
<g id="edge57" class="edge"><title>\\ImboClient\\Exception\\ServerException&#45;&gt;\\RuntimeException</title>
<path fill="none" stroke="black" d="M626.962,-496.915C612.414,-492.918 598.121,-486.191 588,-475 474.291,-349.28 644.248,-218.481 524,-99 509.579,-84.6705 490.698,-76.1608 470.877,-71.3591"/>
<polygon fill="none" stroke="black" points="471.594,-67.9334 461.087,-69.2905 470.147,-74.7822 471.594,-67.9334"/>
</g>
<!-- \\ImboClient\\Exception\\InvalidArgumentException -->
<g id="node12" class="node"><title>\\ImboClient\\Exception\\InvalidArgumentException</title>
<a xlink:href="library.ImboClient.Exception.InvalidArgumentException.html" xlink:title="InvalidArgumentException" target="_parent">
<polygon fill="none" stroke="black" points="775,-412 597,-412 597,-376 775,-376 775,-412"/>
<text text-anchor="middle" x="686" y="-391.1" font-family="Courier,monospace" font-size="11.00">InvalidArgumentException</text>
</a>
</g>
<!-- \\ImboClient\\Exception\\InvalidArgumentException&#45;&gt;\\ImboClient\\Exception -->
<g id="edge87" class="edge"><title>\\ImboClient\\Exception\\InvalidArgumentException&#45;&gt;\\ImboClient\\Exception</title>
<path fill="none" stroke="black" stroke-dasharray="1,5" d="M600.006,-412.024C575.506,-416.877 548.749,-421.91 524,-426 485.15,-432.421 440.914,-438.239 408.031,-442.277"/>
<polygon fill="none" stroke="black" points="407.279,-438.842 397.774,-443.524 408.124,-445.791 407.279,-438.842"/>
</g>
<!-- \\InvalidArgumentException -->
<g id="node82" class="node"><title>\\InvalidArgumentException</title>
<ellipse fill="none" stroke="black" cx="359" cy="-18" rx="143.043" ry="18.3848"/>
<text text-anchor="middle" x="359" y="-14.4" font-family="Times Roman,serif" font-size="14.00" fill="gray">\InvalidArgumentException</text>
</g>
<!-- \\ImboClient\\Exception\\InvalidArgumentException&#45;&gt;\\InvalidArgumentException -->
<g id="edge59" class="edge"><title>\\ImboClient\\Exception\\InvalidArgumentException&#45;&gt;\\InvalidArgumentException</title>
<path fill="none" stroke="black" d="M598.394,-375.916C594.625,-373.316 591.125,-370.36 588,-367 488.64,-260.147 628.913,-146.405 524,-45 517.404,-38.6242 509.921,-33.4111 501.872,-29.1709"/>
<polygon fill="none" stroke="black" points="503.098,-25.8799 492.56,-24.7868 500.116,-32.2131 503.098,-25.8799"/>
</g>
<!-- \\ImboClient\\Exception\\RuntimeException -->
<g id="node13" class="node"><title>\\ImboClient\\Exception\\RuntimeException</title>
<a xlink:href="library.ImboClient.Exception.RuntimeException.html" xlink:title="RuntimeException" target="_parent">
<polygon fill="none" stroke="black" points="748,-466 624,-466 624,-430 748,-430 748,-466"/>
<text text-anchor="middle" x="686" y="-445.1" font-family="Courier,monospace" font-size="11.00">RuntimeException</text>
</a>
</g>
<!-- \\ImboClient\\Exception\\RuntimeException&#45;&gt;\\ImboClient\\Exception -->
<g id="edge89" class="edge"><title>\\ImboClient\\Exception\\RuntimeException&#45;&gt;\\ImboClient\\Exception</title>
<path fill="none" stroke="black" stroke-dasharray="1,5" d="M623.338,-448C560.663,-448 465.554,-448 408.138,-448"/>
<polygon fill="none" stroke="black" points="407.872,-444.5 397.872,-448 407.872,-451.5 407.872,-444.5"/>
</g>
<!-- \\ImboClient\\Exception\\RuntimeException&#45;&gt;\\RuntimeException -->
<g id="edge61" class="edge"><title>\\ImboClient\\Exception\\RuntimeException&#45;&gt;\\RuntimeException</title>
<path fill="none" stroke="black" d="M623.345,-441.613C610.133,-437.525 597.374,-431.081 588,-421 488.64,-314.147 628.913,-200.405 524,-99 509.538,-85.0214 490.816,-76.632 471.2,-71.8302"/>
<polygon fill="none" stroke="black" points="471.708,-68.3598 461.197,-69.6939 470.246,-75.2054 471.708,-68.3598"/>
</g>
<!-- \\ImboClient\\Http\\Response\\ResponseTest -->
<g id="node16" class="node"><title>\\ImboClient\\Http\\Response\\ResponseTest</title>
<a xlink:href="tests.ImboClient.Http.Response.ResponseTest.html" xlink:title="ResponseTest" target="_parent">
<polygon fill="none" stroke="black" points="735,-1786 637,-1786 637,-1750 735,-1750 735,-1786"/>
<text text-anchor="middle" x="686" y="-1765.1" font-family="Courier,monospace" font-size="11.00">ResponseTest</text>
</a>
</g>
<!-- \\ImboClient\\Http\\Response\\ResponseTest&#45;&gt;\\PHPUnit_Framework_TestCase -->
<g id="edge43" class="edge"><title>\\ImboClient\\Http\\Response\\ResponseTest&#45;&gt;\\PHPUnit_Framework_TestCase</title>
<path fill="none" stroke="black" d="M636.938,-1768.85C618.851,-1766.47 599.892,-1760.26 588,-1746 474.205,-1609.52 643.706,-279.328 524,-148 521.363,-145.107 518.542,-142.458 515.566,-140.036"/>
<polygon fill="none" stroke="black" points="517.508,-137.122 507.341,-134.143 513.431,-142.812 517.508,-137.122"/>
</g>
<!-- \\ImboClient\\Http\\Response\\Response -->
<g id="node17" class="node"><title>\\ImboClient\\Http\\Response\\Response</title>
<a xlink:href="library.ImboClient.Http.Response.Response.html" xlink:title="Response" target="_parent">
<polygon fill="none" stroke="black" points="721,-1840 651,-1840 651,-1804 721,-1804 721,-1840"/>
<text text-anchor="middle" x="686" y="-1819.1" font-family="Courier,monospace" font-size="11.00">Response</text>
</a>
</g>
<!-- \\ImboClient\\Http\\Response\\ResponseInterface -->
<g id="node18" class="node"><title>\\ImboClient\\Http\\Response\\ResponseInterface</title>
<a xlink:href="library.ImboClient.Http.Response.ResponseInterface.html" xlink:title="ResponseInterface" target="_parent">
<polygon fill="none" stroke="black" points="424,-1840 294,-1840 294,-1804 424,-1804 424,-1840"/>
<text text-anchor="middle" x="359" y="-1819.1" font-family="Courier,monospace" font-size="11.00">ResponseInterface</text>
</a>
</g>
<!-- \\ImboClient\\Http\\Response\\Response&#45;&gt;\\ImboClient\\Http\\Response\\ResponseInterface -->
<g id="edge93" class="edge"><title>\\ImboClient\\Http\\Response\\Response&#45;&gt;\\ImboClient\\Http\\Response\\ResponseInterface</title>
<path fill="none" stroke="black" stroke-dasharray="1,5" d="M650.383,-1822C598.976,-1822 502.728,-1822 434.95,-1822"/>
<polygon fill="none" stroke="black" points="434.747,-1818.5 424.747,-1822 434.747,-1825.5 434.747,-1818.5"/>
</g>
<!-- \\ImboClient\\Http\\HeaderContainerTest -->
<g id="node19" class="node"><title>\\ImboClient\\Http\\HeaderContainerTest</title>
<a xlink:href="tests.ImboClient.Http.HeaderContainerTest.html" xlink:title="HeaderContainerTest" target="_parent">
<polygon fill="none" stroke="black" points="758,-1678 614,-1678 614,-1642 758,-1642 758,-1678"/>
<text text-anchor="middle" x="686" y="-1657.1" font-family="Courier,monospace" font-size="11.00">HeaderContainerTest</text>
</a>
</g>
<!-- \\ImboClient\\Http\\HeaderContainerTest&#45;&gt;\\PHPUnit_Framework_TestCase -->
<g id="edge41" class="edge"><title>\\ImboClient\\Http\\HeaderContainerTest&#45;&gt;\\PHPUnit_Framework_TestCase</title>
<path fill="none" stroke="black" d="M637.095,-1641.9C618.45,-1632.39 599.044,-1618.73 588,-1600 505.981,-1460.89 633.027,-267.13 524,-148 521.357,-145.112 518.531,-142.468 515.55,-140.05"/>
<polygon fill="none" stroke="black" points="517.486,-137.132 507.314,-134.167 513.417,-142.828 517.486,-137.132"/>
</g>
<!-- \\ImboClient\\Http\\HeaderContainerInterface -->
<g id="node20" class="node"><title>\\ImboClient\\Http\\HeaderContainerInterface</title>
<a xlink:href="library.ImboClient.Http.HeaderContainerInterface.html" xlink:title="HeaderContainerInterface" target="_parent">
<polygon fill="none" stroke="black" points="448,-1732 270,-1732 270,-1696 448,-1696 448,-1732"/>
<text text-anchor="middle" x="359" y="-1711.1" font-family="Courier,monospace" font-size="11.00">HeaderContainerInterface</text>
</a>
</g>
<!-- \\ImboClient\\Http\\HeaderContainer -->
<g id="node21" class="node"><title>\\ImboClient\\Http\\HeaderContainer</title>
<a xlink:href="library.ImboClient.Http.HeaderContainer.html" xlink:title="HeaderContainer" target="_parent">
<polygon fill="none" stroke="black" points="745,-1732 627,-1732 627,-1696 745,-1696 745,-1732"/>
<text text-anchor="middle" x="686" y="-1711.1" font-family="Courier,monospace" font-size="11.00">HeaderContainer</text>
</a>
</g>
<!-- \\ImboClient\\Http\\HeaderContainer&#45;&gt;\\ImboClient\\Http\\HeaderContainerInterface -->
<g id="edge91" class="edge"><title>\\ImboClient\\Http\\HeaderContainer&#45;&gt;\\ImboClient\\Http\\HeaderContainerInterface</title>
<path fill="none" stroke="black" stroke-dasharray="1,5" d="M626.783,-1714C580.002,-1714 513.672,-1714 458.733,-1714"/>
<polygon fill="none" stroke="black" points="458.614,-1710.5 448.614,-1714 458.614,-1717.5 458.614,-1710.5"/>
</g>
<!-- \\ImboClient\\Url\\Images\\QueryTest -->
<g id="node25" class="node"><title>\\ImboClient\\Url\\Images\\QueryTest</title>
<a xlink:href="tests.ImboClient.Url.Images.QueryTest.html" xlink:title="QueryTest" target="_parent">
<polygon fill="none" stroke="black" points="724,-1458 648,-1458 648,-1422 724,-1422 724,-1458"/>
<text text-anchor="middle" x="686" y="-1437.1" font-family="Courier,monospace" font-size="11.00">QueryTest</text>
</a>
</g>
<!-- \\ImboClient\\Url\\Images\\QueryTest&#45;&gt;\\PHPUnit_Framework_TestCase -->
<g id="edge21" class="edge"><title>\\ImboClient\\Url\\Images\\QueryTest&#45;&gt;\\PHPUnit_Framework_TestCase</title>
<path fill="none" stroke="black" d="M647.111,-1439.66C626.256,-1437.26 602.028,-1430.48 588,-1413 499.917,-1303.24 619.352,-251.51 524,-148 521.295,-145.064 518.402,-142.381 515.349,-139.932"/>
<polygon fill="none" stroke="black" points="517.102,-136.885 506.912,-133.983 513.068,-142.606 517.102,-136.885"/>
</g>
<!-- \\ImboClient\\Url\\Images\\ImageTest -->
<g id="node26" class="node"><title>\\ImboClient\\Url\\Images\\ImageTest</title>
<a xlink:href="tests.ImboClient.Url.Images.ImageTest.html" xlink:title="ImageTest" target="_parent">
<polygon fill="none" stroke="black" points="724,-1404 648,-1404 648,-1368 724,-1368 724,-1404"/>
<text text-anchor="middle" x="686" y="-1383.1" font-family="Courier,monospace" font-size="11.00">ImageTest</text>
</a>
</g>
<!-- \\ImboClient\\Url\\Images\\ImageTest&#45;&gt;\\PHPUnit_Framework_TestCase -->
<g id="edge23" class="edge"><title>\\ImboClient\\Url\\Images\\ImageTest&#45;&gt;\\PHPUnit_Framework_TestCase</title>
<path fill="none" stroke="black" d="M647.31,-1387.76C626.518,-1386.47 602.288,-1380.92 588,-1364 413.413,-1157.26 707.539,-346.836 524,-148 521.293,-145.067 518.397,-142.386 515.341,-139.939"/>
<polygon fill="none" stroke="black" points="517.09,-136.89 506.898,-133.995 513.06,-142.614 517.09,-136.89"/>
</g>
<!-- \\ImboClient\\Url\\Images\\ImageInterface -->
<g id="node27" class="node"><title>\\ImboClient\\Url\\Images\\ImageInterface</title>
<a xlink:href="library.ImboClient.Url.Images.ImageInterface.html" xlink:title="ImageInterface" target="_parent">
<polygon fill="none" stroke="black" points="414,-1566 304,-1566 304,-1530 414,-1530 414,-1566"/>
<text text-anchor="middle" x="359" y="-1545.1" font-family="Courier,monospace" font-size="11.00">ImageInterface</text>
</a>
</g>
<!-- \\ImboClient\\Url\\Images\\QueryInterface -->
<g id="node28" class="node"><title>\\ImboClient\\Url\\Images\\QueryInterface</title>
<a xlink:href="library.ImboClient.Url.Images.QueryInterface.html" xlink:title="QueryInterface" target="_parent">
<polygon fill="none" stroke="black" points="414,-1512 304,-1512 304,-1476 414,-1476 414,-1512"/>
<text text-anchor="middle" x="359" y="-1491.1" font-family="Courier,monospace" font-size="11.00">QueryInterface</text>
</a>
</g>
<!-- \\ImboClient\\Url\\Images\\Image -->
<g id="node29" class="node"><title>\\ImboClient\\Url\\Images\\Image</title>
<a xlink:href="library.ImboClient.Url.Images.Image.html" xlink:title="Image" target="_parent">
<polygon fill="none" stroke="black" points="713,-1566 659,-1566 659,-1530 713,-1530 713,-1566"/>
<text text-anchor="middle" x="686" y="-1545.1" font-family="Courier,monospace" font-size="11.00">Image</text>
</a>
</g>
<!-- \\ImboClient\\Url\\Images\\Image&#45;&gt;\\ImboClient\\Url\\Images\\ImageInterface -->
<g id="edge71" class="edge"><title>\\ImboClient\\Url\\Images\\Image&#45;&gt;\\ImboClient\\Url\\Images\\ImageInterface</title>
<path fill="none" stroke="black" stroke-dasharray="1,5" d="M658.962,-1548C608.062,-1548 496.688,-1548 424.903,-1548"/>
<polygon fill="none" stroke="black" points="424.611,-1544.5 414.611,-1548 424.611,-1551.5 424.611,-1544.5"/>
</g>
<!-- \\ImboClient\\Url\\Images\\Query -->
<g id="node30" class="node"><title>\\ImboClient\\Url\\Images\\Query</title>
<a xlink:href="library.ImboClient.Url.Images.Query.html" xlink:title="Query" target="_parent">
<polygon fill="none" stroke="black" points="713,-1512 659,-1512 659,-1476 713,-1476 713,-1512"/>
<text text-anchor="middle" x="686" y="-1491.1" font-family="Courier,monospace" font-size="11.00">Query</text>
</a>
</g>
<!-- \\ImboClient\\Url\\Images\\Query&#45;&gt;\\ImboClient\\Url\\Images\\QueryInterface -->
<g id="edge73" class="edge"><title>\\ImboClient\\Url\\Images\\Query&#45;&gt;\\ImboClient\\Url\\Images\\QueryInterface</title>
<path fill="none" stroke="black" stroke-dasharray="1,5" d="M658.962,-1494C608.062,-1494 496.688,-1494 424.903,-1494"/>
<polygon fill="none" stroke="black" points="424.611,-1490.5 414.611,-1494 424.611,-1497.5 424.611,-1490.5"/>
</g>
<!-- \\ImboClient\\Url\\UrlTest -->
<g id="node31" class="node"><title>\\ImboClient\\Url\\UrlTest</title>
<a xlink:href="tests.ImboClient.Url.UrlTest.html" xlink:title="UrlTest" target="_parent">
<polygon fill="none" stroke="black" points="718,-702 654,-702 654,-666 718,-666 718,-702"/>
<text text-anchor="middle" x="686" y="-681.1" font-family="Courier,monospace" font-size="11.00">UrlTest</text>
</a>
</g>
<!-- \\ImboClient\\Url\\UrlTest&#45;&gt;\\PHPUnit_Framework_TestCase -->
<g id="edge17" class="edge"><title>\\ImboClient\\Url\\UrlTest&#45;&gt;\\PHPUnit_Framework_TestCase</title>
<path fill="none" stroke="black" d="M653.831,-683.899C631.964,-682.004 604.171,-675.68 588,-657 438.772,-484.615 684.619,-309.824 524,-148 521.05,-145.027 517.904,-142.321 514.596,-139.86"/>
<polygon fill="none" stroke="black" points="516.331,-136.812 506.054,-134.236 512.482,-142.659 516.331,-136.812"/>
</g>
<!-- \\ImboClient\\Url\\UrlImplementation -->
<g id="node32" class="node"><title>\\ImboClient\\Url\\UrlImplementation</title>
<a xlink:href="tests.ImboClient.Url.UrlTest.html" xlink:title="UrlImplementation" target="_parent">
<polygon fill="none" stroke="black" points="751,-1242 621,-1242 621,-1206 751,-1206 751,-1242"/>
<text text-anchor="middle" x="686" y="-1221.1" font-family="Courier,monospace" font-size="11.00">UrlImplementation</text>
</a>
</g>
<!-- \\ImboClient\\Url\\Url -->
<g id="node43" class="node"><title>\\ImboClient\\Url\\Url</title>
<a xlink:href="library.ImboClient.Url.Url.html" xlink:title="«abstract»&lt;br/&gt;Url" target="_parent">
<polygon fill="none" stroke="black" points="401,-1242 317,-1242 317,-1206 401,-1206 401,-1242"/>
<text text-anchor="start" x="325" y="-1229.43" font-family="Courier,monospace" font-size="11.00">«abstract»</text>
<text text-anchor="start" x="348.5" y="-1216.23" font-family="Courier,monospace" font-size="11.00">Url</text>
</a>
</g>
<!-- \\ImboClient\\Url\\UrlImplementation&#45;&gt;\\ImboClient\\Url\\Url -->
<g id="edge19" class="edge"><title>\\ImboClient\\Url\\UrlImplementation&#45;&gt;\\ImboClient\\Url\\Url</title>
<path fill="none" stroke="black" d="M620.22,-1224C558.944,-1224 468.745,-1224 411.974,-1224"/>
<polygon fill="none" stroke="black" points="411.778,-1220.5 401.778,-1224 411.778,-1227.5 411.778,-1220.5"/>
</g>
<!-- \\ImboClient\\Url\\UserTest -->
<g id="node33" class="node"><title>\\ImboClient\\Url\\UserTest</title>
<a xlink:href="tests.ImboClient.Url.UserTest.html" xlink:title="UserTest" target="_parent">
<polygon fill="none" stroke="black" points="721,-648 651,-648 651,-612 721,-612 721,-648"/>
<text text-anchor="middle" x="686" y="-627.1" font-family="Courier,monospace" font-size="11.00">UserTest</text>
</a>
</g>
<!-- \\ImboClient\\Url\\UserTest&#45;&gt;\\PHPUnit_Framework_TestCase -->
<g id="edge25" class="edge"><title>\\ImboClient\\Url\\UserTest&#45;&gt;\\PHPUnit_Framework_TestCase</title>
<path fill="none" stroke="black" d="M650.269,-631.434C629.158,-630.254 603.59,-624.934 588,-608 448.193,-456.143 670.371,-293.541 524,-148 521.03,-145.047 517.868,-142.358 514.544,-139.912"/>
<polygon fill="none" stroke="black" points="516.257,-136.851 505.968,-134.322 512.435,-142.715 516.257,-136.851"/>
</g>
<!-- \\ImboClient\\Url\\AccessTokenTest -->
<g id="node34" class="node"><title>\\ImboClient\\Url\\AccessTokenTest</title>
<a xlink:href="tests.ImboClient.Url.AccessTokenTest.html" xlink:title="AccessTokenTest" target="_parent">
<polygon fill="none" stroke="black" points="745,-972 627,-972 627,-936 745,-936 745,-972"/>
<text text-anchor="middle" x="686" y="-951.1" font-family="Courier,monospace" font-size="11.00">AccessTokenTest</text>
</a>
</g>
<!-- \\ImboClient\\Url\\AccessTokenTest&#45;&gt;\\PHPUnit_Framework_TestCase -->
<g id="edge27" class="edge"><title>\\ImboClient\\Url\\AccessTokenTest&#45;&gt;\\PHPUnit_Framework_TestCase</title>
<path fill="none" stroke="black" d="M626.815,-949.623C612.087,-945.648 597.74,-938.754 588,-927 477.174,-793.256 643.675,-273.887 524,-148 521.169,-145.022 518.143,-142.307 514.953,-139.834"/>
<polygon fill="none" stroke="black" points="516.93,-136.946 506.703,-134.178 512.972,-142.72 516.93,-136.946"/>
</g>
<!-- \\ImboClient\\Url\\MetadataTest -->
<g id="node35" class="node"><title>\\ImboClient\\Url\\MetadataTest</title>
<a xlink:href="tests.ImboClient.Url.MetadataTest.html" xlink:title="MetadataTest" target="_parent">
<polygon fill="none" stroke="black" points="735,-918 637,-918 637,-882 735,-882 735,-918"/>
<text text-anchor="middle" x="686" y="-897.1" font-family="Courier,monospace" font-size="11.00">MetadataTest</text>
</a>
</g>
<!-- \\ImboClient\\Url\\MetadataTest&#45;&gt;\\PHPUnit_Framework_TestCase -->
<g id="edge29" class="edge"><title>\\ImboClient\\Url\\MetadataTest&#45;&gt;\\PHPUnit_Framework_TestCase</title>
<path fill="none" stroke="black" d="M636.83,-897.852C618.84,-894.466 599.98,-887.368 588,-873 484.425,-748.777 635.793,-264.882 524,-148 521.16,-145.03 518.126,-142.323 514.929,-139.857"/>
<polygon fill="none" stroke="black" points="516.896,-136.962 506.663,-134.216 512.95,-142.744 516.896,-136.962"/>
</g>
<!-- \\ImboClient\\Url\\ImageTest -->
<g id="node36" class="node"><title>\\ImboClient\\Url\\ImageTest</title>
<a xlink:href="tests.ImboClient.Url.ImageTest.html" xlink:title="ImageTest" target="_parent">
<polygon fill="none" stroke="black" points="724,-864 648,-864 648,-828 724,-828 724,-864"/>
<text text-anchor="middle" x="686" y="-843.1" font-family="Courier,monospace" font-size="11.00">ImageTest</text>
</a>
</g>
<!-- \\ImboClient\\Url\\ImageTest&#45;&gt;\\PHPUnit_Framework_TestCase -->
<g id="edge31" class="edge"><title>\\ImboClient\\Url\\ImageTest&#45;&gt;\\PHPUnit_Framework_TestCase</title>
<path fill="none" stroke="black" d="M647.405,-845.416C626.645,-842.943 602.413,-836.163 588,-819 491.673,-704.294 627.914,-255.881 524,-148 521.149,-145.041 518.106,-142.342 514.901,-139.884"/>
<polygon fill="none" stroke="black" points="516.857,-136.981 506.617,-134.261 512.925,-142.773 516.857,-136.981"/>
</g>
<!-- \\ImboClient\\Url\\StatusTest -->
<g id="node37" class="node"><title>\\ImboClient\\Url\\StatusTest</title>
<a xlink:href="tests.ImboClient.Url.StatusTest.html" xlink:title="StatusTest" target="_parent">
<polygon fill="none" stroke="black" points="728,-810 644,-810 644,-774 728,-774 728,-810"/>
<text text-anchor="middle" x="686" y="-789.1" font-family="Courier,monospace" font-size="11.00">StatusTest</text>
</a>
</g>
<!-- \\ImboClient\\Url\\StatusTest&#45;&gt;\\PHPUnit_Framework_TestCase -->
<g id="edge33" class="edge"><title>\\ImboClient\\Url\\StatusTest&#45;&gt;\\PHPUnit_Framework_TestCase</title>
<path fill="none" stroke="black" d="M644,-790.919C624.074,-788.104 601.686,-781.161 588,-765 498.917,-659.805 620.039,-246.885 524,-148 521.137,-145.052 518.083,-142.364 514.868,-139.916"/>
<polygon fill="none" stroke="black" points="516.81,-137.004 506.563,-134.313 512.896,-142.807 516.81,-137.004"/>
</g>
<!-- \\ImboClient\\Url\\ImagesTest -->
<g id="node38" class="node"><title>\\ImboClient\\Url\\ImagesTest</title>
<a xlink:href="tests.ImboClient.Url.ImagesTest.html" xlink:title="ImagesTest" target="_parent">
<polygon fill="none" stroke="black" points="728,-756 644,-756 644,-720 728,-720 728,-756"/>
<text text-anchor="middle" x="686" y="-735.1" font-family="Courier,monospace" font-size="11.00">ImagesTest</text>
</a>
</g>
<!-- \\ImboClient\\Url\\ImagesTest&#45;&gt;\\PHPUnit_Framework_TestCase -->
<g id="edge35" class="edge"><title>\\ImboClient\\Url\\ImagesTest&#45;&gt;\\PHPUnit_Framework_TestCase</title>
<path fill="none" stroke="black" d="M643.569,-736.791C623.786,-733.916 601.65,-726.959 588,-711 424.31,-519.621 700.341,-327.789 524,-148 521.067,-145.01 517.938,-142.288 514.643,-139.813"/>
<polygon fill="none" stroke="black" points="516.399,-136.777 506.132,-134.159 512.525,-142.608 516.399,-136.777"/>
</g>
<!-- \\ImboClient\\Url\\Images -->
<g id="node39" class="node"><title>\\ImboClient\\Url\\Images</title>
<a xlink:href="library.ImboClient.Url.Images.html" xlink:title="Images" target="_parent">
<polygon fill="none" stroke="black" points="714,-1188 658,-1188 658,-1152 714,-1152 714,-1188"/>
<text text-anchor="middle" x="686" y="-1167.1" font-family="Courier,monospace" font-size="11.00">Images</text>
</a>
</g>
<!-- \\ImboClient\\Url\\Images&#45;&gt;\\ImboClient\\Url\\Url -->
<g id="edge45" class="edge"><title>\\ImboClient\\Url\\Images&#45;&gt;\\ImboClient\\Url\\Url</title>
<path fill="none" stroke="black" d="M657.268,-1174.74C602.233,-1183.83 481.227,-1203.82 411.433,-1215.34"/>
<polygon fill="none" stroke="black" points="410.817,-1211.9 401.521,-1216.98 411.958,-1218.8 410.817,-1211.9"/>
</g>
<!-- \\ImboClient\\Url\\UrlInterface -->
<g id="node44" class="node"><title>\\ImboClient\\Url\\UrlInterface</title>
<a xlink:href="library.ImboClient.Url.UrlInterface.html" xlink:title="UrlInterface" target="_parent">
<polygon fill="none" stroke="black" points="122,-1269 24,-1269 24,-1233 122,-1233 122,-1269"/>
<text text-anchor="middle" x="73" y="-1248.1" font-family="Courier,monospace" font-size="11.00">UrlInterface</text>
</a>
</g>
<!-- \\ImboClient\\Url\\Images&#45;&gt;\\ImboClient\\Url\\UrlInterface -->
<g id="edge65" class="edge"><title>\\ImboClient\\Url\\Images&#45;&gt;\\ImboClient\\Url\\UrlInterface</title>
<path fill="none" stroke="black" stroke-dasharray="1,5" d="M657.165,-1161.86C599.689,-1146.88 467.083,-1118.63 359,-1143"/>
</g>
<!-- \\ImboClient\\Url\\Status -->
<g id="node40" class="node"><title>\\ImboClient\\Url\\Status</title>
<a xlink:href="library.ImboClient.Url.Status.html" xlink:title="Status" target="_parent">
<polygon fill="none" stroke="black" points="714,-1134 658,-1134 658,-1098 714,-1098 714,-1134"/>
<text text-anchor="middle" x="686" y="-1113.1" font-family="Courier,monospace" font-size="11.00">Status</text>
</a>
</g>
<!-- \\ImboClient\\Url\\Status&#45;&gt;\\ImboClient\\Url\\Url -->
<g id="edge47" class="edge"><title>\\ImboClient\\Url\\Status&#45;&gt;\\ImboClient\\Url\\Url</title>
<path fill="none" stroke="black" d="M657.112,-1123.38C637.511,-1128.53 611.066,-1135.75 588,-1143 526.777,-1162.23 457.422,-1187.22 411.236,-1204.33"/>
<polygon fill="none" stroke="black" points="409.9,-1201.09 401.744,-1207.85 412.337,-1207.65 409.9,-1201.09"/>
</g>
<!-- \\ImboClient\\Url\\Status&#45;&gt;\\ImboClient\\Url\\UrlInterface -->
<g id="edge67" class="edge"><title>\\ImboClient\\Url\\Status&#45;&gt;\\ImboClient\\Url\\UrlInterface</title>
<path fill="none" stroke="black" stroke-dasharray="1,5" d="M657.165,-1115.71C599.689,-1115.71 467.083,-1118.63 359,-1143"/>
</g>
<!-- \\ImboClient\\Url\\ImageInterface -->
<g id="node41" class="node"><title>\\ImboClient\\Url\\ImageInterface</title>
<a xlink:href="library.ImboClient.Url.ImageInterface.html" xlink:title="ImageInterface" target="_parent">
<polygon fill="none" stroke="black" points="414,-1296 304,-1296 304,-1260 414,-1260 414,-1296"/>
<text text-anchor="middle" x="359" y="-1275.1" font-family="Courier,monospace" font-size="11.00">ImageInterface</text>
</a>
</g>
<!-- \\ImboClient\\Url\\ImageInterface&#45;&gt;\\ImboClient\\Url\\UrlInterface -->
<g id="edge49" class="edge"><title>\\ImboClient\\Url\\ImageInterface&#45;&gt;\\ImboClient\\Url\\UrlInterface</title>
<path fill="none" stroke="black" d="M303.177,-1272.73C253.902,-1268.08 182.296,-1261.32 132.07,-1256.58"/>
<polygon fill="none" stroke="black" points="132.292,-1253.08 122.008,-1255.63 131.634,-1260.05 132.292,-1253.08"/>
</g>
<!-- \\ImboClient\\Url\\AccessTokenInterface -->
<g id="node42" class="node"><title>\\ImboClient\\Url\\AccessTokenInterface</title>
<a xlink:href="library.ImboClient.Url.AccessTokenInterface.html" xlink:title="AccessTokenInterface" target="_parent">
<polygon fill="none" stroke="black" points="435,-1026 283,-1026 283,-990 435,-990 435,-1026"/>
<text text-anchor="middle" x="359" y="-1005.1" font-family="Courier,monospace" font-size="11.00">AccessTokenInterface</text>
</a>
</g>
<!-- \\ImboClient\\Url\\Url&#45;&gt;\\ImboClient\\Url\\UrlInterface -->
<g id="edge69" class="edge"><title>\\ImboClient\\Url\\Url&#45;&gt;\\ImboClient\\Url\\UrlInterface</title>
<path fill="none" stroke="black" stroke-dasharray="1,5" d="M316.492,-1228.01C267.812,-1232.61 187.716,-1240.17 132.769,-1245.36"/>
<polygon fill="none" stroke="black" points="132.1,-1241.9 122.474,-1246.33 132.758,-1248.87 132.1,-1241.9"/>
</g>
<!-- \\ImboClient\\Url\\User -->
<g id="node45" class="node"><title>\\ImboClient\\Url\\User</title>
<a xlink:href="library.ImboClient.Url.User.html" xlink:title="User" target="_parent">
<polygon fill="none" stroke="black" points="713,-1080 659,-1080 659,-1044 713,-1044 713,-1080"/>
<text text-anchor="middle" x="686" y="-1059.1" font-family="Courier,monospace" font-size="11.00">User</text>
</a>
</g>
<!-- \\ImboClient\\Url\\User&#45;&gt;\\ImboClient\\Url\\Url -->
<g id="edge51" class="edge"><title>\\ImboClient\\Url\\User&#45;&gt;\\ImboClient\\Url\\Url</title>
<path fill="none" stroke="black" d="M658.898,-1065.9C638.449,-1069.66 610.218,-1076.66 588,-1089 554.176,-1107.78 556.185,-1126.53 524,-1148 488.656,-1171.57 444.824,-1191.38 411.221,-1204.86"/>
<polygon fill="none" stroke="black" points="409.603,-1201.73 401.587,-1208.66 412.174,-1208.25 409.603,-1201.73"/>
</g>
<!-- \\ImboClient\\Url\\User&#45;&gt;\\ImboClient\\Url\\UrlInterface -->
<g id="edge75" class="edge"><title>\\ImboClient\\Url\\User&#45;&gt;\\ImboClient\\Url\\UrlInterface</title>
<path fill="none" stroke="black" stroke-dasharray="1,5" d="M658.961,-1069.11C603.101,-1083.7 470.827,-1117.79 359,-1143"/>
<path fill="none" stroke="black" stroke-dasharray="1,5" d="M359,-1143C271.879,-1162.64 175.726,-1203.12 120.052,-1228.56"/>
<polygon fill="none" stroke="black" points="118.425,-1225.46 110.806,-1232.82 121.353,-1231.81 118.425,-1225.46"/>
</g>
<!-- \\ImboClient\\Url\\Metadata -->
<g id="node46" class="node"><title>\\ImboClient\\Url\\Metadata</title>
<a xlink:href="library.ImboClient.Url.Metadata.html" xlink:title="Metadata" target="_parent">
<polygon fill="none" stroke="black" points="721,-1350 651,-1350 651,-1314 721,-1314 721,-1350"/>
<text text-anchor="middle" x="686" y="-1329.1" font-family="Courier,monospace" font-size="11.00">Metadata</text>
</a>
</g>
<!-- \\ImboClient\\Url\\Metadata&#45;&gt;\\ImboClient\\Url\\Url -->
<g id="edge53" class="edge"><title>\\ImboClient\\Url\\Metadata&#45;&gt;\\ImboClient\\Url\\Url</title>
<path fill="none" stroke="black" d="M650.146,-1326C630.959,-1321.85 607.361,-1315.2 588,-1305 555.073,-1287.65 557.805,-1266.57 524,-1251 488.756,-1234.77 445.331,-1228.13 411.878,-1225.49"/>
<polygon fill="none" stroke="black" points="412.055,-1221.99 401.836,-1224.79 411.569,-1228.97 412.055,-1221.99"/>
</g>
<!-- \\ImboClient\\Url\\Metadata&#45;&gt;\\ImboClient\\Url\\UrlInterface -->
<g id="edge77" class="edge"><title>\\ImboClient\\Url\\Metadata&#45;&gt;\\ImboClient\\Url\\UrlInterface</title>
<path fill="none" stroke="black" stroke-dasharray="1,5" d="M650.467,-1334.41C568.599,-1339.03 360.92,-1345.37 194,-1305 166.094,-1298.25 136.639,-1285.25 113.778,-1273.69"/>
<polygon fill="none" stroke="black" points="115.217,-1270.5 104.725,-1269.02 112.005,-1276.72 115.217,-1270.5"/>
</g>
<!-- \\ImboClient\\Url\\Image -->
<g id="node47" class="node"><title>\\ImboClient\\Url\\Image</title>
<a xlink:href="library.ImboClient.Url.Image.html" xlink:title="Image" target="_parent">
<polygon fill="none" stroke="black" points="713,-1296 659,-1296 659,-1260 713,-1260 713,-1296"/>
<text text-anchor="middle" x="686" y="-1275.1" font-family="Courier,monospace" font-size="11.00">Image</text>
</a>
</g>
<!-- \\ImboClient\\Url\\Image&#45;&gt;\\ImboClient\\Url\\ImageInterface -->
<g id="edge79" class="edge"><title>\\ImboClient\\Url\\Image&#45;&gt;\\ImboClient\\Url\\ImageInterface</title>
<path fill="none" stroke="black" stroke-dasharray="1,5" d="M658.962,-1278C608.062,-1278 496.688,-1278 424.903,-1278"/>
<polygon fill="none" stroke="black" points="424.611,-1274.5 414.611,-1278 424.611,-1281.5 424.611,-1274.5"/>
</g>
<!-- \\ImboClient\\Url\\Image&#45;&gt;\\ImboClient\\Url\\Url -->
<g id="edge55" class="edge"><title>\\ImboClient\\Url\\Image&#45;&gt;\\ImboClient\\Url\\Url</title>
<path fill="none" stroke="black" d="M658.774,-1273.44C626.587,-1268.05 571.402,-1258.83 524,-1251 486.529,-1244.81 444.26,-1237.9 411.885,-1232.61"/>
<polygon fill="none" stroke="black" points="412.173,-1229.11 401.74,-1230.96 411.046,-1236.02 412.173,-1229.11"/>
</g>
<!-- \\ImboClient\\Url\\AccessToken -->
<g id="node48" class="node"><title>\\ImboClient\\Url\\AccessToken</title>
<a xlink:href="library.ImboClient.Url.AccessToken.html" xlink:title="AccessToken" target="_parent">
<polygon fill="none" stroke="black" points="731,-1026 641,-1026 641,-990 731,-990 731,-1026"/>
<text text-anchor="middle" x="686" y="-1005.1" font-family="Courier,monospace" font-size="11.00">AccessToken</text>
</a>
</g>
<!-- \\ImboClient\\Url\\AccessToken&#45;&gt;\\ImboClient\\Url\\AccessTokenInterface -->
<g id="edge81" class="edge"><title>\\ImboClient\\Url\\AccessToken&#45;&gt;\\ImboClient\\Url\\AccessTokenInterface</title>
<path fill="none" stroke="black" stroke-dasharray="1,5" d="M640.188,-1008C589.821,-1008 507.756,-1008 445.25,-1008"/>
<polygon fill="none" stroke="black" points="445.002,-1004.5 435.002,-1008 445.002,-1011.5 445.002,-1004.5"/>
</g>
<!-- \\ImboClient\\VersionTest -->
<g id="node50" class="node"><title>\\ImboClient\\VersionTest</title>
<a xlink:href="tests.ImboClient.VersionTest.html" xlink:title="VersionTest" target="_parent">
<polygon fill="none" stroke="black" points="731,-304 641,-304 641,-268 731,-268 731,-304"/>
<text text-anchor="middle" x="686" y="-283.1" font-family="Courier,monospace" font-size="11.00">VersionTest</text>
</a>
</g>
<!-- \\ImboClient\\VersionTest&#45;&gt;\\PHPUnit_Framework_TestCase -->
<g id="edge13" class="edge"><title>\\ImboClient\\VersionTest&#45;&gt;\\PHPUnit_Framework_TestCase</title>
<path fill="none" stroke="black" d="M640.23,-280.948C622.508,-277.164 602.937,-270.552 588,-259 542.954,-224.161 571.314,-179.69 524,-148 519.348,-144.884 514.455,-142.114 509.384,-139.655"/>
<polygon fill="none" stroke="black" points="510.64,-136.384 500.078,-135.557 507.819,-142.79 510.64,-136.384"/>
</g>
<!-- \\ImboClient\\ClientTest -->
<g id="node51" class="node"><title>\\ImboClient\\ClientTest</title>
<a xlink:href="tests.ImboClient.ClientTest.html" xlink:title="ClientTest" target="_parent">
<polygon fill="none" stroke="black" points="728,-250 644,-250 644,-214 728,-214 728,-250"/>
<text text-anchor="middle" x="686" y="-229.1" font-family="Courier,monospace" font-size="11.00">ClientTest</text>
</a>
</g>
<!-- \\ImboClient\\ClientTest&#45;&gt;\\PHPUnit_Framework_TestCase -->
<g id="edge15" class="edge"><title>\\ImboClient\\ClientTest&#45;&gt;\\PHPUnit_Framework_TestCase</title>
<path fill="none" stroke="black" d="M643.857,-224.836C625.917,-220.68 605.208,-214.361 588,-205 554.54,-186.798 558.621,-163.882 524,-148 516.982,-144.781 509.631,-141.993 502.094,-139.584"/>
<polygon fill="none" stroke="black" points="503.04,-136.214 492.458,-136.729 501.052,-142.925 503.04,-136.214"/>
</g>
<!-- \\ImboClient\\Client -->
<g id="node52" class="node"><title>\\ImboClient\\Client</title>
<a xlink:href="library.ImboClient.Client.html" xlink:title="Client" target="_parent">
<polygon fill="none" stroke="black" points="714,-594 658,-594 658,-558 714,-558 714,-594"/>
<text text-anchor="middle" x="686" y="-573.1" font-family="Courier,monospace" font-size="11.00">Client</text>
</a>
</g>
<!-- \\ImboClient\\ClientInterface -->
<g id="node54" class="node"><title>\\ImboClient\\ClientInterface</title>
<a xlink:href="library.ImboClient.ClientInterface.html" xlink:title="ClientInterface" target="_parent">
<polygon fill="none" stroke="black" points="418,-594 300,-594 300,-558 418,-558 418,-594"/>
<text text-anchor="middle" x="359" y="-573.1" font-family="Courier,monospace" font-size="11.00">ClientInterface</text>
</a>
</g>
<!-- \\ImboClient\\Client&#45;&gt;\\ImboClient\\ClientInterface -->
<g id="edge63" class="edge"><title>\\ImboClient\\Client&#45;&gt;\\ImboClient\\ClientInterface</title>
<path fill="none" stroke="black" stroke-dasharray="1,5" d="M657.268,-576C606.466,-576 499.453,-576 428.395,-576"/>
<polygon fill="none" stroke="black" points="428.183,-572.5 418.183,-576 428.183,-579.5 428.183,-572.5"/>
</g>
<!-- \\ImboClient\\Version -->
<g id="node53" class="node"><title>\\ImboClient\\Version</title>
<a xlink:href="library.ImboClient.Version.html" xlink:title="Version" target="_parent">
<polygon fill="none" stroke="black" points="718,-196 654,-196 654,-160 718,-160 718,-196"/>
<text text-anchor="middle" x="686" y="-175.1" font-family="Courier,monospace" font-size="11.00">Version</text>
</a>
</g>
</g>
</svg>
