<?xml version="1.0" encoding="UTF-8" standalone="no"?>
<!DOCTYPE svg PUBLIC "-//W3C//DTD SVG 1.1//EN"
 "http://www.w3.org/Graphics/SVG/1.1/DTD/svg11.dtd">
<!-- Generated by graphviz version 2.26.3 (20100126.1600)
 -->
<!-- Title: G Pages: 1 -->
<svg width="764pt" height="1432pt"
 viewBox="0.00 0.00 764.00 1432.00" xmlns="http://www.w3.org/2000/svg" xmlns:xlink="http://www.w3.org/1999/xlink">
<g id="graph1" class="graph" transform="scale(1 1) rotate(0) translate(4 1428)">
<title>G</title>
<polygon fill="white" stroke="white" points="-4,5 -4,-1428 761,-1428 761,5 -4,5"/>
<g id="graph2" class="cluster"><title>cluster_ImboClient</title>
<polyline fill="none" stroke="gray" points="548,-8 736,-8 "/>
<path fill="none" stroke="gray" d="M736,-8C742,-8 748,-14 748,-20"/>
<polyline fill="none" stroke="gray" points="748,-20 748,-1404 "/>
<path fill="none" stroke="gray" d="M748,-1404C748,-1410 742,-1416 736,-1416"/>
<polyline fill="none" stroke="gray" points="736,-1416 548,-1416 "/>
<path fill="none" stroke="gray" d="M548,-1416C542,-1416 536,-1410 536,-1404"/>
<polyline fill="none" stroke="gray" points="536,-1404 536,-20 "/>
<path fill="none" stroke="gray" d="M536,-20C536,-14 542,-8 548,-8"/>
<text text-anchor="middle" x="642" y="-1402.1" font-family="Times Roman,serif" font-size="11.00" fill="gray">ImboClient</text>
</g>
<g id="graph3" class="cluster"><title>cluster_ImboClient\Driver</title>
<polyline fill="none" stroke="gray" points="587,-1258 697,-1258 "/>
<path fill="none" stroke="gray" d="M697,-1258C703,-1258 709,-1264 709,-1270"/>
<polyline fill="none" stroke="gray" points="709,-1270 709,-1374 "/>
<path fill="none" stroke="gray" d="M709,-1374C709,-1380 703,-1386 697,-1386"/>
<polyline fill="none" stroke="gray" points="697,-1386 587,-1386 "/>
<path fill="none" stroke="gray" d="M587,-1386C581,-1386 575,-1380 575,-1374"/>
<polyline fill="none" stroke="gray" points="575,-1374 575,-1270 "/>
<path fill="none" stroke="gray" d="M575,-1270C575,-1264 581,-1258 587,-1258"/>
<text text-anchor="middle" x="642" y="-1372.1" font-family="Times Roman,serif" font-size="11.00" fill="gray">Driver</text>
</g>
<g id="graph4" class="cluster"><title>cluster_ImboClient\Http</title>
<polyline fill="none" stroke="gray" points="556,-984 728,-984 "/>
<path fill="none" stroke="gray" d="M728,-984C734,-984 740,-990 740,-996"/>
<polyline fill="none" stroke="gray" points="740,-996 740,-1238 "/>
<path fill="none" stroke="gray" d="M740,-1238C740,-1244 734,-1250 728,-1250"/>
<polyline fill="none" stroke="gray" points="728,-1250 556,-1250 "/>
<path fill="none" stroke="gray" d="M556,-1250C550,-1250 544,-1244 544,-1238"/>
<polyline fill="none" stroke="gray" points="544,-1238 544,-996 "/>
<path fill="none" stroke="gray" d="M544,-996C544,-990 550,-984 556,-984"/>
<text text-anchor="middle" x="642" y="-1236.1" font-family="Times Roman,serif" font-size="11.00" fill="gray">Http</text>
</g>
<g id="graph5" class="cluster"><title>cluster_ImboClient\Http\Response</title>
<polyline fill="none" stroke="gray" points="580,-1092 704,-1092 "/>
<path fill="none" stroke="gray" d="M704,-1092C710,-1092 716,-1098 716,-1104"/>
<polyline fill="none" stroke="gray" points="716,-1104 716,-1208 "/>
<path fill="none" stroke="gray" d="M716,-1208C716,-1214 710,-1220 704,-1220"/>
<polyline fill="none" stroke="gray" points="704,-1220 580,-1220 "/>
<path fill="none" stroke="gray" d="M580,-1220C574,-1220 568,-1214 568,-1208"/>
<polyline fill="none" stroke="gray" points="568,-1208 568,-1104 "/>
<path fill="none" stroke="gray" d="M568,-1104C568,-1098 574,-1092 580,-1092"/>
<text text-anchor="middle" x="642" y="-1206.1" font-family="Times Roman,serif" font-size="11.00" fill="gray">Response</text>
</g>
<g id="graph7" class="cluster"><title>cluster_ImboClient\Url</title>
<polyline fill="none" stroke="gray" points="570,-170 714,-170 "/>
<path fill="none" stroke="gray" d="M714,-170C720,-170 726,-176 726,-182"/>
<polyline fill="none" stroke="gray" points="726,-182 726,-964 "/>
<path fill="none" stroke="gray" d="M726,-964C726,-970 720,-976 714,-976"/>
<polyline fill="none" stroke="gray" points="714,-976 570,-976 "/>
<path fill="none" stroke="gray" d="M570,-976C564,-976 558,-970 558,-964"/>
<polyline fill="none" stroke="gray" points="558,-964 558,-182 "/>
<path fill="none" stroke="gray" d="M558,-182C558,-176 564,-170 570,-170"/>
<text text-anchor="middle" x="642" y="-962.1" font-family="Times Roman,serif" font-size="11.00" fill="gray">Url</text>
</g>
<g id="graph8" class="cluster"><title>cluster_ImboClient\Url\Images</title>
<polyline fill="none" stroke="gray" points="590,-710 694,-710 "/>
<path fill="none" stroke="gray" d="M694,-710C700,-710 706,-716 706,-722"/>
<polyline fill="none" stroke="gray" points="706,-722 706,-934 "/>
<path fill="none" stroke="gray" d="M706,-934C706,-940 700,-946 694,-946"/>
<polyline fill="none" stroke="gray" points="694,-946 590,-946 "/>
<path fill="none" stroke="gray" d="M590,-946C584,-946 578,-940 578,-934"/>
<polyline fill="none" stroke="gray" points="578,-934 578,-722 "/>
<path fill="none" stroke="gray" d="M578,-722C578,-716 584,-710 590,-710"/>
<text text-anchor="middle" x="642" y="-932.1" font-family="Times Roman,serif" font-size="11.00" fill="gray">Images</text>
</g>
<!-- \\ImboClient\\Driver\\DriverInterface -->
<g id="node3" class="node"><title>\\ImboClient\\Driver\\DriverInterface</title>
<a xlink:href="Driver.DriverInterface.html" xlink:title="DriverInterface" target="_parent">
<polygon fill="none" stroke="black" points="701,-1356 583,-1356 583,-1320 701,-1320 701,-1356"/>
<text text-anchor="middle" x="642" y="-1335.1" font-family="Courier,monospace" font-size="11.00">DriverInterface</text>
</a>
</g>
<!-- \\ImboClient\\Driver\\Curl -->
<g id="node4" class="node"><title>\\ImboClient\\Driver\\Curl</title>
<a xlink:href="Driver.Curl.html" xlink:title="Curl" target="_parent">
<polygon fill="none" stroke="black" points="669,-1302 615,-1302 615,-1266 669,-1266 669,-1302"/>
<text text-anchor="middle" x="642" y="-1281.1" font-family="Courier,monospace" font-size="11.00">Curl</text>
</a>
</g>
<!-- ImboClient\\Driver\\DriverInterface -->
<g id="node57" class="node"><title>ImboClient\\Driver\\DriverInterface</title>
<ellipse fill="none" stroke="black" cx="240" cy="-1284" rx="181.226" ry="18.3848"/>
<text text-anchor="middle" x="240" y="-1280.4" font-family="Times Roman,serif" font-size="14.00" fill="gray">ImboClient\\Driver\\DriverInterface</text>
</g>
<!-- \\ImboClient\\Driver\\Curl&#45;&gt;ImboClient\\Driver\\DriverInterface -->
<g id="edge42" class="edge"><title>\\ImboClient\\Driver\\Curl&#45;&gt;ImboClient\\Driver\\DriverInterface</title>
<path fill="none" stroke="black" stroke-dasharray="1,5" d="M614.999,-1284C576.749,-1284 503.428,-1284 431.692,-1284"/>
<polygon fill="none" stroke="black" points="431.584,-1280.5 421.584,-1284 431.584,-1287.5 431.584,-1280.5"/>
</g>
<!-- \\ImboClient\\Http\\Response\\Response -->
<g id="node7" class="node"><title>\\ImboClient\\Http\\Response\\Response</title>
<a xlink:href="Http.Response.Response.html" xlink:title="Response" target="_parent">
<polygon fill="none" stroke="black" points="677,-1190 607,-1190 607,-1154 677,-1154 677,-1190"/>
<text text-anchor="middle" x="642" y="-1169.1" font-family="Courier,monospace" font-size="11.00">Response</text>
</a>
</g>
<!-- ImboClient\\Http\\Response\\ResponseInterface -->
<g id="node59" class="node"><title>ImboClient\\Http\\Response\\ResponseInterface</title>
<ellipse fill="none" stroke="black" cx="240" cy="-1172" rx="239.209" ry="18.3848"/>
<text text-anchor="middle" x="240" y="-1168.4" font-family="Times Roman,serif" font-size="14.00" fill="gray">ImboClient\\Http\\Response\\ResponseInterface</text>
</g>
<!-- \\ImboClient\\Http\\Response\\Response&#45;&gt;ImboClient\\Http\\Response\\ResponseInterface -->
<g id="edge44" class="edge"><title>\\ImboClient\\Http\\Response\\Response&#45;&gt;ImboClient\\Http\\Response\\ResponseInterface</title>
<path fill="none" stroke="black" stroke-dasharray="1,5" d="M606.325,-1172C578.04,-1172 535.74,-1172 489.821,-1172"/>
<polygon fill="none" stroke="black" points="489.659,-1168.5 479.659,-1172 489.659,-1175.5 489.659,-1168.5"/>
</g>
<!-- \\ImboClient\\Http\\Response\\ResponseInterface -->
<g id="node8" class="node"><title>\\ImboClient\\Http\\Response\\ResponseInterface</title>
<a xlink:href="Http.Response.ResponseInterface.html" xlink:title="ResponseInterface" target="_parent">
<polygon fill="none" stroke="black" points="707,-1136 577,-1136 577,-1100 707,-1100 707,-1136"/>
<text text-anchor="middle" x="642" y="-1115.1" font-family="Courier,monospace" font-size="11.00">ResponseInterface</text>
</a>
</g>
<!-- \\ImboClient\\Http\\HeaderContainerInterface -->
<g id="node9" class="node"><title>\\ImboClient\\Http\\HeaderContainerInterface</title>
<a xlink:href="Http.HeaderContainerInterface.html" xlink:title="HeaderContainerInterface" target="_parent">
<polygon fill="none" stroke="black" points="731,-1082 553,-1082 553,-1046 731,-1046 731,-1082"/>
<text text-anchor="middle" x="642" y="-1061.1" font-family="Courier,monospace" font-size="11.00">HeaderContainerInterface</text>
</a>
</g>
<!-- \\ImboClient\\Http\\HeaderContainer -->
<g id="node10" class="node"><title>\\ImboClient\\Http\\HeaderContainer</title>
<a xlink:href="Http.HeaderContainer.html" xlink:title="HeaderContainer" target="_parent">
<polygon fill="none" stroke="black" points="701,-1028 583,-1028 583,-992 701,-992 701,-1028"/>
<text text-anchor="middle" x="642" y="-1007.1" font-family="Courier,monospace" font-size="11.00">HeaderContainer</text>
</a>
</g>
<!-- ImboClient\\Http\\HeaderContainerInterface -->
<g id="node61" class="node"><title>ImboClient\\Http\\HeaderContainerInterface</title>
<ellipse fill="none" stroke="black" cx="240" cy="-1010" rx="225.067" ry="18.3848"/>
<text text-anchor="middle" x="240" y="-1006.4" font-family="Times Roman,serif" font-size="14.00" fill="gray">ImboClient\\Http\\HeaderContainerInterface</text>
</g>
<!-- \\ImboClient\\Http\\HeaderContainer&#45;&gt;ImboClient\\Http\\HeaderContainerInterface -->
<g id="edge46" class="edge"><title>\\ImboClient\\Http\\HeaderContainer&#45;&gt;ImboClient\\Http\\HeaderContainerInterface</title>
<path fill="none" stroke="black" stroke-dasharray="1,5" d="M582.684,-1010C553.187,-1010 515.408,-1010 475.768,-1010"/>
<polygon fill="none" stroke="black" points="475.654,-1006.5 465.654,-1010 475.654,-1013.5 475.654,-1006.5"/>
</g>
<!-- \\ImboClient\\Url\\Images\\Image -->
<g id="node14" class="node"><title>\\ImboClient\\Url\\Images\\Image</title>
<a xlink:href="Url.Images.Image.html" xlink:title="Image" target="_parent">
<polygon fill="none" stroke="black" points="669,-916 615,-916 615,-880 669,-880 669,-916"/>
<text text-anchor="middle" x="642" y="-895.1" font-family="Courier,monospace" font-size="11.00">Image</text>
</a>
</g>
<!-- ImboClient\\Url\\Images\\ImageInterface -->
<g id="node51" class="node"><title>ImboClient\\Url\\Images\\ImageInterface</title>
<ellipse fill="none" stroke="black" cx="240" cy="-898" rx="205.061" ry="18.3848"/>
<text text-anchor="middle" x="240" y="-894.4" font-family="Times Roman,serif" font-size="14.00" fill="gray">ImboClient\\Url\\Images\\ImageInterface</text>
</g>
<!-- \\ImboClient\\Url\\Images\\Image&#45;&gt;ImboClient\\Url\\Images\\ImageInterface -->
<g id="edge34" class="edge"><title>\\ImboClient\\Url\\Images\\Image&#45;&gt;ImboClient\\Url\\Images\\ImageInterface</title>
<path fill="none" stroke="black" stroke-dasharray="1,5" d="M614.999,-898C580.994,-898 519.271,-898 455.585,-898"/>
<polygon fill="none" stroke="black" points="455.351,-894.5 445.351,-898 455.351,-901.5 455.351,-894.5"/>
</g>
<!-- \\ImboClient\\Url\\Images\\ImageInterface -->
<g id="node15" class="node"><title>\\ImboClient\\Url\\Images\\ImageInterface</title>
<a xlink:href="Url.Images.ImageInterface.html" xlink:title="ImageInterface" target="_parent">
<polygon fill="none" stroke="black" points="697,-862 587,-862 587,-826 697,-826 697,-862"/>
<text text-anchor="middle" x="642" y="-841.1" font-family="Courier,monospace" font-size="11.00">ImageInterface</text>
</a>
</g>
<!-- \\ImboClient\\Url\\Images\\QueryInterface -->
<g id="node16" class="node"><title>\\ImboClient\\Url\\Images\\QueryInterface</title>
<a xlink:href="Url.Images.QueryInterface.html" xlink:title="QueryInterface" target="_parent">
<polygon fill="none" stroke="black" points="697,-808 587,-808 587,-772 697,-772 697,-808"/>
<text text-anchor="middle" x="642" y="-787.1" font-family="Courier,monospace" font-size="11.00">QueryInterface</text>
</a>
</g>
<!-- \\ImboClient\\Url\\Images\\Query -->
<g id="node17" class="node"><title>\\ImboClient\\Url\\Images\\Query</title>
<a xlink:href="Url.Images.Query.html" xlink:title="Query" target="_parent">
<polygon fill="none" stroke="black" points="669,-754 615,-754 615,-718 669,-718 669,-754"/>
<text text-anchor="middle" x="642" y="-733.1" font-family="Courier,monospace" font-size="11.00">Query</text>
</a>
</g>
<!-- ImboClient\\Url\\Images\\QueryInterface -->
<g id="node53" class="node"><title>ImboClient\\Url\\Images\\QueryInterface</title>
<ellipse fill="none" stroke="black" cx="240" cy="-736" rx="205.768" ry="18.3848"/>
<text text-anchor="middle" x="240" y="-732.4" font-family="Times Roman,serif" font-size="14.00" fill="gray">ImboClient\\Url\\Images\\QueryInterface</text>
</g>
<!-- \\ImboClient\\Url\\Images\\Query&#45;&gt;ImboClient\\Url\\Images\\QueryInterface -->
<g id="edge36" class="edge"><title>\\ImboClient\\Url\\Images\\Query&#45;&gt;ImboClient\\Url\\Images\\QueryInterface</title>
<path fill="none" stroke="black" stroke-dasharray="1,5" d="M614.999,-736C581.161,-736 519.877,-736 456.524,-736"/>
<polygon fill="none" stroke="black" points="456.342,-732.5 446.342,-736 456.342,-739.5 456.342,-732.5"/>
</g>
<!-- \\ImboClient\\Url\\Status -->
<g id="node18" class="node"><title>\\ImboClient\\Url\\Status</title>
<a xlink:href="Url.Status.html" xlink:title="Status" target="_parent">
<polygon fill="none" stroke="black" points="670,-592 614,-592 614,-556 670,-556 670,-592"/>
<text text-anchor="middle" x="642" y="-571.1" font-family="Courier,monospace" font-size="11.00">Status</text>
</a>
</g>
<!-- ImboClient\\Url\\Url -->
<g id="node33" class="node"><title>ImboClient\\Url\\Url</title>
<ellipse fill="none" stroke="black" cx="240" cy="-520" rx="98.9949" ry="18.3848"/>
<text text-anchor="middle" x="240" y="-516.4" font-family="Times Roman,serif" font-size="14.00" fill="gray">ImboClient\Url\Url</text>
</g>
<!-- \\ImboClient\\Url\\Status&#45;&gt;ImboClient\\Url\\Url -->
<g id="edge10" class="edge"><title>\\ImboClient\\Url\\Status&#45;&gt;ImboClient\\Url\\Url</title>
<path fill="none" stroke="black" d="M613.392,-568.76C581.077,-562.95 526.878,-553.539 480,-547 433.094,-540.457 380.858,-534.432 337.127,-529.741"/>
<polygon fill="none" stroke="black" points="337.383,-526.249 327.069,-528.67 336.642,-533.209 337.383,-526.249"/>
</g>
<!-- ImboClient\\Url\\UrlInterface -->
<g id="node43" class="node"><title>ImboClient\\Url\\UrlInterface</title>
<ellipse fill="none" stroke="black" cx="240" cy="-574" rx="149.2" ry="18.3848"/>
<text text-anchor="middle" x="240" y="-570.4" font-family="Times Roman,serif" font-size="14.00" fill="gray">ImboClient\\Url\\UrlInterface</text>
</g>
<!-- \\ImboClient\\Url\\Status&#45;&gt;ImboClient\\Url\\UrlInterface -->
<g id="edge24" class="edge"><title>\\ImboClient\\Url\\Status&#45;&gt;ImboClient\\Url\\UrlInterface</title>
<path fill="none" stroke="black" stroke-dasharray="1,5" d="M613.411,-574C568.859,-574 479.656,-574 399.608,-574"/>
<polygon fill="none" stroke="black" points="399.392,-570.5 389.392,-574 399.392,-577.5 399.392,-570.5"/>
</g>
<!-- \\ImboClient\\Url\\Metadata -->
<g id="node19" class="node"><title>\\ImboClient\\Url\\Metadata</title>
<a xlink:href="Url.Metadata.html" xlink:title="Metadata" target="_parent">
<polygon fill="none" stroke="black" points="677,-538 607,-538 607,-502 677,-502 677,-538"/>
<text text-anchor="middle" x="642" y="-517.1" font-family="Courier,monospace" font-size="11.00">Metadata</text>
</a>
</g>
<!-- \\ImboClient\\Url\\Metadata&#45;&gt;ImboClient\\Url\\Url -->
<g id="edge12" class="edge"><title>\\ImboClient\\Url\\Metadata&#45;&gt;ImboClient\\Url\\Url</title>
<path fill="none" stroke="black" d="M606.325,-520C549.21,-520 434.952,-520 349.146,-520"/>
<polygon fill="none" stroke="black" points="349.093,-516.5 339.093,-520 349.093,-523.5 349.093,-516.5"/>
</g>
<!-- \\ImboClient\\Url\\Metadata&#45;&gt;ImboClient\\Url\\UrlInterface -->
<g id="edge26" class="edge"><title>\\ImboClient\\Url\\Metadata&#45;&gt;ImboClient\\Url\\UrlInterface</title>
<path fill="none" stroke="black" stroke-dasharray="1,5" d="M606.371,-526.498C573.603,-532.34 523.63,-540.914 480,-547 442.611,-552.215 401.835,-557.102 364.679,-561.246"/>
<polygon fill="none" stroke="black" points="363.855,-557.815 354.301,-562.394 364.626,-564.773 363.855,-557.815"/>
</g>
<!-- \\ImboClient\\Url\\Image -->
<g id="node20" class="node"><title>\\ImboClient\\Url\\Image</title>
<a xlink:href="Url.Image.html" xlink:title="Image" target="_parent">
<polygon fill="none" stroke="black" points="669,-322 615,-322 615,-286 669,-286 669,-322"/>
<text text-anchor="middle" x="642" y="-301.1" font-family="Courier,monospace" font-size="11.00">Image</text>
</a>
</g>
<!-- \\ImboClient\\Url\\Image&#45;&gt;ImboClient\\Url\\Url -->
<g id="edge14" class="edge"><title>\\ImboClient\\Url\\Image&#45;&gt;ImboClient\\Url\\Url</title>
<path fill="none" stroke="black" d="M614.645,-308.481C592.764,-312.647 561.615,-319.902 536,-331 431.333,-376.347 321.563,-456.354 270.048,-496.143"/>
<polygon fill="none" stroke="black" points="267.744,-493.501 261.997,-502.402 272.04,-499.028 267.744,-493.501"/>
</g>
<!-- ImboClient\\Url\\ImageInterface -->
<g id="node46" class="node"><title>ImboClient\\Url\\ImageInterface</title>
<ellipse fill="none" stroke="black" cx="240" cy="-304" rx="164.756" ry="18.3848"/>
<text text-anchor="middle" x="240" y="-300.4" font-family="Times Roman,serif" font-size="14.00" fill="gray">ImboClient\\Url\\ImageInterface</text>
</g>
<!-- \\ImboClient\\Url\\Image&#45;&gt;ImboClient\\Url\\ImageInterface -->
<g id="edge28" class="edge"><title>\\ImboClient\\Url\\Image&#45;&gt;ImboClient\\Url\\ImageInterface</title>
<path fill="none" stroke="black" stroke-dasharray="1,5" d="M614.999,-304C573.891,-304 492.275,-304 415.653,-304"/>
<polygon fill="none" stroke="black" points="415.367,-300.5 405.367,-304 415.367,-307.5 415.367,-300.5"/>
</g>
<!-- \\ImboClient\\Url\\User -->
<g id="node21" class="node"><title>\\ImboClient\\Url\\User</title>
<a xlink:href="Url.User.html" xlink:title="User" target="_parent">
<polygon fill="none" stroke="black" points="669,-484 615,-484 615,-448 669,-448 669,-484"/>
<text text-anchor="middle" x="642" y="-463.1" font-family="Courier,monospace" font-size="11.00">User</text>
</a>
</g>
<!-- \\ImboClient\\Url\\User&#45;&gt;ImboClient\\Url\\Url -->
<g id="edge16" class="edge"><title>\\ImboClient\\Url\\User&#45;&gt;ImboClient\\Url\\Url</title>
<path fill="none" stroke="black" d="M614.999,-469.627C557.647,-477.331 421.452,-495.626 329.97,-507.915"/>
<polygon fill="none" stroke="black" points="329.322,-504.47 319.877,-509.27 330.254,-511.408 329.322,-504.47"/>
</g>
<!-- \\ImboClient\\Url\\User&#45;&gt;ImboClient\\Url\\UrlInterface -->
<g id="edge30" class="edge"><title>\\ImboClient\\Url\\User&#45;&gt;ImboClient\\Url\\UrlInterface</title>
<path fill="none" stroke="black" stroke-dasharray="1,5" d="M614.881,-468.99C592.571,-472.341 560.718,-479.228 536,-493 505.796,-509.828 511.288,-532.285 480,-547 454.799,-558.853 426.519,-566.372 398.455,-571.01"/>
<polygon fill="none" stroke="black" points="397.896,-567.555 388.543,-572.532 398.958,-574.473 397.896,-567.555"/>
</g>
<!-- \\ImboClient\\Url\\ImageInterface -->
<g id="node22" class="node"><title>\\ImboClient\\Url\\ImageInterface</title>
<a xlink:href="Url.ImageInterface.html" xlink:title="ImageInterface" target="_parent">
<polygon fill="none" stroke="black" points="697,-268 587,-268 587,-232 697,-232 697,-268"/>
<text text-anchor="middle" x="642" y="-247.1" font-family="Courier,monospace" font-size="11.00">ImageInterface</text>
</a>
</g>
<!-- Array -->
<g id="node38" class="node"><title>Array</title>
<ellipse fill="none" stroke="black" cx="240" cy="-250" rx="38.8909" ry="18.3848"/>
<text text-anchor="middle" x="240" y="-246.4" font-family="Times Roman,serif" font-size="14.00" fill="gray">Array</text>
</g>
<!-- \\ImboClient\\Url\\ImageInterface&#45;&gt;Array -->
<g id="edge18" class="edge"><title>\\ImboClient\\Url\\ImageInterface&#45;&gt;Array</title>
<path fill="none" stroke="black" d="M586.104,-250C507.187,-250 364.372,-250 289.243,-250"/>
<polygon fill="none" stroke="black" points="289.105,-246.5 279.105,-250 289.105,-253.5 289.105,-246.5"/>
</g>
<!-- \\ImboClient\\Url\\UrlInterface -->
<g id="node23" class="node"><title>\\ImboClient\\Url\\UrlInterface</title>
<a xlink:href="Url.UrlInterface.html" xlink:title="UrlInterface" target="_parent">
<polygon fill="none" stroke="black" points="691,-430 593,-430 593,-394 691,-394 691,-430"/>
<text text-anchor="middle" x="642" y="-409.1" font-family="Courier,monospace" font-size="11.00">UrlInterface</text>
</a>
</g>
<!-- \\ImboClient\\Url\\AccessTokenInterface -->
<g id="node24" class="node"><title>\\ImboClient\\Url\\AccessTokenInterface</title>
<a xlink:href="Url.AccessTokenInterface.html" xlink:title="AccessTokenInterface" target="_parent">
<polygon fill="none" stroke="black" points="718,-376 566,-376 566,-340 718,-340 718,-376"/>
<text text-anchor="middle" x="642" y="-355.1" font-family="Courier,monospace" font-size="11.00">AccessTokenInterface</text>
</a>
</g>
<!-- \\ImboClient\\Url\\AccessToken -->
<g id="node25" class="node"><title>\\ImboClient\\Url\\AccessToken</title>
<a xlink:href="Url.AccessToken.html" xlink:title="AccessToken" target="_parent">
<polygon fill="none" stroke="black" points="687,-214 597,-214 597,-178 687,-178 687,-214"/>
<text text-anchor="middle" x="642" y="-193.1" font-family="Courier,monospace" font-size="11.00">AccessToken</text>
</a>
</g>
<!-- ImboClient\\Url\\AccessTokenInterface -->
<g id="node49" class="node"><title>ImboClient\\Url\\AccessTokenInterface</title>
<ellipse fill="none" stroke="black" cx="240" cy="-196" rx="193.954" ry="18.3848"/>
<text text-anchor="middle" x="240" y="-192.4" font-family="Times Roman,serif" font-size="14.00" fill="gray">ImboClient\\Url\\AccessTokenInterface</text>
</g>
<!-- \\ImboClient\\Url\\AccessToken&#45;&gt;ImboClient\\Url\\AccessTokenInterface -->
<g id="edge32" class="edge"><title>\\ImboClient\\Url\\AccessToken&#45;&gt;ImboClient\\Url\\AccessTokenInterface</title>
<path fill="none" stroke="black" stroke-dasharray="1,5" d="M596.277,-196C558.518,-196 502.067,-196 445.17,-196"/>
<polygon fill="none" stroke="black" points="444.921,-192.5 434.921,-196 444.921,-199.5 444.921,-192.5"/>
</g>
<!-- \\ImboClient\\Url\\Url -->
<g id="node26" class="node"><title>\\ImboClient\\Url\\Url</title>
<a xlink:href="Url.Url.html" xlink:title="Url" target="_parent">
<polygon fill="none" stroke="black" points="669,-700 615,-700 615,-664 669,-664 669,-700"/>
<text text-anchor="middle" x="642" y="-679.1" font-family="Courier,monospace" font-size="11.00">Url</text>
</a>
</g>
<!-- \\ImboClient\\Url\\Url&#45;&gt;ImboClient\\Url\\UrlInterface -->
<g id="edge38" class="edge"><title>\\ImboClient\\Url\\Url&#45;&gt;ImboClient\\Url\\UrlInterface</title>
<path fill="none" stroke="black" stroke-dasharray="1,5" d="M614.954,-675.251C593.514,-669.867 562.806,-662.081 536,-655 458.05,-634.409 368.827,-609.858 308.896,-593.224"/>
<polygon fill="none" stroke="black" points="309.738,-589.826 299.166,-590.522 307.865,-596.57 309.738,-589.826"/>
</g>
<!-- \\ImboClient\\Url\\Images -->
<g id="node27" class="node"><title>\\ImboClient\\Url\\Images</title>
<a xlink:href="Url.Images.html" xlink:title="Images" target="_parent">
<polygon fill="none" stroke="black" points="670,-646 614,-646 614,-610 670,-610 670,-646"/>
<text text-anchor="middle" x="642" y="-625.1" font-family="Courier,monospace" font-size="11.00">Images</text>
</a>
</g>
<!-- \\ImboClient\\Url\\Images&#45;&gt;ImboClient\\Url\\Url -->
<g id="edge20" class="edge"><title>\\ImboClient\\Url\\Images&#45;&gt;ImboClient\\Url\\Url</title>
<path fill="none" stroke="black" d="M613.064,-624.733C590.866,-621.284 560.055,-614.402 536,-601 505.796,-584.172 511.288,-561.715 480,-547 439.341,-527.877 390.669,-520.033 347.816,-517.375"/>
<polygon fill="none" stroke="black" points="347.801,-513.87 337.629,-516.833 347.429,-520.86 347.801,-513.87"/>
</g>
<!-- \\ImboClient\\Url\\Images&#45;&gt;ImboClient\\Url\\UrlInterface -->
<g id="edge40" class="edge"><title>\\ImboClient\\Url\\Images&#45;&gt;ImboClient\\Url\\UrlInterface</title>
<path fill="none" stroke="black" stroke-dasharray="1,5" d="M613.411,-624.16C559.295,-616.89 439.304,-600.772 349.86,-588.757"/>
<polygon fill="none" stroke="black" points="350.312,-585.287 339.935,-587.424 349.38,-592.224 350.312,-585.287"/>
</g>
<!-- \\ImboClient\\Version -->
<g id="node29" class="node"><title>\\ImboClient\\Version</title>
<a xlink:href="Version.html" xlink:title="Version" target="_parent">
<polygon fill="none" stroke="black" points="674,-160 610,-160 610,-124 674,-124 674,-160"/>
<text text-anchor="middle" x="642" y="-139.1" font-family="Courier,monospace" font-size="11.00">Version</text>
</a>
</g>
<!-- \\ImboClient\\Client -->
<g id="node30" class="node"><title>\\ImboClient\\Client</title>
<a xlink:href="Client.html" xlink:title="Client" target="_parent">
<polygon fill="none" stroke="black" points="670,-106 614,-106 614,-70 670,-70 670,-106"/>
<text text-anchor="middle" x="642" y="-85.1" font-family="Courier,monospace" font-size="11.00">Client</text>
</a>
</g>
<!-- ImboClient\\ClientInterface -->
<g id="node41" class="node"><title>ImboClient\\ClientInterface</title>
<ellipse fill="none" stroke="black" cx="240" cy="-88" rx="142.836" ry="18.3848"/>
<text text-anchor="middle" x="240" y="-84.4" font-family="Times Roman,serif" font-size="14.00" fill="gray">ImboClient\\ClientInterface</text>
</g>
<!-- \\ImboClient\\Client&#45;&gt;ImboClient\\ClientInterface -->
<g id="edge22" class="edge"><title>\\ImboClient\\Client&#45;&gt;ImboClient\\ClientInterface</title>
<path fill="none" stroke="black" stroke-dasharray="1,5" d="M613.411,-88C567.74,-88 475.15,-88 393.6,-88"/>
<polygon fill="none" stroke="black" points="393.201,-84.5001 383.201,-88 393.201,-91.5001 393.201,-84.5001"/>
</g>
<!-- \\ImboClient\\ClientInterface -->
<g id="node31" class="node"><title>\\ImboClient\\ClientInterface</title>
<a xlink:href="ClientInterface.html" xlink:title="ClientInterface" target="_parent">
<polygon fill="none" stroke="black" points="701,-52 583,-52 583,-16 701,-16 701,-52"/>
<text text-anchor="middle" x="642" y="-31.1" font-family="Courier,monospace" font-size="11.00">ClientInterface</text>
</a>
</g>
</g>
</svg>
