<?xml version="1.0" encoding="UTF-8" standalone="no"?>
<!DOCTYPE svg PUBLIC "-//W3C//DTD SVG 1.1//EN"
 "http://www.w3.org/Graphics/SVG/1.1/DTD/svg11.dtd">
<!-- Generated by graphviz version 2.26.3 (20100126.1600)
 -->
<!-- Title: G Pages: 1 -->
<svg width="614pt" height="1322pt"
 viewBox="0.00 0.00 614.00 1322.00" xmlns="http://www.w3.org/2000/svg" xmlns:xlink="http://www.w3.org/1999/xlink">
<g id="graph1" class="graph" transform="scale(1 1) rotate(0) translate(4 1318)">
<title>G</title>
<polygon fill="white" stroke="white" points="-4,5 -4,-1318 611,-1318 611,5 -4,5"/>
<g id="graph2" class="cluster"><title>cluster_ImboClient</title>
<polyline fill="none" stroke="gray" points="398,-8 586,-8 "/>
<path fill="none" stroke="gray" d="M586,-8C592,-8 598,-14 598,-20"/>
<polyline fill="none" stroke="gray" points="598,-20 598,-1294 "/>
<path fill="none" stroke="gray" d="M598,-1294C598,-1300 592,-1306 586,-1306"/>
<polyline fill="none" stroke="gray" points="586,-1306 398,-1306 "/>
<path fill="none" stroke="gray" d="M398,-1306C392,-1306 386,-1300 386,-1294"/>
<polyline fill="none" stroke="gray" points="386,-1294 386,-20 "/>
<path fill="none" stroke="gray" d="M386,-20C386,-14 392,-8 398,-8"/>
<text text-anchor="middle" x="492" y="-1292.1" font-family="Times Roman,serif" font-size="11.00" fill="gray">ImboClient</text>
</g>
<g id="graph3" class="cluster"><title>cluster_ImboClient\Driver</title>
<polyline fill="none" stroke="gray" points="437,-1094 547,-1094 "/>
<path fill="none" stroke="gray" d="M547,-1094C553,-1094 559,-1100 559,-1106"/>
<polyline fill="none" stroke="gray" points="559,-1106 559,-1264 "/>
<path fill="none" stroke="gray" d="M559,-1264C559,-1270 553,-1276 547,-1276"/>
<polyline fill="none" stroke="gray" points="547,-1276 437,-1276 "/>
<path fill="none" stroke="gray" d="M437,-1276C431,-1276 425,-1270 425,-1264"/>
<polyline fill="none" stroke="gray" points="425,-1264 425,-1106 "/>
<path fill="none" stroke="gray" d="M425,-1106C425,-1100 431,-1094 437,-1094"/>
<text text-anchor="middle" x="492" y="-1262.1" font-family="Times Roman,serif" font-size="11.00" fill="gray">Driver</text>
</g>
<g id="graph4" class="cluster"><title>cluster_ImboClient\Http</title>
<polyline fill="none" stroke="gray" points="406,-712 578,-712 "/>
<path fill="none" stroke="gray" d="M578,-712C584,-712 590,-718 590,-724"/>
<polyline fill="none" stroke="gray" points="590,-724 590,-1074 "/>
<path fill="none" stroke="gray" d="M590,-1074C590,-1080 584,-1086 578,-1086"/>
<polyline fill="none" stroke="gray" points="578,-1086 406,-1086 "/>
<path fill="none" stroke="gray" d="M406,-1086C400,-1086 394,-1080 394,-1074"/>
<polyline fill="none" stroke="gray" points="394,-1074 394,-724 "/>
<path fill="none" stroke="gray" d="M394,-724C394,-718 400,-712 406,-712"/>
<text text-anchor="middle" x="492" y="-1072.1" font-family="Times Roman,serif" font-size="11.00" fill="gray">Http</text>
</g>
<g id="graph5" class="cluster"><title>cluster_ImboClient\Http\Response</title>
<polyline fill="none" stroke="gray" points="430,-874 554,-874 "/>
<path fill="none" stroke="gray" d="M554,-874C560,-874 566,-880 566,-886"/>
<polyline fill="none" stroke="gray" points="566,-886 566,-1044 "/>
<path fill="none" stroke="gray" d="M566,-1044C566,-1050 560,-1056 554,-1056"/>
<polyline fill="none" stroke="gray" points="554,-1056 430,-1056 "/>
<path fill="none" stroke="gray" d="M430,-1056C424,-1056 418,-1050 418,-1044"/>
<polyline fill="none" stroke="gray" points="418,-1044 418,-886 "/>
<path fill="none" stroke="gray" d="M418,-886C418,-880 424,-874 430,-874"/>
<text text-anchor="middle" x="492" y="-1042.1" font-family="Times Roman,serif" font-size="11.00" fill="gray">Response</text>
</g>
<g id="graph7" class="cluster"><title>cluster_ImboClient\ImageUrl</title>
<polyline fill="none" stroke="gray" points="430,-522 554,-522 "/>
<path fill="none" stroke="gray" d="M554,-522C560,-522 566,-528 566,-534"/>
<polyline fill="none" stroke="gray" points="566,-534 566,-692 "/>
<path fill="none" stroke="gray" d="M566,-692C566,-698 560,-704 554,-704"/>
<polyline fill="none" stroke="gray" points="554,-704 430,-704 "/>
<path fill="none" stroke="gray" d="M430,-704C424,-704 418,-698 418,-692"/>
<polyline fill="none" stroke="gray" points="418,-692 418,-534 "/>
<path fill="none" stroke="gray" d="M418,-534C418,-528 424,-522 430,-522"/>
<text text-anchor="middle" x="492" y="-690.1" font-family="Times Roman,serif" font-size="11.00" fill="gray">ImageUrl</text>
</g>
<g id="graph8" class="cluster"><title>cluster_ImboClient\ImagesQuery</title>
<polyline fill="none" stroke="gray" points="440,-170 544,-170 "/>
<path fill="none" stroke="gray" d="M544,-170C550,-170 556,-176 556,-182"/>
<polyline fill="none" stroke="gray" points="556,-182 556,-502 "/>
<path fill="none" stroke="gray" d="M556,-502C556,-508 550,-514 544,-514"/>
<polyline fill="none" stroke="gray" points="544,-514 440,-514 "/>
<path fill="none" stroke="gray" d="M440,-514C434,-514 428,-508 428,-502"/>
<polyline fill="none" stroke="gray" points="428,-502 428,-182 "/>
<path fill="none" stroke="gray" d="M428,-182C428,-176 434,-170 440,-170"/>
<text text-anchor="middle" x="492" y="-500.1" font-family="Times Roman,serif" font-size="11.00" fill="gray">ImagesQuery</text>
</g>
<!-- \\ImboClient\\Driver\\DriverInterface -->
<g id="node3" class="node"><title>\\ImboClient\\Driver\\DriverInterface</title>
<a xlink:href="db_library_ImboClient_Driver_DriverInterface.html" xlink:title="DriverInterface" target="_parent">
<polygon fill="none" stroke="black" points="551,-1246 433,-1246 433,-1210 551,-1210 551,-1246"/>
<text text-anchor="middle" x="492" y="-1225.1" font-family="Courier,monospace" font-size="11.00">DriverInterface</text>
</a>
</g>
<!-- \\ImboClient\\Driver\\Curl -->
<g id="node4" class="node"><title>\\ImboClient\\Driver\\Curl</title>
<a xlink:href="db_library_ImboClient_Driver_Curl.html" xlink:title="Curl" target="_parent">
<polygon fill="none" stroke="black" points="519,-1192 465,-1192 465,-1156 519,-1156 519,-1192"/>
<text text-anchor="middle" x="492" y="-1171.1" font-family="Courier,monospace" font-size="11.00">Curl</text>
</a>
</g>
<!-- \\ImboClient\\Driver\\CurlTest -->
<g id="node5" class="node"><title>\\ImboClient\\Driver\\CurlTest</title>
<a xlink:href="db_tests_ImboClient_Driver_CurlTest.html" xlink:title="CurlTest" target="_parent">
<polygon fill="none" stroke="black" points="527,-1138 457,-1138 457,-1102 527,-1102 527,-1138"/>
<text text-anchor="middle" x="492" y="-1117.1" font-family="Courier,monospace" font-size="11.00">CurlTest</text>
</a>
</g>
<!-- \\PHPUnit_Framework_TestCase -->
<g id="node31" class="node"><title>\\PHPUnit_Framework_TestCase</title>
<ellipse fill="none" stroke="black" cx="165" cy="-548" rx="164.756" ry="18.3848"/>
<text text-anchor="middle" x="165" y="-544.4" font-family="Times Roman,serif" font-size="14.00" fill="gray">\PHPUnit_Framework_TestCase</text>
</g>
<!-- \\ImboClient\\Driver\\CurlTest&#45;&gt;\\PHPUnit_Framework_TestCase -->
<g id="edge16" class="edge"><title>\\ImboClient\\Driver\\CurlTest&#45;&gt;\\PHPUnit_Framework_TestCase</title>
<path fill="none" stroke="black" d="M456.376,-1106.81C433.717,-1096.88 405.142,-1081.32 386,-1060 249.681,-908.165 188.027,-659.303 170.494,-576.09"/>
<polygon fill="none" stroke="black" points="173.887,-575.212 168.44,-566.125 167.031,-576.625 173.887,-575.212"/>
</g>
<!-- \\ImboClient\\Http\\Response\\Response -->
<g id="node8" class="node"><title>\\ImboClient\\Http\\Response\\Response</title>
<a xlink:href="db_library_ImboClient_Http_Response_Response.html" xlink:title="Response" target="_parent">
<polygon fill="none" stroke="black" points="527,-1026 457,-1026 457,-990 527,-990 527,-1026"/>
<text text-anchor="middle" x="492" y="-1005.1" font-family="Courier,monospace" font-size="11.00">Response</text>
</a>
</g>
<!-- \\ImboClient\\Http\\Response\\ResponseInterface -->
<g id="node9" class="node"><title>\\ImboClient\\Http\\Response\\ResponseInterface</title>
<a xlink:href="db_library_ImboClient_Http_Response_ResponseInterface.html" xlink:title="ResponseInterface" target="_parent">
<polygon fill="none" stroke="black" points="557,-972 427,-972 427,-936 557,-936 557,-972"/>
<text text-anchor="middle" x="492" y="-951.1" font-family="Courier,monospace" font-size="11.00">ResponseInterface</text>
</a>
</g>
<!-- \\ImboClient\\Http\\Response\\ResponseTest -->
<g id="node10" class="node"><title>\\ImboClient\\Http\\Response\\ResponseTest</title>
<a xlink:href="db_tests_ImboClient_Http_Response_ResponseTest.html" xlink:title="ResponseTest" target="_parent">
<polygon fill="none" stroke="black" points="541,-918 443,-918 443,-882 541,-882 541,-918"/>
<text text-anchor="middle" x="492" y="-897.1" font-family="Courier,monospace" font-size="11.00">ResponseTest</text>
</a>
</g>
<!-- \\ImboClient\\Http\\Response\\ResponseTest&#45;&gt;\\PHPUnit_Framework_TestCase -->
<g id="edge20" class="edge"><title>\\ImboClient\\Http\\Response\\ResponseTest&#45;&gt;\\PHPUnit_Framework_TestCase</title>
<path fill="none" stroke="black" d="M442.759,-897.694C423.737,-894.866 402.603,-889.181 386,-878 270.637,-800.311 199.866,-640.175 175.037,-575.748"/>
<polygon fill="none" stroke="black" points="178.259,-574.372 171.447,-566.257 171.712,-576.849 178.259,-574.372"/>
</g>
<!-- \\ImboClient\\Http\\HeaderContainerInterface -->
<g id="node11" class="node"><title>\\ImboClient\\Http\\HeaderContainerInterface</title>
<a xlink:href="db_library_ImboClient_Http_HeaderContainerInterface.html" xlink:title="HeaderContainerInterface" target="_parent">
<polygon fill="none" stroke="black" points="581,-864 403,-864 403,-828 581,-828 581,-864"/>
<text text-anchor="middle" x="492" y="-843.1" font-family="Courier,monospace" font-size="11.00">HeaderContainerInterface</text>
</a>
</g>
<!-- \\ImboClient\\Http\\HeaderContainer -->
<g id="node12" class="node"><title>\\ImboClient\\Http\\HeaderContainer</title>
<a xlink:href="db_library_ImboClient_Http_HeaderContainer.html" xlink:title="HeaderContainer" target="_parent">
<polygon fill="none" stroke="black" points="551,-810 433,-810 433,-774 551,-774 551,-810"/>
<text text-anchor="middle" x="492" y="-789.1" font-family="Courier,monospace" font-size="11.00">HeaderContainer</text>
</a>
</g>
<!-- \\ImboClient\\Http\\HeaderContainerTest -->
<g id="node13" class="node"><title>\\ImboClient\\Http\\HeaderContainerTest</title>
<a xlink:href="db_tests_ImboClient_Http_HeaderContainerTest.html" xlink:title="HeaderContainerTest" target="_parent">
<polygon fill="none" stroke="black" points="564,-756 420,-756 420,-720 564,-720 564,-756"/>
<text text-anchor="middle" x="492" y="-735.1" font-family="Courier,monospace" font-size="11.00">HeaderContainerTest</text>
</a>
</g>
<!-- \\ImboClient\\Http\\HeaderContainerTest&#45;&gt;\\PHPUnit_Framework_TestCase -->
<g id="edge18" class="edge"><title>\\ImboClient\\Http\\HeaderContainerTest&#45;&gt;\\PHPUnit_Framework_TestCase</title>
<path fill="none" stroke="black" d="M419.462,-721.154C408.013,-717.454 396.499,-713.087 386,-708 309.83,-671.091 232.32,-607.753 192.452,-572.864"/>
<polygon fill="none" stroke="black" points="194.575,-570.069 184.761,-566.077 189.943,-575.318 194.575,-570.069"/>
</g>
<!-- \\ImboClient\\ImageUrl\\ImageUrl -->
<g id="node16" class="node"><title>\\ImboClient\\ImageUrl\\ImageUrl</title>
<a xlink:href="db_library_ImboClient_ImageUrl_ImageUrl.html" xlink:title="ImageUrl" target="_parent">
<polygon fill="none" stroke="black" points="527,-674 457,-674 457,-638 527,-638 527,-674"/>
<text text-anchor="middle" x="492" y="-653.1" font-family="Courier,monospace" font-size="11.00">ImageUrl</text>
</a>
</g>
<!-- \\ImboClient\\ImageUrl\\ImageUrlInterface -->
<g id="node17" class="node"><title>\\ImboClient\\ImageUrl\\ImageUrlInterface</title>
<a xlink:href="db_library_ImboClient_ImageUrl_ImageUrlInterface.html" xlink:title="ImageUrlInterface" target="_parent">
<polygon fill="none" stroke="black" points="557,-620 427,-620 427,-584 557,-584 557,-620"/>
<text text-anchor="middle" x="492" y="-599.1" font-family="Courier,monospace" font-size="11.00">ImageUrlInterface</text>
</a>
</g>
<!-- \\ImboClient\\ImageUrl\\ImageUrlTest -->
<g id="node18" class="node"><title>\\ImboClient\\ImageUrl\\ImageUrlTest</title>
<a xlink:href="db_tests_ImboClient_ImageUrl_ImageUrlTest.html" xlink:title="ImageUrlTest" target="_parent">
<polygon fill="none" stroke="black" points="541,-566 443,-566 443,-530 541,-530 541,-566"/>
<text text-anchor="middle" x="492" y="-545.1" font-family="Courier,monospace" font-size="11.00">ImageUrlTest</text>
</a>
</g>
<!-- \\ImboClient\\ImageUrl\\ImageUrlTest&#45;&gt;\\PHPUnit_Framework_TestCase -->
<g id="edge14" class="edge"><title>\\ImboClient\\ImageUrl\\ImageUrlTest&#45;&gt;\\PHPUnit_Framework_TestCase</title>
<path fill="none" stroke="black" d="M442.691,-548C414.766,-548 377.964,-548 340.323,-548"/>
<polygon fill="none" stroke="black" points="340.217,-544.5 330.217,-548 340.217,-551.5 340.217,-544.5"/>
</g>
<!-- \\ImboClient\\ImagesQuery\\Image -->
<g id="node20" class="node"><title>\\ImboClient\\ImagesQuery\\Image</title>
<a xlink:href="db_library_ImboClient_ImagesQuery_Image.html" xlink:title="Image" target="_parent">
<polygon fill="none" stroke="black" points="519,-484 465,-484 465,-448 519,-448 519,-484"/>
<text text-anchor="middle" x="492" y="-463.1" font-family="Courier,monospace" font-size="11.00">Image</text>
</a>
</g>
<!-- \\ImboClient\\ImagesQuery\\ImageInterface -->
<g id="node21" class="node"><title>\\ImboClient\\ImagesQuery\\ImageInterface</title>
<a xlink:href="db_library_ImboClient_ImagesQuery_ImageInterface.html" xlink:title="ImageInterface" target="_parent">
<polygon fill="none" stroke="black" points="547,-430 437,-430 437,-394 547,-394 547,-430"/>
<text text-anchor="middle" x="492" y="-409.1" font-family="Courier,monospace" font-size="11.00">ImageInterface</text>
</a>
</g>
<!-- \\ImboClient\\ImagesQuery\\QueryInterface -->
<g id="node22" class="node"><title>\\ImboClient\\ImagesQuery\\QueryInterface</title>
<a xlink:href="db_library_ImboClient_ImagesQuery_QueryInterface.html" xlink:title="QueryInterface" target="_parent">
<polygon fill="none" stroke="black" points="547,-376 437,-376 437,-340 547,-340 547,-376"/>
<text text-anchor="middle" x="492" y="-355.1" font-family="Courier,monospace" font-size="11.00">QueryInterface</text>
</a>
</g>
<!-- \\ImboClient\\ImagesQuery\\Query -->
<g id="node23" class="node"><title>\\ImboClient\\ImagesQuery\\Query</title>
<a xlink:href="db_library_ImboClient_ImagesQuery_Query.html" xlink:title="Query" target="_parent">
<polygon fill="none" stroke="black" points="519,-322 465,-322 465,-286 519,-286 519,-322"/>
<text text-anchor="middle" x="492" y="-301.1" font-family="Courier,monospace" font-size="11.00">Query</text>
</a>
</g>
<!-- \\ImboClient\\ImagesQuery\\ImageTest -->
<g id="node24" class="node"><title>\\ImboClient\\ImagesQuery\\ImageTest</title>
<a xlink:href="db_tests_ImboClient_ImagesQuery_ImageTest.html" xlink:title="ImageTest" target="_parent">
<polygon fill="none" stroke="black" points="530,-268 454,-268 454,-232 530,-232 530,-268"/>
<text text-anchor="middle" x="492" y="-247.1" font-family="Courier,monospace" font-size="11.00">ImageTest</text>
</a>
</g>
<!-- \\ImboClient\\ImagesQuery\\ImageTest&#45;&gt;\\PHPUnit_Framework_TestCase -->
<g id="edge10" class="edge"><title>\\ImboClient\\ImagesQuery\\ImageTest&#45;&gt;\\PHPUnit_Framework_TestCase</title>
<path fill="none" stroke="black" d="M453.362,-253.858C432.164,-257.385 406.17,-264.127 386,-277 285.618,-341.065 209.318,-466.057 179.129,-520.996"/>
<polygon fill="none" stroke="black" points="176.044,-519.343 174.357,-529.802 182.199,-522.678 176.044,-519.343"/>
</g>
<!-- \\ImboClient\\ImagesQuery\\QueryTest -->
<g id="node25" class="node"><title>\\ImboClient\\ImagesQuery\\QueryTest</title>
<a xlink:href="db_tests_ImboClient_ImagesQuery_QueryTest.html" xlink:title="QueryTest" target="_parent">
<polygon fill="none" stroke="black" points="530,-214 454,-214 454,-178 530,-178 530,-214"/>
<text text-anchor="middle" x="492" y="-193.1" font-family="Courier,monospace" font-size="11.00">QueryTest</text>
</a>
</g>
<!-- \\ImboClient\\ImagesQuery\\QueryTest&#45;&gt;\\PHPUnit_Framework_TestCase -->
<g id="edge12" class="edge"><title>\\ImboClient\\ImagesQuery\\QueryTest&#45;&gt;\\PHPUnit_Framework_TestCase</title>
<path fill="none" stroke="black" d="M453.422,-199.111C431.989,-202.401 405.747,-209.154 386,-223 273.575,-301.83 201.34,-457.548 175.58,-520.566"/>
<polygon fill="none" stroke="black" points="172.327,-519.274 171.845,-529.858 178.822,-521.884 172.327,-519.274"/>
</g>
<!-- \\ImboClient\\Client -->
<g id="node26" class="node"><title>\\ImboClient\\Client</title>
<a xlink:href="db_library_ImboClient_Client.html" xlink:title="Client" target="_parent">
<polygon fill="none" stroke="black" points="520,-160 464,-160 464,-124 520,-124 520,-160"/>
<text text-anchor="middle" x="492" y="-139.1" font-family="Courier,monospace" font-size="11.00">Client</text>
</a>
</g>
<!-- \\ImboClient\\ClientInterface -->
<g id="node27" class="node"><title>\\ImboClient\\ClientInterface</title>
<a xlink:href="db_library_ImboClient_ClientInterface.html" xlink:title="ClientInterface" target="_parent">
<polygon fill="none" stroke="black" points="551,-106 433,-106 433,-70 551,-70 551,-106"/>
<text text-anchor="middle" x="492" y="-85.1" font-family="Courier,monospace" font-size="11.00">ClientInterface</text>
</a>
</g>
<!-- \\ImboClient\\ClientTest -->
<g id="node28" class="node"><title>\\ImboClient\\ClientTest</title>
<a xlink:href="db_tests_ImboClient_ClientTest.html" xlink:title="ClientTest" target="_parent">
<polygon fill="none" stroke="black" points="534,-52 450,-52 450,-16 534,-16 534,-52"/>
<text text-anchor="middle" x="492" y="-31.1" font-family="Courier,monospace" font-size="11.00">ClientTest</text>
</a>
</g>
<!-- \\ImboClient\\ClientTest&#45;&gt;\\PHPUnit_Framework_TestCase -->
<g id="edge22" class="edge"><title>\\ImboClient\\ClientTest&#45;&gt;\\PHPUnit_Framework_TestCase</title>
<path fill="none" stroke="black" d="M449.877,-36.2227C428.67,-39.2968 403.763,-46.126 386,-61 235.966,-186.63 183.18,-435.491 169.209,-519.521"/>
<polygon fill="none" stroke="black" points="165.721,-519.168 167.591,-529.597 172.632,-520.278 165.721,-519.168"/>
</g>
</g>
</svg>
