<?xml version="1.0" encoding="UTF-8" standalone="no"?>
<!DOCTYPE svg PUBLIC "-//W3C//DTD SVG 1.1//EN"
 "http://www.w3.org/Graphics/SVG/1.1/DTD/svg11.dtd">
<!-- Generated by graphviz version 2.26.3 (20100126.1600)
 -->
<!-- Title: G Pages: 1 -->
<svg width="930pt" height="1172pt"
 viewBox="0.00 0.00 930.00 1172.00" xmlns="http://www.w3.org/2000/svg" xmlns:xlink="http://www.w3.org/1999/xlink">
<g id="graph1" class="graph" transform="scale(1 1) rotate(0) translate(4 1168)">
<title>G</title>
<polygon fill="white" stroke="white" points="-4,5 -4,-1168 927,-1168 927,5 -4,5"/>
<g id="graph2" class="cluster"><title>cluster_ImboClient</title>
<polyline fill="none" stroke="gray" points="90,-98 902,-98 "/>
<path fill="none" stroke="gray" d="M902,-98C908,-98 914,-104 914,-110"/>
<polyline fill="none" stroke="gray" points="914,-110 914,-1144 "/>
<path fill="none" stroke="gray" d="M914,-1144C914,-1150 908,-1156 902,-1156"/>
<polyline fill="none" stroke="gray" points="902,-1156 90,-1156 "/>
<path fill="none" stroke="gray" d="M90,-1156C84,-1156 78,-1150 78,-1144"/>
<polyline fill="none" stroke="gray" points="78,-1144 78,-110 "/>
<path fill="none" stroke="gray" d="M78,-110C78,-104 84,-98 90,-98"/>
<text text-anchor="middle" x="496" y="-1142.1" font-family="Times Roman,serif" font-size="11.00" fill="gray">ImboClient</text>
</g>
<g id="graph3" class="cluster"><title>cluster_ImboClient\Driver</title>
<polyline fill="none" stroke="gray" points="447,-1052 831,-1052 "/>
<path fill="none" stroke="gray" d="M831,-1052C837,-1052 843,-1058 843,-1064"/>
<polyline fill="none" stroke="gray" points="843,-1064 843,-1114 "/>
<path fill="none" stroke="gray" d="M843,-1114C843,-1120 837,-1126 831,-1126"/>
<polyline fill="none" stroke="gray" points="831,-1126 447,-1126 "/>
<path fill="none" stroke="gray" d="M447,-1126C441,-1126 435,-1120 435,-1114"/>
<polyline fill="none" stroke="gray" points="435,-1114 435,-1064 "/>
<path fill="none" stroke="gray" d="M435,-1064C435,-1058 441,-1052 447,-1052"/>
<text text-anchor="middle" x="639" y="-1112.1" font-family="Times Roman,serif" font-size="11.00" fill="gray">Driver</text>
</g>
<g id="graph4" class="cluster"><title>cluster_ImboClient\Exception</title>
<polyline fill="none" stroke="gray" points="722,-106 894,-106 "/>
<path fill="none" stroke="gray" d="M894,-106C900,-106 906,-112 906,-118"/>
<polyline fill="none" stroke="gray" points="906,-118 906,-276 "/>
<path fill="none" stroke="gray" d="M906,-276C906,-282 900,-288 894,-288"/>
<polyline fill="none" stroke="gray" points="894,-288 722,-288 "/>
<path fill="none" stroke="gray" d="M722,-288C716,-288 710,-282 710,-276"/>
<polyline fill="none" stroke="gray" points="710,-276 710,-118 "/>
<path fill="none" stroke="gray" d="M710,-118C710,-112 716,-106 722,-106"/>
<text text-anchor="middle" x="808" y="-274.1" font-family="Times Roman,serif" font-size="11.00" fill="gray">Exception</text>
</g>
<g id="graph5" class="cluster"><title>cluster_ImboClient\Http</title>
<polyline fill="none" stroke="gray" points="416,-886 863,-886 "/>
<path fill="none" stroke="gray" d="M863,-886C869,-886 875,-892 875,-898"/>
<polyline fill="none" stroke="gray" points="875,-898 875,-1032 "/>
<path fill="none" stroke="gray" d="M875,-1032C875,-1038 869,-1044 863,-1044"/>
<polyline fill="none" stroke="gray" points="863,-1044 416,-1044 "/>
<path fill="none" stroke="gray" d="M416,-1044C410,-1044 404,-1038 404,-1032"/>
<polyline fill="none" stroke="gray" points="404,-1032 404,-898 "/>
<path fill="none" stroke="gray" d="M404,-898C404,-892 410,-886 416,-886"/>
<text text-anchor="middle" x="639.5" y="-1030.1" font-family="Times Roman,serif" font-size="11.00" fill="gray">Http</text>
</g>
<g id="graph6" class="cluster"><title>cluster_ImboClient\Http\Response</title>
<polyline fill="none" stroke="gray" points="440,-940 840,-940 "/>
<path fill="none" stroke="gray" d="M840,-940C846,-940 852,-946 852,-952"/>
<polyline fill="none" stroke="gray" points="852,-952 852,-1002 "/>
<path fill="none" stroke="gray" d="M852,-1002C852,-1008 846,-1014 840,-1014"/>
<polyline fill="none" stroke="gray" points="840,-1014 440,-1014 "/>
<path fill="none" stroke="gray" d="M440,-1014C434,-1014 428,-1008 428,-1002"/>
<polyline fill="none" stroke="gray" points="428,-1002 428,-952 "/>
<path fill="none" stroke="gray" d="M428,-952C428,-946 434,-940 440,-940"/>
<text text-anchor="middle" x="640" y="-1000.1" font-family="Times Roman,serif" font-size="11.00" fill="gray">Response</text>
</g>
<g id="graph8" class="cluster"><title>cluster_ImboClient\Url</title>
<polyline fill="none" stroke="gray" points="98,-396 850,-396 "/>
<path fill="none" stroke="gray" d="M850,-396C856,-396 862,-402 862,-408"/>
<polyline fill="none" stroke="gray" points="862,-408 862,-866 "/>
<path fill="none" stroke="gray" d="M862,-866C862,-872 856,-878 850,-878"/>
<polyline fill="none" stroke="gray" points="850,-878 98,-878 "/>
<path fill="none" stroke="gray" d="M98,-878C92,-878 86,-872 86,-866"/>
<polyline fill="none" stroke="gray" points="86,-866 86,-408 "/>
<path fill="none" stroke="gray" d="M86,-408C86,-402 92,-396 98,-396"/>
<text text-anchor="middle" x="474" y="-864.1" font-family="Times Roman,serif" font-size="11.00" fill="gray">Url</text>
</g>
<g id="graph9" class="cluster"><title>cluster_ImboClient\Url\Images</title>
<polyline fill="none" stroke="gray" points="450,-720 831,-720 "/>
<path fill="none" stroke="gray" d="M831,-720C837,-720 843,-726 843,-732"/>
<polyline fill="none" stroke="gray" points="843,-732 843,-836 "/>
<path fill="none" stroke="gray" d="M843,-836C843,-842 837,-848 831,-848"/>
<polyline fill="none" stroke="gray" points="831,-848 450,-848 "/>
<path fill="none" stroke="gray" d="M450,-848C444,-848 438,-842 438,-836"/>
<polyline fill="none" stroke="gray" points="438,-836 438,-732 "/>
<path fill="none" stroke="gray" d="M438,-732C438,-726 444,-720 450,-720"/>
<text text-anchor="middle" x="640.5" y="-834.1" font-family="Times Roman,serif" font-size="11.00" fill="gray">Images</text>
</g>
<!-- \\ImboClient\\Driver\\DriverInterface -->
<g id="node3" class="node"><title>\\ImboClient\\Driver\\DriverInterface</title>
<a xlink:href="Driver.DriverInterface.html" xlink:title="DriverInterface" target="_parent">
<polygon fill="none" stroke="black" points="561,-1096 443,-1096 443,-1060 561,-1060 561,-1096"/>
<text text-anchor="middle" x="502" y="-1075.1" font-family="Courier,monospace" font-size="11.00">DriverInterface</text>
</a>
</g>
<!-- \\ImboClient\\Driver\\cURL -->
<g id="node4" class="node"><title>\\ImboClient\\Driver\\cURL</title>
<a xlink:href="Driver.cURL.html" xlink:title="cURL" target="_parent">
<polygon fill="none" stroke="black" points="835,-1096 781,-1096 781,-1060 835,-1060 835,-1096"/>
<text text-anchor="middle" x="808" y="-1075.1" font-family="Courier,monospace" font-size="11.00">cURL</text>
</a>
</g>
<!-- \\ImboClient\\Driver\\cURL&#45;&gt;\\ImboClient\\Driver\\DriverInterface -->
<g id="edge55" class="edge"><title>\\ImboClient\\Driver\\cURL&#45;&gt;\\ImboClient\\Driver\\DriverInterface</title>
<path fill="none" stroke="black" stroke-dasharray="1,5" d="M780.845,-1078C734.263,-1078 637.749,-1078 571.44,-1078"/>
<polygon fill="none" stroke="black" points="571.069,-1074.5 561.069,-1078 571.069,-1081.5 571.069,-1074.5"/>
</g>
<!-- \\ImboClient\\Exception\\InvalidArgumentException -->
<g id="node6" class="node"><title>\\ImboClient\\Exception\\InvalidArgumentException</title>
<a xlink:href="Exception.InvalidArgumentException.html" xlink:title="InvalidArgumentException" target="_parent">
<polygon fill="none" stroke="black" points="897,-258 719,-258 719,-222 897,-222 897,-258"/>
<text text-anchor="middle" x="808" y="-237.1" font-family="Courier,monospace" font-size="11.00">InvalidArgumentException</text>
</a>
</g>
<!-- \\ImboClient\\Exception -->
<g id="node36" class="node"><title>\\ImboClient\\Exception</title>
<a xlink:href="Exception.html" xlink:title="Exception" target="_parent">
<polygon fill="none" stroke="black" points="540,-204 464,-204 464,-168 540,-168 540,-204"/>
<text text-anchor="middle" x="502" y="-183.1" font-family="Courier,monospace" font-size="11.00">Exception</text>
</a>
</g>
<!-- \\ImboClient\\Exception\\InvalidArgumentException&#45;&gt;\\ImboClient\\Exception -->
<g id="edge29" class="edge"><title>\\ImboClient\\Exception\\InvalidArgumentException&#45;&gt;\\ImboClient\\Exception</title>
<path fill="none" stroke="black" stroke-dasharray="1,5" d="M718.257,-224.163C663.613,-214.52 595.902,-202.571 550.955,-194.639"/>
<polygon fill="none" stroke="black" points="551.339,-191.153 540.882,-192.862 550.122,-198.046 551.339,-191.153"/>
</g>
<!-- \\InvalidArgumentException -->
<g id="node38" class="node"><title>\\InvalidArgumentException</title>
<ellipse fill="none" stroke="black" cx="502" cy="-72" rx="143.043" ry="18.3848"/>
<text text-anchor="middle" x="502" y="-68.4" font-family="Times Roman,serif" font-size="14.00" fill="gray">\InvalidArgumentException</text>
</g>
<!-- \\ImboClient\\Exception\\InvalidArgumentException&#45;&gt;\\InvalidArgumentException -->
<g id="edge11" class="edge"><title>\\ImboClient\\Exception\\InvalidArgumentException&#45;&gt;\\InvalidArgumentException</title>
<path fill="none" stroke="black" d="M723.876,-221.996C718.956,-219.391 714.278,-216.411 710,-213 663.045,-175.562 695.067,-128.622 646,-94 641.719,-90.9791 637.187,-88.303 632.474,-85.9358"/>
<polygon fill="none" stroke="black" points="633.759,-82.6759 623.204,-81.7548 630.881,-89.0569 633.759,-82.6759"/>
</g>
<!-- \\ImboClient\\Exception\\RuntimeException -->
<g id="node7" class="node"><title>\\ImboClient\\Exception\\RuntimeException</title>
<a xlink:href="Exception.RuntimeException.html" xlink:title="RuntimeException" target="_parent">
<polygon fill="none" stroke="black" points="870,-204 746,-204 746,-168 870,-168 870,-204"/>
<text text-anchor="middle" x="808" y="-183.1" font-family="Courier,monospace" font-size="11.00">RuntimeException</text>
</a>
</g>
<!-- \\ImboClient\\Exception\\RuntimeException&#45;&gt;\\ImboClient\\Exception -->
<g id="edge31" class="edge"><title>\\ImboClient\\Exception\\RuntimeException&#45;&gt;\\ImboClient\\Exception</title>
<path fill="none" stroke="black" stroke-dasharray="1,5" d="M745.338,-186C687.801,-186 603.708,-186 550.96,-186"/>
<polygon fill="none" stroke="black" points="550.846,-182.5 540.846,-186 550.846,-189.5 550.846,-182.5"/>
</g>
<!-- \\RuntimeException -->
<g id="node40" class="node"><title>\\RuntimeException</title>
<ellipse fill="none" stroke="black" cx="502" cy="-18" rx="103.238" ry="18.3848"/>
<text text-anchor="middle" x="502" y="-14.4" font-family="Times Roman,serif" font-size="14.00" fill="gray">\RuntimeException</text>
</g>
<!-- \\ImboClient\\Exception\\RuntimeException&#45;&gt;\\RuntimeException -->
<g id="edge13" class="edge"><title>\\ImboClient\\Exception\\RuntimeException&#45;&gt;\\RuntimeException</title>
<path fill="none" stroke="black" d="M745.426,-176.668C732.812,-172.7 720.284,-167.049 710,-159 664.242,-123.19 693.213,-78.8695 646,-45 634.857,-37.0065 622.021,-31.1823 608.699,-26.9683"/>
<polygon fill="none" stroke="black" points="609.506,-23.559 598.93,-24.1764 607.583,-30.2896 609.506,-23.559"/>
</g>
<!-- \\ImboClient\\Exception\\ServerException -->
<g id="node8" class="node"><title>\\ImboClient\\Exception\\ServerException</title>
<a xlink:href="Exception.ServerException.html" xlink:title="ServerException" target="_parent">
<polygon fill="none" stroke="black" points="867,-150 749,-150 749,-114 867,-114 867,-150"/>
<text text-anchor="middle" x="808" y="-129.1" font-family="Courier,monospace" font-size="11.00">ServerException</text>
</a>
</g>
<!-- \\ImboClient\\Exception\\ServerException&#45;&gt;\\ImboClient\\Exception -->
<g id="edge33" class="edge"><title>\\ImboClient\\Exception\\ServerException&#45;&gt;\\ImboClient\\Exception</title>
<path fill="none" stroke="black" stroke-dasharray="1,5" d="M748.869,-144.321C718.229,-150.542 680.169,-158.018 646,-164 614.273,-169.554 578.474,-175.027 550.507,-179.125"/>
<polygon fill="none" stroke="black" points="549.971,-175.666 540.579,-180.57 550.979,-182.593 549.971,-175.666"/>
</g>
<!-- \\ImboClient\\Exception\\ServerException&#45;&gt;\\RuntimeException -->
<g id="edge15" class="edge"><title>\\ImboClient\\Exception\\ServerException&#45;&gt;\\RuntimeException</title>
<path fill="none" stroke="black" d="M780.541,-113.838C749.256,-93.9753 695.976,-62.6275 646,-45 629.658,-39.2358 611.815,-34.6274 594.428,-30.9678"/>
<polygon fill="none" stroke="black" points="594.752,-27.463 584.258,-28.9212 593.371,-34.3254 594.752,-27.463"/>
</g>
<!-- \\ImboClient\\Http\\Response\\Response -->
<g id="node11" class="node"><title>\\ImboClient\\Http\\Response\\Response</title>
<a xlink:href="Http.Response.Response.html" xlink:title="Response" target="_parent">
<polygon fill="none" stroke="black" points="843,-984 773,-984 773,-948 843,-948 843,-984"/>
<text text-anchor="middle" x="808" y="-963.1" font-family="Courier,monospace" font-size="11.00">Response</text>
</a>
</g>
<!-- \\ImboClient\\Http\\Response\\ResponseInterface -->
<g id="node12" class="node"><title>\\ImboClient\\Http\\Response\\ResponseInterface</title>
<a xlink:href="Http.Response.ResponseInterface.html" xlink:title="ResponseInterface" target="_parent">
<polygon fill="none" stroke="black" points="567,-984 437,-984 437,-948 567,-948 567,-984"/>
<text text-anchor="middle" x="502" y="-963.1" font-family="Courier,monospace" font-size="11.00">ResponseInterface</text>
</a>
</g>
<!-- \\ImboClient\\Http\\Response\\Response&#45;&gt;\\ImboClient\\Http\\Response\\ResponseInterface -->
<g id="edge57" class="edge"><title>\\ImboClient\\Http\\Response\\Response&#45;&gt;\\ImboClient\\Http\\Response\\ResponseInterface</title>
<path fill="none" stroke="black" stroke-dasharray="1,5" d="M772.299,-966C724.883,-966 639.904,-966 577.854,-966"/>
<polygon fill="none" stroke="black" points="577.714,-962.5 567.714,-966 577.714,-969.5 577.714,-962.5"/>
</g>
<!-- \\ImboClient\\Http\\HeaderContainerInterface -->
<g id="node13" class="node"><title>\\ImboClient\\Http\\HeaderContainerInterface</title>
<a xlink:href="Http.HeaderContainerInterface.html" xlink:title="HeaderContainerInterface" target="_parent">
<polygon fill="none" stroke="black" points="591,-930 413,-930 413,-894 591,-894 591,-930"/>
<text text-anchor="middle" x="502" y="-909.1" font-family="Courier,monospace" font-size="11.00">HeaderContainerInterface</text>
</a>
</g>
<!-- \\ImboClient\\Http\\HeaderContainer -->
<g id="node14" class="node"><title>\\ImboClient\\Http\\HeaderContainer</title>
<a xlink:href="Http.HeaderContainer.html" xlink:title="HeaderContainer" target="_parent">
<polygon fill="none" stroke="black" points="867,-930 749,-930 749,-894 867,-894 867,-930"/>
<text text-anchor="middle" x="808" y="-909.1" font-family="Courier,monospace" font-size="11.00">HeaderContainer</text>
</a>
</g>
<!-- \\ImboClient\\Http\\HeaderContainer&#45;&gt;\\ImboClient\\Http\\HeaderContainerInterface -->
<g id="edge59" class="edge"><title>\\ImboClient\\Http\\HeaderContainer&#45;&gt;\\ImboClient\\Http\\HeaderContainerInterface</title>
<path fill="none" stroke="black" stroke-dasharray="1,5" d="M748.637,-912C707.018,-912 650.377,-912 601.872,-912"/>
<polygon fill="none" stroke="black" points="601.653,-908.5 591.653,-912 601.653,-915.5 601.653,-908.5"/>
</g>
<!-- \\ImboClient\\Url\\Images\\Image -->
<g id="node18" class="node"><title>\\ImboClient\\Url\\Images\\Image</title>
<a xlink:href="Url.Images.Image.html" xlink:title="Image" target="_parent">
<polygon fill="none" stroke="black" points="835,-818 781,-818 781,-782 835,-782 835,-818"/>
<text text-anchor="middle" x="808" y="-797.1" font-family="Courier,monospace" font-size="11.00">Image</text>
</a>
</g>
<!-- \\ImboClient\\Url\\Images\\ImageInterface -->
<g id="node19" class="node"><title>\\ImboClient\\Url\\Images\\ImageInterface</title>
<a xlink:href="Url.Images.ImageInterface.html" xlink:title="ImageInterface" target="_parent">
<polygon fill="none" stroke="black" points="557,-818 447,-818 447,-782 557,-782 557,-818"/>
<text text-anchor="middle" x="502" y="-797.1" font-family="Courier,monospace" font-size="11.00">ImageInterface</text>
</a>
</g>
<!-- \\ImboClient\\Url\\Images\\Image&#45;&gt;\\ImboClient\\Url\\Images\\ImageInterface -->
<g id="edge47" class="edge"><title>\\ImboClient\\Url\\Images\\Image&#45;&gt;\\ImboClient\\Url\\Images\\ImageInterface</title>
<path fill="none" stroke="black" stroke-dasharray="1,5" d="M780.845,-800C733.43,-800 634.281,-800 567.912,-800"/>
<polygon fill="none" stroke="black" points="567.554,-796.5 557.554,-800 567.554,-803.5 567.554,-796.5"/>
</g>
<!-- \\ImboClient\\Url\\Images\\QueryInterface -->
<g id="node20" class="node"><title>\\ImboClient\\Url\\Images\\QueryInterface</title>
<a xlink:href="Url.Images.QueryInterface.html" xlink:title="QueryInterface" target="_parent">
<polygon fill="none" stroke="black" points="557,-764 447,-764 447,-728 557,-728 557,-764"/>
<text text-anchor="middle" x="502" y="-743.1" font-family="Courier,monospace" font-size="11.00">QueryInterface</text>
</a>
</g>
<!-- \\ImboClient\\Url\\Images\\Query -->
<g id="node21" class="node"><title>\\ImboClient\\Url\\Images\\Query</title>
<a xlink:href="Url.Images.Query.html" xlink:title="Query" target="_parent">
<polygon fill="none" stroke="black" points="835,-764 781,-764 781,-728 835,-728 835,-764"/>
<text text-anchor="middle" x="808" y="-743.1" font-family="Courier,monospace" font-size="11.00">Query</text>
</a>
</g>
<!-- \\ImboClient\\Url\\Images\\Query&#45;&gt;\\ImboClient\\Url\\Images\\QueryInterface -->
<g id="edge49" class="edge"><title>\\ImboClient\\Url\\Images\\Query&#45;&gt;\\ImboClient\\Url\\Images\\QueryInterface</title>
<path fill="none" stroke="black" stroke-dasharray="1,5" d="M780.845,-746C733.43,-746 634.281,-746 567.912,-746"/>
<polygon fill="none" stroke="black" points="567.554,-742.5 557.554,-746 567.554,-749.5 567.554,-742.5"/>
</g>
<!-- \\ImboClient\\Url\\Status -->
<g id="node22" class="node"><title>\\ImboClient\\Url\\Status</title>
<a xlink:href="Url.Status.html" xlink:title="Status" target="_parent">
<polygon fill="none" stroke="black" points="836,-710 780,-710 780,-674 836,-674 836,-710"/>
<text text-anchor="middle" x="808" y="-689.1" font-family="Courier,monospace" font-size="11.00">Status</text>
</a>
</g>
<!-- \\ImboClient\\Url\\UrlInterface -->
<g id="node27" class="node"><title>\\ImboClient\\Url\\UrlInterface</title>
<a xlink:href="Url.UrlInterface.html" xlink:title="UrlInterface" target="_parent">
<polygon fill="none" stroke="black" points="192,-602 94,-602 94,-566 192,-566 192,-602"/>
<text text-anchor="middle" x="143" y="-581.1" font-family="Courier,monospace" font-size="11.00">UrlInterface</text>
</a>
</g>
<!-- \\ImboClient\\Url\\Status&#45;&gt;\\ImboClient\\Url\\UrlInterface -->
<g id="edge37" class="edge"><title>\\ImboClient\\Url\\Status&#45;&gt;\\ImboClient\\Url\\UrlInterface</title>
<path fill="none" stroke="black" stroke-dasharray="1,5" d="M779.132,-684.911C725.141,-672.099 605.019,-645.705 502,-638"/>
</g>
<!-- \\ImboClient\\Url\\Url -->
<g id="node30" class="node"><title>\\ImboClient\\Url\\Url</title>
<a xlink:href="Url.Url.html" xlink:title="Url" target="_parent">
<polygon fill="none" stroke="black" points="529,-602 475,-602 475,-566 529,-566 529,-602"/>
<text text-anchor="middle" x="502" y="-581.1" font-family="Courier,monospace" font-size="11.00">Url</text>
</a>
</g>
<!-- \\ImboClient\\Url\\Status&#45;&gt;\\ImboClient\\Url\\Url -->
<g id="edge17" class="edge"><title>\\ImboClient\\Url\\Status&#45;&gt;\\ImboClient\\Url\\Url</title>
<path fill="none" stroke="black" d="M779.224,-685.638C759.44,-680.886 732.739,-673.721 710,-665 680.307,-653.611 675.343,-645.262 646,-633 610.363,-618.108 568.445,-604.239 539.054,-595.084"/>
<polygon fill="none" stroke="black" points="539.799,-591.651 529.211,-592.049 537.736,-598.34 539.799,-591.651"/>
</g>
<!-- \\ImboClient\\Url\\Metadata -->
<g id="node23" class="node"><title>\\ImboClient\\Url\\Metadata</title>
<a xlink:href="Url.Metadata.html" xlink:title="Metadata" target="_parent">
<polygon fill="none" stroke="black" points="843,-656 773,-656 773,-620 843,-620 843,-656"/>
<text text-anchor="middle" x="808" y="-635.1" font-family="Courier,monospace" font-size="11.00">Metadata</text>
</a>
</g>
<!-- \\ImboClient\\Url\\Metadata&#45;&gt;\\ImboClient\\Url\\UrlInterface -->
<g id="edge39" class="edge"><title>\\ImboClient\\Url\\Metadata&#45;&gt;\\ImboClient\\Url\\UrlInterface</title>
<path fill="none" stroke="black" stroke-dasharray="1,5" d="M772.132,-639.73C714.911,-642.101 599.478,-645.29 502,-638"/>
</g>
<!-- \\ImboClient\\Url\\Metadata&#45;&gt;\\ImboClient\\Url\\Url -->
<g id="edge19" class="edge"><title>\\ImboClient\\Url\\Metadata&#45;&gt;\\ImboClient\\Url\\Url</title>
<path fill="none" stroke="black" d="M772.299,-631.7C713.999,-621.412 598.91,-601.102 539.478,-590.614"/>
<polygon fill="none" stroke="black" points="539.856,-587.126 529.399,-588.835 538.639,-594.02 539.856,-587.126"/>
</g>
<!-- \\ImboClient\\Url\\Image -->
<g id="node24" class="node"><title>\\ImboClient\\Url\\Image</title>
<a xlink:href="Url.Image.html" xlink:title="Image" target="_parent">
<polygon fill="none" stroke="black" points="835,-494 781,-494 781,-458 835,-458 835,-494"/>
<text text-anchor="middle" x="808" y="-473.1" font-family="Courier,monospace" font-size="11.00">Image</text>
</a>
</g>
<!-- \\ImboClient\\Url\\ImageInterface -->
<g id="node26" class="node"><title>\\ImboClient\\Url\\ImageInterface</title>
<a xlink:href="Url.ImageInterface.html" xlink:title="ImageInterface" target="_parent">
<polygon fill="none" stroke="black" points="557,-494 447,-494 447,-458 557,-458 557,-494"/>
<text text-anchor="middle" x="502" y="-473.1" font-family="Courier,monospace" font-size="11.00">ImageInterface</text>
</a>
</g>
<!-- \\ImboClient\\Url\\Image&#45;&gt;\\ImboClient\\Url\\ImageInterface -->
<g id="edge41" class="edge"><title>\\ImboClient\\Url\\Image&#45;&gt;\\ImboClient\\Url\\ImageInterface</title>
<path fill="none" stroke="black" stroke-dasharray="1,5" d="M780.845,-476C733.43,-476 634.281,-476 567.912,-476"/>
<polygon fill="none" stroke="black" points="567.554,-472.5 557.554,-476 567.554,-479.5 567.554,-472.5"/>
</g>
<!-- \\ImboClient\\Url\\Image&#45;&gt;\\ImboClient\\Url\\Url -->
<g id="edge21" class="edge"><title>\\ImboClient\\Url\\Image&#45;&gt;\\ImboClient\\Url\\Url</title>
<path fill="none" stroke="black" d="M780.738,-482.71C760.95,-487.775 733.619,-495.17 710,-503 649.043,-523.207 579.846,-551.194 538.62,-568.422"/>
<polygon fill="none" stroke="black" points="537.129,-565.252 529.262,-572.348 539.838,-571.706 537.129,-565.252"/>
</g>
<!-- \\ImboClient\\Url\\User -->
<g id="node25" class="node"><title>\\ImboClient\\Url\\User</title>
<a xlink:href="Url.User.html" xlink:title="User" target="_parent">
<polygon fill="none" stroke="black" points="835,-602 781,-602 781,-566 835,-566 835,-602"/>
<text text-anchor="middle" x="808" y="-581.1" font-family="Courier,monospace" font-size="11.00">User</text>
</a>
</g>
<!-- \\ImboClient\\Url\\User&#45;&gt;\\ImboClient\\Url\\UrlInterface -->
<g id="edge43" class="edge"><title>\\ImboClient\\Url\\User&#45;&gt;\\ImboClient\\Url\\UrlInterface</title>
<path fill="none" stroke="black" stroke-dasharray="1,5" d="M780.629,-590.623C716.232,-605.915 556.468,-642.074 502,-638"/>
<path fill="none" stroke="black" stroke-dasharray="1,5" d="M502,-638C395.667,-630.048 273.089,-609.022 202.176,-595.676"/>
<polygon fill="none" stroke="black" points="202.573,-592.189 192.097,-593.765 201.27,-599.067 202.573,-592.189"/>
</g>
<!-- \\ImboClient\\Url\\User&#45;&gt;\\ImboClient\\Url\\Url -->
<g id="edge23" class="edge"><title>\\ImboClient\\Url\\User&#45;&gt;\\ImboClient\\Url\\Url</title>
<path fill="none" stroke="black" d="M780.845,-584C725.951,-584 601.716,-584 539.284,-584"/>
<polygon fill="none" stroke="black" points="539.095,-580.5 529.095,-584 539.095,-587.5 539.095,-580.5"/>
</g>
<!-- ImboClient\\Url\\UrlInterface -->
<g id="node47" class="node"><title>ImboClient\\Url\\UrlInterface</title>
<ellipse fill="none" stroke="black" cx="143" cy="-72" rx="142.836" ry="18.3848"/>
<text text-anchor="middle" x="143" y="-68.4" font-family="Times Roman,serif" font-size="14.00" fill="gray">ImboClient\Url\UrlInterface</text>
</g>
<!-- \\ImboClient\\Url\\ImageInterface&#45;&gt;ImboClient\\Url\\UrlInterface -->
<g id="edge25" class="edge"><title>\\ImboClient\\Url\\ImageInterface&#45;&gt;ImboClient\\Url\\UrlInterface</title>
<path fill="none" stroke="black" d="M446.417,-476.407C417.72,-474.093 383.482,-467.151 358,-449 232.205,-359.397 170.018,-171.585 150.226,-100.279"/>
<polygon fill="none" stroke="black" points="153.502,-98.9862 147.51,-90.2483 146.745,-100.815 153.502,-98.9862"/>
</g>
<!-- \\ImboClient\\Url\\AccessTokenInterface -->
<g id="node28" class="node"><title>\\ImboClient\\Url\\AccessTokenInterface</title>
<a xlink:href="Url.AccessTokenInterface.html" xlink:title="AccessTokenInterface" target="_parent">
<polygon fill="none" stroke="black" points="578,-440 426,-440 426,-404 578,-404 578,-440"/>
<text text-anchor="middle" x="502" y="-419.1" font-family="Courier,monospace" font-size="11.00">AccessTokenInterface</text>
</a>
</g>
<!-- \\ImboClient\\Url\\AccessToken -->
<g id="node29" class="node"><title>\\ImboClient\\Url\\AccessToken</title>
<a xlink:href="Url.AccessToken.html" xlink:title="AccessToken" target="_parent">
<polygon fill="none" stroke="black" points="853,-440 763,-440 763,-404 853,-404 853,-440"/>
<text text-anchor="middle" x="808" y="-419.1" font-family="Courier,monospace" font-size="11.00">AccessToken</text>
</a>
</g>
<!-- \\ImboClient\\Url\\AccessToken&#45;&gt;\\ImboClient\\Url\\AccessTokenInterface -->
<g id="edge45" class="edge"><title>\\ImboClient\\Url\\AccessToken&#45;&gt;\\ImboClient\\Url\\AccessTokenInterface</title>
<path fill="none" stroke="black" stroke-dasharray="1,5" d="M762.189,-422C716.341,-422 644.687,-422 588.172,-422"/>
<polygon fill="none" stroke="black" points="588.165,-418.5 578.165,-422 588.165,-425.5 588.165,-418.5"/>
</g>
<!-- \\ImboClient\\Url\\Url&#45;&gt;\\ImboClient\\Url\\UrlInterface -->
<g id="edge51" class="edge"><title>\\ImboClient\\Url\\Url&#45;&gt;\\ImboClient\\Url\\UrlInterface</title>
<path fill="none" stroke="black" stroke-dasharray="1,5" d="M474.722,-584C416.937,-584 281.053,-584 202.296,-584"/>
<polygon fill="none" stroke="black" points="202.045,-580.5 192.045,-584 202.045,-587.5 202.045,-580.5"/>
</g>
<!-- \\ImboClient\\Url\\Images -->
<g id="node31" class="node"><title>\\ImboClient\\Url\\Images</title>
<a xlink:href="Url.Images.html" xlink:title="Images" target="_parent">
<polygon fill="none" stroke="black" points="836,-548 780,-548 780,-512 836,-512 836,-548"/>
<text text-anchor="middle" x="808" y="-527.1" font-family="Courier,monospace" font-size="11.00">Images</text>
</a>
</g>
<!-- \\ImboClient\\Url\\Images&#45;&gt;\\ImboClient\\Url\\UrlInterface -->
<g id="edge53" class="edge"><title>\\ImboClient\\Url\\Images&#45;&gt;\\ImboClient\\Url\\UrlInterface</title>
<path fill="none" stroke="black" stroke-dasharray="1,5" d="M779.258,-531.076C707.871,-533.889 516.785,-542.282 358,-557 305.115,-561.902 245.17,-569.609 202.038,-575.536"/>
<polygon fill="none" stroke="black" points="201.426,-572.087 192,-576.925 202.386,-579.021 201.426,-572.087"/>
</g>
<!-- \\ImboClient\\Url\\Images&#45;&gt;\\ImboClient\\Url\\Url -->
<g id="edge27" class="edge"><title>\\ImboClient\\Url\\Images&#45;&gt;\\ImboClient\\Url\\Url</title>
<path fill="none" stroke="black" d="M779.487,-535.032C723.946,-544.833 601.287,-566.479 539.345,-577.41"/>
<polygon fill="none" stroke="black" points="538.469,-574.01 529.229,-579.195 539.685,-580.904 538.469,-574.01"/>
</g>
<!-- \\ImboClient\\Version -->
<g id="node33" class="node"><title>\\ImboClient\\Version</title>
<a xlink:href="Version.html" xlink:title="Version" target="_parent">
<polygon fill="none" stroke="black" points="840,-332 776,-332 776,-296 840,-296 840,-332"/>
<text text-anchor="middle" x="808" y="-311.1" font-family="Courier,monospace" font-size="11.00">Version</text>
</a>
</g>
<!-- \\ImboClient\\Client -->
<g id="node34" class="node"><title>\\ImboClient\\Client</title>
<a xlink:href="Client.html" xlink:title="Client" target="_parent">
<polygon fill="none" stroke="black" points="836,-386 780,-386 780,-350 836,-350 836,-386"/>
<text text-anchor="middle" x="808" y="-365.1" font-family="Courier,monospace" font-size="11.00">Client</text>
</a>
</g>
<!-- \\ImboClient\\ClientInterface -->
<g id="node35" class="node"><title>\\ImboClient\\ClientInterface</title>
<a xlink:href="ClientInterface.html" xlink:title="ClientInterface" target="_parent">
<polygon fill="none" stroke="black" points="561,-386 443,-386 443,-350 561,-350 561,-386"/>
<text text-anchor="middle" x="502" y="-365.1" font-family="Courier,monospace" font-size="11.00">ClientInterface</text>
</a>
</g>
<!-- \\ImboClient\\Client&#45;&gt;\\ImboClient\\ClientInterface -->
<g id="edge35" class="edge"><title>\\ImboClient\\Client&#45;&gt;\\ImboClient\\ClientInterface</title>
<path fill="none" stroke="black" stroke-dasharray="1,5" d="M779.487,-368C732.378,-368 636.982,-368 571.306,-368"/>
<polygon fill="none" stroke="black" points="571.033,-364.5 561.033,-368 571.033,-371.5 571.033,-364.5"/>
</g>
</g>
</svg>
