<?xml version="1.0" encoding="UTF-8" standalone="no"?>
<!DOCTYPE svg PUBLIC "-//W3C//DTD SVG 1.1//EN"
 "http://www.w3.org/Graphics/SVG/1.1/DTD/svg11.dtd">
<!-- Generated by graphviz version 2.26.3 (20100126.1600)
 -->
<!-- Title: G Pages: 1 -->
<svg width="806pt" height="2112pt"
 viewBox="0.00 0.00 806.00 2112.00" xmlns="http://www.w3.org/2000/svg" xmlns:xlink="http://www.w3.org/1999/xlink">
<g id="graph1" class="graph" transform="scale(1 1) rotate(0) translate(4 2108)">
<title>G</title>
<polygon fill="white" stroke="white" points="-4,5 -4,-2108 803,-2108 803,5 -4,5"/>
<g id="graph2" class="cluster"><title>cluster_ImboClient</title>
<polyline fill="none" stroke="gray" points="20,-152 778,-152 "/>
<path fill="none" stroke="gray" d="M778,-152C784,-152 790,-158 790,-164"/>
<polyline fill="none" stroke="gray" points="790,-164 790,-2084 "/>
<path fill="none" stroke="gray" d="M790,-2084C790,-2090 784,-2096 778,-2096"/>
<polyline fill="none" stroke="gray" points="778,-2096 20,-2096 "/>
<path fill="none" stroke="gray" d="M20,-2096C14,-2096 8,-2090 8,-2084"/>
<polyline fill="none" stroke="gray" points="8,-2084 8,-164 "/>
<path fill="none" stroke="gray" d="M8,-164C8,-158 14,-152 20,-152"/>
<text text-anchor="middle" x="399" y="-2082.1" font-family="Times Roman,serif" font-size="11.00" fill="gray">ImboClient</text>
</g>
<g id="graph3" class="cluster"><title>cluster_ImboClient\Driver</title>
<polyline fill="none" stroke="gray" points="303,-1854 720,-1854 "/>
<path fill="none" stroke="gray" d="M720,-1854C726,-1854 732,-1860 732,-1866"/>
<polyline fill="none" stroke="gray" points="732,-1866 732,-2054 "/>
<path fill="none" stroke="gray" d="M732,-2054C732,-2060 726,-2066 720,-2066"/>
<polyline fill="none" stroke="gray" points="720,-2066 303,-2066 "/>
<path fill="none" stroke="gray" d="M303,-2066C297,-2066 291,-2060 291,-2054"/>
<polyline fill="none" stroke="gray" points="291,-2054 291,-1866 "/>
<path fill="none" stroke="gray" d="M291,-1866C291,-1860 297,-1854 303,-1854"/>
<text text-anchor="middle" x="511.5" y="-2052.1" font-family="Times Roman,serif" font-size="11.00" fill="gray">Driver</text>
</g>
<g id="graph4" class="cluster"><title>cluster_ImboClient\Driver\cURL</title>
<polyline fill="none" stroke="gray" points="656,-1962 712,-1962 "/>
<path fill="none" stroke="gray" d="M712,-1962C718,-1962 724,-1968 724,-1974"/>
<polyline fill="none" stroke="gray" points="724,-1974 724,-2024 "/>
<path fill="none" stroke="gray" d="M724,-2024C724,-2030 718,-2036 712,-2036"/>
<polyline fill="none" stroke="gray" points="712,-2036 656,-2036 "/>
<path fill="none" stroke="gray" d="M656,-2036C650,-2036 644,-2030 644,-2024"/>
<polyline fill="none" stroke="gray" points="644,-2024 644,-1974 "/>
<path fill="none" stroke="gray" d="M644,-1974C644,-1968 650,-1962 656,-1962"/>
<text text-anchor="middle" x="684" y="-2022.1" font-family="Times Roman,serif" font-size="11.00" fill="gray">cURL</text>
</g>
<g id="graph6" class="cluster"><title>cluster_ImboClient\Exception</title>
<polyline fill="none" stroke="gray" points="598,-1290 770,-1290 "/>
<path fill="none" stroke="gray" d="M770,-1290C776,-1290 782,-1296 782,-1302"/>
<polyline fill="none" stroke="gray" points="782,-1302 782,-1514 "/>
<path fill="none" stroke="gray" d="M782,-1514C782,-1520 776,-1526 770,-1526"/>
<polyline fill="none" stroke="gray" points="770,-1526 598,-1526 "/>
<path fill="none" stroke="gray" d="M598,-1526C592,-1526 586,-1520 586,-1514"/>
<polyline fill="none" stroke="gray" points="586,-1514 586,-1302 "/>
<path fill="none" stroke="gray" d="M586,-1302C586,-1296 592,-1290 598,-1290"/>
<text text-anchor="middle" x="684" y="-1512.1" font-family="Times Roman,serif" font-size="11.00" fill="gray">Exception</text>
</g>
<g id="graph7" class="cluster"><title>cluster_ImboClient\Http</title>
<polyline fill="none" stroke="gray" points="272,-1534 753,-1534 "/>
<path fill="none" stroke="gray" d="M753,-1534C759,-1534 765,-1540 765,-1546"/>
<polyline fill="none" stroke="gray" points="765,-1546 765,-1788 "/>
<path fill="none" stroke="gray" d="M765,-1788C765,-1794 759,-1800 753,-1800"/>
<polyline fill="none" stroke="gray" points="753,-1800 272,-1800 "/>
<path fill="none" stroke="gray" d="M272,-1800C266,-1800 260,-1794 260,-1788"/>
<polyline fill="none" stroke="gray" points="260,-1788 260,-1546 "/>
<path fill="none" stroke="gray" d="M260,-1546C260,-1540 266,-1534 272,-1534"/>
<text text-anchor="middle" x="512.5" y="-1786.1" font-family="Times Roman,serif" font-size="11.00" fill="gray">Http</text>
</g>
<g id="graph8" class="cluster"><title>cluster_ImboClient\Http\Response</title>
<polyline fill="none" stroke="gray" points="296,-1642 729,-1642 "/>
<path fill="none" stroke="gray" d="M729,-1642C735,-1642 741,-1648 741,-1654"/>
<polyline fill="none" stroke="gray" points="741,-1654 741,-1758 "/>
<path fill="none" stroke="gray" d="M741,-1758C741,-1764 735,-1770 729,-1770"/>
<polyline fill="none" stroke="gray" points="729,-1770 296,-1770 "/>
<path fill="none" stroke="gray" d="M296,-1770C290,-1770 284,-1764 284,-1758"/>
<polyline fill="none" stroke="gray" points="284,-1758 284,-1654 "/>
<path fill="none" stroke="gray" d="M284,-1654C284,-1648 290,-1642 296,-1642"/>
<text text-anchor="middle" x="512.5" y="-1756.1" font-family="Times Roman,serif" font-size="11.00" fill="gray">Response</text>
</g>
<g id="graph10" class="cluster"><title>cluster_ImboClient\Url</title>
<polyline fill="none" stroke="gray" points="28,-260 746,-260 "/>
<path fill="none" stroke="gray" d="M746,-260C752,-260 758,-266 758,-272"/>
<polyline fill="none" stroke="gray" points="758,-272 758,-1270 "/>
<path fill="none" stroke="gray" d="M758,-1270C758,-1276 752,-1282 746,-1282"/>
<polyline fill="none" stroke="gray" points="746,-1282 28,-1282 "/>
<path fill="none" stroke="gray" d="M28,-1282C22,-1282 16,-1276 16,-1270"/>
<polyline fill="none" stroke="gray" points="16,-1270 16,-272 "/>
<path fill="none" stroke="gray" d="M16,-272C16,-266 22,-260 28,-260"/>
<text text-anchor="middle" x="387" y="-1268.1" font-family="Times Roman,serif" font-size="11.00" fill="gray">Url</text>
</g>
<g id="graph11" class="cluster"><title>cluster_ImboClient\Url\Images</title>
<polyline fill="none" stroke="gray" points="306,-1016 719,-1016 "/>
<path fill="none" stroke="gray" d="M719,-1016C725,-1016 731,-1022 731,-1028"/>
<polyline fill="none" stroke="gray" points="731,-1028 731,-1240 "/>
<path fill="none" stroke="gray" d="M731,-1240C731,-1246 725,-1252 719,-1252"/>
<polyline fill="none" stroke="gray" points="719,-1252 306,-1252 "/>
<path fill="none" stroke="gray" d="M306,-1252C300,-1252 294,-1246 294,-1240"/>
<polyline fill="none" stroke="gray" points="294,-1240 294,-1028 "/>
<path fill="none" stroke="gray" d="M294,-1028C294,-1022 300,-1016 306,-1016"/>
<text text-anchor="middle" x="512.5" y="-1238.1" font-family="Times Roman,serif" font-size="11.00" fill="gray">Images</text>
</g>
<!-- \\ImboClient\\Driver\\cURL\\Wrapper -->
<g id="node4" class="node"><title>\\ImboClient\\Driver\\cURL\\Wrapper</title>
<a xlink:href="library.ImboClient.Driver.cURL.Wrapper.html" xlink:title="Wrapper" target="_parent">
<polygon fill="none" stroke="black" points="716,-2006 652,-2006 652,-1970 716,-1970 716,-2006"/>
<text text-anchor="middle" x="684" y="-1985.1" font-family="Courier,monospace" font-size="11.00">Wrapper</text>
</a>
</g>
<!-- \\ImboClient\\Driver\\cURLTest -->
<g id="node5" class="node"><title>\\ImboClient\\Driver\\cURLTest</title>
<a xlink:href="tests.ImboClient.Driver.cURLTest.html" xlink:title="cURLTest" target="_parent">
<polygon fill="none" stroke="black" points="719,-1898 649,-1898 649,-1862 719,-1862 719,-1898"/>
<text text-anchor="middle" x="684" y="-1877.1" font-family="Courier,monospace" font-size="11.00">cURLTest</text>
</a>
</g>
<!-- \\PHPUnit_Framework_TestCase -->
<g id="node56" class="node"><title>\\PHPUnit_Framework_TestCase</title>
<ellipse fill="none" stroke="black" cx="358" cy="-18" rx="164.049" ry="18.3848"/>
<text text-anchor="middle" x="358" y="-14.4" font-family="Times Roman,serif" font-size="14.00" fill="gray">\PHPUnit_Framework_TestCase</text>
</g>
<!-- \\ImboClient\\Driver\\cURLTest&#45;&gt;\\PHPUnit_Framework_TestCase -->
<g id="edge35" class="edge"><title>\\ImboClient\\Driver\\cURLTest&#45;&gt;\\PHPUnit_Framework_TestCase</title>
<path fill="none" stroke="black" d="M648.126,-1882C626.682,-1881.09 600.809,-1875.85 586,-1858 457.285,-1702.88 655.133,-196.348 522,-45 517.91,-40.3503 513.353,-36.2904 508.436,-32.7541"/>
<polygon fill="none" stroke="black" points="510.157,-29.7006 499.841,-27.2855 506.399,-35.6065 510.157,-29.7006"/>
</g>
<!-- \\ImboClient\\Driver\\DriverInterface -->
<g id="node6" class="node"><title>\\ImboClient\\Driver\\DriverInterface</title>
<a xlink:href="library.ImboClient.Driver.DriverInterface.html" xlink:title="DriverInterface" target="_parent">
<polygon fill="none" stroke="black" points="417,-1952 299,-1952 299,-1916 417,-1916 417,-1952"/>
<text text-anchor="middle" x="358" y="-1931.1" font-family="Courier,monospace" font-size="11.00">DriverInterface</text>
</a>
</g>
<!-- \\ImboClient\\Driver\\cURL -->
<g id="node7" class="node"><title>\\ImboClient\\Driver\\cURL</title>
<a xlink:href="library.ImboClient.Driver.cURL.html" xlink:title="cURL" target="_parent">
<polygon fill="none" stroke="black" points="711,-1952 657,-1952 657,-1916 711,-1916 711,-1952"/>
<text text-anchor="middle" x="684" y="-1931.1" font-family="Courier,monospace" font-size="11.00">cURL</text>
</a>
</g>
<!-- \\ImboClient\\Driver\\cURL&#45;&gt;\\ImboClient\\Driver\\DriverInterface -->
<g id="edge81" class="edge"><title>\\ImboClient\\Driver\\cURL&#45;&gt;\\ImboClient\\Driver\\DriverInterface</title>
<path fill="none" stroke="black" stroke-dasharray="1,5" d="M656.766,-1934C606.738,-1934 498.788,-1934 427.283,-1934"/>
<polygon fill="none" stroke="black" points="427.008,-1930.5 417.008,-1934 427.008,-1937.5 427.008,-1930.5"/>
</g>
<!-- \\ImboClient\\Exception\\ServerExceptionTest -->
<g id="node10" class="node"><title>\\ImboClient\\Exception\\ServerExceptionTest</title>
<a xlink:href="tests.ImboClient.Exception.ServerExceptionTest.html" xlink:title="ServerExceptionTest" target="_parent">
<polygon fill="none" stroke="black" points="756,-1334 612,-1334 612,-1298 756,-1298 756,-1334"/>
<text text-anchor="middle" x="684" y="-1313.1" font-family="Courier,monospace" font-size="11.00">ServerExceptionTest</text>
</a>
</g>
<!-- \\ImboClient\\Exception\\ServerExceptionTest&#45;&gt;\\PHPUnit_Framework_TestCase -->
<g id="edge37" class="edge"><title>\\ImboClient\\Exception\\ServerExceptionTest&#45;&gt;\\PHPUnit_Framework_TestCase</title>
<path fill="none" stroke="black" d="M635.432,-1297.98C616.722,-1288.46 597.177,-1274.77 586,-1256 517.058,-1140.23 611.878,-145.388 522,-45 517.808,-40.3174 513.142,-36.2362 508.113,-32.6879"/>
<polygon fill="none" stroke="black" points="509.663,-29.5301 499.326,-27.2074 505.959,-35.4694 509.663,-29.5301"/>
</g>
<!-- \\ImboClient\\Exception\\ServerException -->
<g id="node11" class="node"><title>\\ImboClient\\Exception\\ServerException</title>
<a xlink:href="library.ImboClient.Exception.ServerException.html" xlink:title="ServerException" target="_parent">
<polygon fill="none" stroke="black" points="743,-1496 625,-1496 625,-1460 743,-1460 743,-1496"/>
<text text-anchor="middle" x="684" y="-1475.1" font-family="Courier,monospace" font-size="11.00">ServerException</text>
</a>
</g>
<!-- \\ImboClient\\Exception -->
<g id="node54" class="node"><title>\\ImboClient\\Exception</title>
<a xlink:href="library.ImboClient.Exception.html" xlink:title="Exception" target="_parent">
<polygon fill="none" stroke="black" points="396,-1442 320,-1442 320,-1406 396,-1406 396,-1442"/>
<text text-anchor="middle" x="358" y="-1421.1" font-family="Courier,monospace" font-size="11.00">Exception</text>
</a>
</g>
<!-- \\ImboClient\\Exception\\ServerException&#45;&gt;\\ImboClient\\Exception -->
<g id="edge83" class="edge"><title>\\ImboClient\\Exception\\ServerException&#45;&gt;\\ImboClient\\Exception</title>
<path fill="none" stroke="black" stroke-dasharray="1,5" d="M624.964,-1468.22C562.478,-1457.87 465.007,-1441.73 406.736,-1432.07"/>
<polygon fill="none" stroke="black" points="407.118,-1428.59 396.68,-1430.41 405.974,-1435.49 407.118,-1428.59"/>
</g>
<!-- \\RuntimeException -->
<g id="node78" class="node"><title>\\RuntimeException</title>
<ellipse fill="none" stroke="black" cx="358" cy="-126" rx="103.238" ry="18.3848"/>
<text text-anchor="middle" x="358" y="-122.4" font-family="Times Roman,serif" font-size="14.00" fill="gray">\RuntimeException</text>
</g>
<!-- \\ImboClient\\Exception\\ServerException&#45;&gt;\\RuntimeException -->
<g id="edge55" class="edge"><title>\\ImboClient\\Exception\\ServerException&#45;&gt;\\RuntimeException</title>
<path fill="none" stroke="black" d="M624.849,-1473.87C610.029,-1469.91 595.627,-1462.96 586,-1451 502.625,-1347.42 583.05,-374.125 522,-256 496.364,-206.397 442.406,-169.5 403.368,-147.93"/>
<polygon fill="none" stroke="black" points="404.753,-144.7 394.29,-143.039 401.433,-150.863 404.753,-144.7"/>
</g>
<!-- \\ImboClient\\Exception\\InvalidArgumentException -->
<g id="node12" class="node"><title>\\ImboClient\\Exception\\InvalidArgumentException</title>
<a xlink:href="library.ImboClient.Exception.InvalidArgumentException.html" xlink:title="InvalidArgumentException" target="_parent">
<polygon fill="none" stroke="black" points="773,-1388 595,-1388 595,-1352 773,-1352 773,-1388"/>
<text text-anchor="middle" x="684" y="-1367.1" font-family="Courier,monospace" font-size="11.00">InvalidArgumentException</text>
</a>
</g>
<!-- \\ImboClient\\Exception\\InvalidArgumentException&#45;&gt;\\ImboClient\\Exception -->
<g id="edge85" class="edge"><title>\\ImboClient\\Exception\\InvalidArgumentException&#45;&gt;\\ImboClient\\Exception</title>
<path fill="none" stroke="black" stroke-dasharray="1,5" d="M594.488,-1384.83C533.952,-1394.85 456.312,-1407.72 406.844,-1415.91"/>
<polygon fill="none" stroke="black" points="406.026,-1412.5 396.732,-1417.58 407.17,-1419.4 406.026,-1412.5"/>
</g>
<!-- \\InvalidArgumentException -->
<g id="node80" class="node"><title>\\InvalidArgumentException</title>
<ellipse fill="none" stroke="black" cx="358" cy="-72" rx="143.043" ry="18.3848"/>
<text text-anchor="middle" x="358" y="-68.4" font-family="Times Roman,serif" font-size="14.00" fill="gray">\InvalidArgumentException</text>
</g>
<!-- \\ImboClient\\Exception\\InvalidArgumentException&#45;&gt;\\InvalidArgumentException -->
<g id="edge57" class="edge"><title>\\ImboClient\\Exception\\InvalidArgumentException&#45;&gt;\\InvalidArgumentException</title>
<path fill="none" stroke="black" d="M594.957,-1351.8C591.669,-1349.22 588.652,-1346.3 586,-1343 412.66,-1127.18 706.496,-305.361 522,-99 516.194,-92.5061 509.477,-87.1684 502.145,-82.8043"/>
<polygon fill="none" stroke="black" points="503.749,-79.6934 493.272,-78.1176 500.479,-85.883 503.749,-79.6934"/>
</g>
<!-- \\ImboClient\\Exception\\RuntimeException -->
<g id="node13" class="node"><title>\\ImboClient\\Exception\\RuntimeException</title>
<a xlink:href="library.ImboClient.Exception.RuntimeException.html" xlink:title="RuntimeException" target="_parent">
<polygon fill="none" stroke="black" points="746,-1442 622,-1442 622,-1406 746,-1406 746,-1442"/>
<text text-anchor="middle" x="684" y="-1421.1" font-family="Courier,monospace" font-size="11.00">RuntimeException</text>
</a>
</g>
<!-- \\ImboClient\\Exception\\RuntimeException&#45;&gt;\\ImboClient\\Exception -->
<g id="edge87" class="edge"><title>\\ImboClient\\Exception\\RuntimeException&#45;&gt;\\ImboClient\\Exception</title>
<path fill="none" stroke="black" stroke-dasharray="1,5" d="M621.144,-1424C558.613,-1424 463.978,-1424 406.867,-1424"/>
<polygon fill="none" stroke="black" points="406.657,-1420.5 396.657,-1424 406.656,-1427.5 406.657,-1420.5"/>
</g>
<!-- \\ImboClient\\Exception\\RuntimeException&#45;&gt;\\RuntimeException -->
<g id="edge59" class="edge"><title>\\ImboClient\\Exception\\RuntimeException&#45;&gt;\\RuntimeException</title>
<path fill="none" stroke="black" d="M621.302,-1418.84C607.762,-1414.74 594.866,-1407.99 586,-1397 426.514,-1199.37 638.884,-481.457 522,-256 496.301,-206.43 442.356,-169.526 403.338,-147.945"/>
<polygon fill="none" stroke="black" points="404.727,-144.718 394.264,-143.052 401.405,-150.879 404.727,-144.718"/>
</g>
<!-- \\ImboClient\\Http\\Response\\ResponseTest -->
<g id="node16" class="node"><title>\\ImboClient\\Http\\Response\\ResponseTest</title>
<a xlink:href="tests.ImboClient.Http.Response.ResponseTest.html" xlink:title="ResponseTest" target="_parent">
<polygon fill="none" stroke="black" points="733,-1686 635,-1686 635,-1650 733,-1650 733,-1686"/>
<text text-anchor="middle" x="684" y="-1665.1" font-family="Courier,monospace" font-size="11.00">ResponseTest</text>
</a>
</g>
<!-- \\ImboClient\\Http\\Response\\ResponseTest&#45;&gt;\\PHPUnit_Framework_TestCase -->
<g id="edge41" class="edge"><title>\\ImboClient\\Http\\Response\\ResponseTest&#45;&gt;\\PHPUnit_Framework_TestCase</title>
<path fill="none" stroke="black" d="M634.937,-1668.85C616.85,-1666.47 597.892,-1660.26 586,-1646 471.997,-1509.26 639.897,-178.399 522,-45 517.838,-40.2906 513.197,-36.1871 508.188,-32.6205"/>
<polygon fill="none" stroke="black" points="509.761,-29.4747 499.432,-27.1129 506.033,-35.4 509.761,-29.4747"/>
</g>
<!-- \\ImboClient\\Http\\Response\\Response -->
<g id="node17" class="node"><title>\\ImboClient\\Http\\Response\\Response</title>
<a xlink:href="library.ImboClient.Http.Response.Response.html" xlink:title="Response" target="_parent">
<polygon fill="none" stroke="black" points="719,-1740 649,-1740 649,-1704 719,-1704 719,-1740"/>
<text text-anchor="middle" x="684" y="-1719.1" font-family="Courier,monospace" font-size="11.00">Response</text>
</a>
</g>
<!-- \\ImboClient\\Http\\Response\\ResponseInterface -->
<g id="node18" class="node"><title>\\ImboClient\\Http\\Response\\ResponseInterface</title>
<a xlink:href="library.ImboClient.Http.Response.ResponseInterface.html" xlink:title="ResponseInterface" target="_parent">
<polygon fill="none" stroke="black" points="423,-1740 293,-1740 293,-1704 423,-1704 423,-1740"/>
<text text-anchor="middle" x="358" y="-1719.1" font-family="Courier,monospace" font-size="11.00">ResponseInterface</text>
</a>
</g>
<!-- \\ImboClient\\Http\\Response\\Response&#45;&gt;\\ImboClient\\Http\\Response\\ResponseInterface -->
<g id="edge91" class="edge"><title>\\ImboClient\\Http\\Response\\Response&#45;&gt;\\ImboClient\\Http\\Response\\ResponseInterface</title>
<path fill="none" stroke="black" stroke-dasharray="1,5" d="M648.492,-1722C597.242,-1722 501.289,-1722 433.718,-1722"/>
<polygon fill="none" stroke="black" points="433.546,-1718.5 423.546,-1722 433.546,-1725.5 433.546,-1718.5"/>
</g>
<!-- \\ImboClient\\Http\\HeaderContainerTest -->
<g id="node19" class="node"><title>\\ImboClient\\Http\\HeaderContainerTest</title>
<a xlink:href="tests.ImboClient.Http.HeaderContainerTest.html" xlink:title="HeaderContainerTest" target="_parent">
<polygon fill="none" stroke="black" points="756,-1578 612,-1578 612,-1542 756,-1542 756,-1578"/>
<text text-anchor="middle" x="684" y="-1557.1" font-family="Courier,monospace" font-size="11.00">HeaderContainerTest</text>
</a>
</g>
<!-- \\ImboClient\\Http\\HeaderContainerTest&#45;&gt;\\PHPUnit_Framework_TestCase -->
<g id="edge39" class="edge"><title>\\ImboClient\\Http\\HeaderContainerTest&#45;&gt;\\PHPUnit_Framework_TestCase</title>
<path fill="none" stroke="black" d="M611.113,-1549.02C601.386,-1544.58 592.532,-1538.44 586,-1530 484.95,-1399.37 631.562,-168.579 522,-45 517.83,-40.2971 513.183,-36.199 508.17,-32.6368"/>
<polygon fill="none" stroke="black" points="509.737,-29.4881 499.406,-27.1358 506.015,-35.4168 509.737,-29.4881"/>
</g>
<!-- \\ImboClient\\Http\\HeaderContainerInterface -->
<g id="node20" class="node"><title>\\ImboClient\\Http\\HeaderContainerInterface</title>
<a xlink:href="library.ImboClient.Http.HeaderContainerInterface.html" xlink:title="HeaderContainerInterface" target="_parent">
<polygon fill="none" stroke="black" points="447,-1632 269,-1632 269,-1596 447,-1596 447,-1632"/>
<text text-anchor="middle" x="358" y="-1611.1" font-family="Courier,monospace" font-size="11.00">HeaderContainerInterface</text>
</a>
</g>
<!-- \\ImboClient\\Http\\HeaderContainer -->
<g id="node21" class="node"><title>\\ImboClient\\Http\\HeaderContainer</title>
<a xlink:href="library.ImboClient.Http.HeaderContainer.html" xlink:title="HeaderContainer" target="_parent">
<polygon fill="none" stroke="black" points="743,-1632 625,-1632 625,-1596 743,-1596 743,-1632"/>
<text text-anchor="middle" x="684" y="-1611.1" font-family="Courier,monospace" font-size="11.00">HeaderContainer</text>
</a>
</g>
<!-- \\ImboClient\\Http\\HeaderContainer&#45;&gt;\\ImboClient\\Http\\HeaderContainerInterface -->
<g id="edge89" class="edge"><title>\\ImboClient\\Http\\HeaderContainer&#45;&gt;\\ImboClient\\Http\\HeaderContainerInterface</title>
<path fill="none" stroke="black" stroke-dasharray="1,5" d="M624.964,-1614C578.412,-1614 512.444,-1614 457.732,-1614"/>
<polygon fill="none" stroke="black" points="457.655,-1610.5 447.655,-1614 457.655,-1617.5 457.655,-1610.5"/>
</g>
<!-- \\ImboClient\\Url\\Images\\QueryTest -->
<g id="node25" class="node"><title>\\ImboClient\\Url\\Images\\QueryTest</title>
<a xlink:href="tests.ImboClient.Url.Images.QueryTest.html" xlink:title="QueryTest" target="_parent">
<polygon fill="none" stroke="black" points="722,-1114 646,-1114 646,-1078 722,-1078 722,-1114"/>
<text text-anchor="middle" x="684" y="-1093.1" font-family="Courier,monospace" font-size="11.00">QueryTest</text>
</a>
</g>
<!-- \\ImboClient\\Url\\Images\\QueryTest&#45;&gt;\\PHPUnit_Framework_TestCase -->
<g id="edge19" class="edge"><title>\\ImboClient\\Url\\Images\\QueryTest&#45;&gt;\\PHPUnit_Framework_TestCase</title>
<path fill="none" stroke="black" d="M645.19,-1095.59C624.36,-1093.18 600.131,-1086.4 586,-1069 442.248,-892.028 674.897,-214.134 522,-45 517.785,-40.3376 513.1,-36.2732 508.056,-32.7386"/>
<polygon fill="none" stroke="black" points="509.591,-29.572 499.247,-27.2786 505.903,-35.5218 509.591,-29.572"/>
</g>
<!-- \\ImboClient\\Url\\Images\\ImageTest -->
<g id="node26" class="node"><title>\\ImboClient\\Url\\Images\\ImageTest</title>
<a xlink:href="tests.ImboClient.Url.Images.ImageTest.html" xlink:title="ImageTest" target="_parent">
<polygon fill="none" stroke="black" points="722,-1060 646,-1060 646,-1024 722,-1024 722,-1060"/>
<text text-anchor="middle" x="684" y="-1039.1" font-family="Courier,monospace" font-size="11.00">ImageTest</text>
</a>
</g>
<!-- \\ImboClient\\Url\\Images\\ImageTest&#45;&gt;\\PHPUnit_Framework_TestCase -->
<g id="edge21" class="edge"><title>\\ImboClient\\Url\\Images\\ImageTest&#45;&gt;\\PHPUnit_Framework_TestCase</title>
<path fill="none" stroke="black" d="M645.393,-1043.69C624.629,-1042.37 600.397,-1036.83 586,-1020 444.835,-855.018 667.862,-205.845 522,-45 517.778,-40.3442 513.087,-36.2852 508.038,-32.7552"/>
<polygon fill="none" stroke="black" points="509.567,-29.5857 499.221,-27.3018 505.885,-35.5389 509.567,-29.5857"/>
</g>
<!-- \\ImboClient\\Url\\Images\\ImageInterface -->
<g id="node27" class="node"><title>\\ImboClient\\Url\\Images\\ImageInterface</title>
<a xlink:href="library.ImboClient.Url.Images.ImageInterface.html" xlink:title="ImageInterface" target="_parent">
<polygon fill="none" stroke="black" points="413,-1222 303,-1222 303,-1186 413,-1186 413,-1222"/>
<text text-anchor="middle" x="358" y="-1201.1" font-family="Courier,monospace" font-size="11.00">ImageInterface</text>
</a>
</g>
<!-- \\ImboClient\\Url\\Images\\QueryInterface -->
<g id="node28" class="node"><title>\\ImboClient\\Url\\Images\\QueryInterface</title>
<a xlink:href="library.ImboClient.Url.Images.QueryInterface.html" xlink:title="QueryInterface" target="_parent">
<polygon fill="none" stroke="black" points="413,-1168 303,-1168 303,-1132 413,-1132 413,-1168"/>
<text text-anchor="middle" x="358" y="-1147.1" font-family="Courier,monospace" font-size="11.00">QueryInterface</text>
</a>
</g>
<!-- \\ImboClient\\Url\\Images\\Image -->
<g id="node29" class="node"><title>\\ImboClient\\Url\\Images\\Image</title>
<a xlink:href="library.ImboClient.Url.Images.Image.html" xlink:title="Image" target="_parent">
<polygon fill="none" stroke="black" points="711,-1222 657,-1222 657,-1186 711,-1186 711,-1222"/>
<text text-anchor="middle" x="684" y="-1201.1" font-family="Courier,monospace" font-size="11.00">Image</text>
</a>
</g>
<!-- \\ImboClient\\Url\\Images\\Image&#45;&gt;\\ImboClient\\Url\\Images\\ImageInterface -->
<g id="edge69" class="edge"><title>\\ImboClient\\Url\\Images\\Image&#45;&gt;\\ImboClient\\Url\\Images\\ImageInterface</title>
<path fill="none" stroke="black" stroke-dasharray="1,5" d="M656.766,-1204C605.935,-1204 495.312,-1204 423.871,-1204"/>
<polygon fill="none" stroke="black" points="423.627,-1200.5 413.627,-1204 423.627,-1207.5 423.627,-1200.5"/>
</g>
<!-- \\ImboClient\\Url\\Images\\Query -->
<g id="node30" class="node"><title>\\ImboClient\\Url\\Images\\Query</title>
<a xlink:href="library.ImboClient.Url.Images.Query.html" xlink:title="Query" target="_parent">
<polygon fill="none" stroke="black" points="711,-1168 657,-1168 657,-1132 711,-1132 711,-1168"/>
<text text-anchor="middle" x="684" y="-1147.1" font-family="Courier,monospace" font-size="11.00">Query</text>
</a>
</g>
<!-- \\ImboClient\\Url\\Images\\Query&#45;&gt;\\ImboClient\\Url\\Images\\QueryInterface -->
<g id="edge71" class="edge"><title>\\ImboClient\\Url\\Images\\Query&#45;&gt;\\ImboClient\\Url\\Images\\QueryInterface</title>
<path fill="none" stroke="black" stroke-dasharray="1,5" d="M656.766,-1150C605.935,-1150 495.312,-1150 423.871,-1150"/>
<polygon fill="none" stroke="black" points="423.627,-1146.5 413.627,-1150 423.627,-1153.5 423.627,-1146.5"/>
</g>
<!-- \\ImboClient\\Url\\UrlTest -->
<g id="node31" class="node"><title>\\ImboClient\\Url\\UrlTest</title>
<a xlink:href="tests.ImboClient.Url.UrlTest.html" xlink:title="UrlTest" target="_parent">
<polygon fill="none" stroke="black" points="716,-466 652,-466 652,-430 716,-430 716,-466"/>
<text text-anchor="middle" x="684" y="-445.1" font-family="Courier,monospace" font-size="11.00">UrlTest</text>
</a>
</g>
<!-- \\ImboClient\\Url\\UrlTest&#45;&gt;\\PHPUnit_Framework_TestCase -->
<g id="edge15" class="edge"><title>\\ImboClient\\Url\\UrlTest&#45;&gt;\\PHPUnit_Framework_TestCase</title>
<path fill="none" stroke="black" d="M651.612,-447.636C629.933,-445.589 602.455,-439.193 586,-421 472.291,-295.28 642.19,-164.539 522,-45 517.234,-40.2594 511.977,-36.1581 506.358,-32.6189"/>
<polygon fill="none" stroke="black" points="507.682,-29.3489 497.249,-27.5089 504.258,-35.4539 507.682,-29.3489"/>
</g>
<!-- \\ImboClient\\Url\\UrlImplementation -->
<g id="node32" class="node"><title>\\ImboClient\\Url\\UrlImplementation</title>
<a xlink:href="tests.ImboClient.Url.UrlTest.html" xlink:title="UrlImplementation" target="_parent">
<polygon fill="none" stroke="black" points="749,-898 619,-898 619,-862 749,-862 749,-898"/>
<text text-anchor="middle" x="684" y="-877.1" font-family="Courier,monospace" font-size="11.00">UrlImplementation</text>
</a>
</g>
<!-- \\ImboClient\\Url\\Url -->
<g id="node43" class="node"><title>\\ImboClient\\Url\\Url</title>
<a xlink:href="library.ImboClient.Url.Url.html" xlink:title="«abstract»&lt;br/&gt;Url" target="_parent">
<polygon fill="none" stroke="black" points="400,-898 316,-898 316,-862 400,-862 400,-898"/>
<text text-anchor="start" x="324" y="-885.433" font-family="Courier,monospace" font-size="11.00">«abstract»</text>
<text text-anchor="start" x="347.5" y="-872.233" font-family="Courier,monospace" font-size="11.00">Url</text>
</a>
</g>
<!-- \\ImboClient\\Url\\UrlImplementation&#45;&gt;\\ImboClient\\Url\\Url -->
<g id="edge17" class="edge"><title>\\ImboClient\\Url\\UrlImplementation&#45;&gt;\\ImboClient\\Url\\Url</title>
<path fill="none" stroke="black" d="M618.421,-880C557.333,-880 467.409,-880 410.812,-880"/>
<polygon fill="none" stroke="black" points="410.647,-876.5 400.647,-880 410.647,-883.5 410.647,-876.5"/>
</g>
<!-- \\ImboClient\\Url\\UserTest -->
<g id="node33" class="node"><title>\\ImboClient\\Url\\UserTest</title>
<a xlink:href="tests.ImboClient.Url.UserTest.html" xlink:title="UserTest" target="_parent">
<polygon fill="none" stroke="black" points="719,-412 649,-412 649,-376 719,-376 719,-412"/>
<text text-anchor="middle" x="684" y="-391.1" font-family="Courier,monospace" font-size="11.00">UserTest</text>
</a>
</g>
<!-- \\ImboClient\\Url\\UserTest&#45;&gt;\\PHPUnit_Framework_TestCase -->
<g id="edge23" class="edge"><title>\\ImboClient\\Url\\UserTest&#45;&gt;\\PHPUnit_Framework_TestCase</title>
<path fill="none" stroke="black" d="M648.462,-393.14C627.423,-390.705 601.863,-384.059 586,-367 486.64,-260.147 626.864,-146.456 522,-45 517.169,-40.3257 511.858,-36.2785 506.197,-32.7831"/>
<polygon fill="none" stroke="black" points="507.476,-29.492 497.028,-27.7335 504.099,-35.6236 507.476,-29.492"/>
</g>
<!-- \\ImboClient\\Url\\AccessTokenTest -->
<g id="node34" class="node"><title>\\ImboClient\\Url\\AccessTokenTest</title>
<a xlink:href="tests.ImboClient.Url.AccessTokenTest.html" xlink:title="AccessTokenTest" target="_parent">
<polygon fill="none" stroke="black" points="743,-358 625,-358 625,-322 743,-322 743,-358"/>
<text text-anchor="middle" x="684" y="-337.1" font-family="Courier,monospace" font-size="11.00">AccessTokenTest</text>
</a>
</g>
<!-- \\ImboClient\\Url\\AccessTokenTest&#45;&gt;\\PHPUnit_Framework_TestCase -->
<g id="edge25" class="edge"><title>\\ImboClient\\Url\\AccessTokenTest&#45;&gt;\\PHPUnit_Framework_TestCase</title>
<path fill="none" stroke="black" d="M624.934,-334.323C610.56,-330.311 596.362,-323.725 586,-313 500.911,-224.93 611.622,-128.454 522,-45 516.892,-40.2437 511.286,-36.1451 505.32,-32.6225"/>
<polygon fill="none" stroke="black" points="506.814,-29.4532 496.339,-27.864 503.537,-35.6386 506.814,-29.4532"/>
</g>
<!-- \\ImboClient\\Url\\MetadataTest -->
<g id="node35" class="node"><title>\\ImboClient\\Url\\MetadataTest</title>
<a xlink:href="tests.ImboClient.Url.MetadataTest.html" xlink:title="MetadataTest" target="_parent">
<polygon fill="none" stroke="black" points="733,-304 635,-304 635,-268 733,-268 733,-304"/>
<text text-anchor="middle" x="684" y="-283.1" font-family="Courier,monospace" font-size="11.00">MetadataTest</text>
</a>
</g>
<!-- \\ImboClient\\Url\\MetadataTest&#45;&gt;\\PHPUnit_Framework_TestCase -->
<g id="edge27" class="edge"><title>\\ImboClient\\Url\\MetadataTest&#45;&gt;\\PHPUnit_Framework_TestCase</title>
<path fill="none" stroke="black" d="M634.861,-284.989C617.519,-282.252 599.097,-276.29 586,-264 512.056,-194.608 597.913,-112.231 522,-45 516.63,-40.2441 510.756,-36.1572 504.528,-32.6543"/>
<polygon fill="none" stroke="black" points="505.67,-29.3103 495.165,-27.9301 502.516,-35.5598 505.67,-29.3103"/>
</g>
<!-- \\ImboClient\\Url\\ImageTest -->
<g id="node36" class="node"><title>\\ImboClient\\Url\\ImageTest</title>
<a xlink:href="tests.ImboClient.Url.ImageTest.html" xlink:title="ImageTest" target="_parent">
<polygon fill="none" stroke="black" points="722,-628 646,-628 646,-592 722,-592 722,-628"/>
<text text-anchor="middle" x="684" y="-607.1" font-family="Courier,monospace" font-size="11.00">ImageTest</text>
</a>
</g>
<!-- \\ImboClient\\Url\\ImageTest&#45;&gt;\\PHPUnit_Framework_TestCase -->
<g id="edge29" class="edge"><title>\\ImboClient\\Url\\ImageTest&#45;&gt;\\PHPUnit_Framework_TestCase</title>
<path fill="none" stroke="black" d="M645.067,-609.227C624.464,-606.665 600.497,-599.861 586,-583 429.008,-400.417 688.416,-219.038 522,-45 517.485,-40.2782 512.486,-36.1804 507.123,-32.6331"/>
<polygon fill="none" stroke="black" points="508.808,-29.5632 498.415,-27.5016 505.254,-35.5939 508.808,-29.5632"/>
</g>
<!-- \\ImboClient\\Url\\StatusTest -->
<g id="node37" class="node"><title>\\ImboClient\\Url\\StatusTest</title>
<a xlink:href="tests.ImboClient.Url.StatusTest.html" xlink:title="StatusTest" target="_parent">
<polygon fill="none" stroke="black" points="726,-574 642,-574 642,-538 726,-538 726,-574"/>
<text text-anchor="middle" x="684" y="-553.1" font-family="Courier,monospace" font-size="11.00">StatusTest</text>
</a>
</g>
<!-- \\ImboClient\\Url\\StatusTest&#45;&gt;\\PHPUnit_Framework_TestCase -->
<g id="edge31" class="edge"><title>\\ImboClient\\Url\\StatusTest&#45;&gt;\\PHPUnit_Framework_TestCase</title>
<path fill="none" stroke="black" d="M641.693,-554.683C621.942,-551.782 599.796,-544.834 586,-529 443.461,-365.401 672.979,-200.843 522,-45 517.388,-40.2398 512.284,-36.1164 506.813,-32.5539"/>
<polygon fill="none" stroke="black" points="508.337,-29.3924 497.93,-27.4065 504.828,-35.4489 508.337,-29.3924"/>
</g>
<!-- \\ImboClient\\Url\\ImagesTest -->
<g id="node38" class="node"><title>\\ImboClient\\Url\\ImagesTest</title>
<a xlink:href="tests.ImboClient.Url.ImagesTest.html" xlink:title="ImagesTest" target="_parent">
<polygon fill="none" stroke="black" points="726,-520 642,-520 642,-484 726,-484 726,-520"/>
<text text-anchor="middle" x="684" y="-499.1" font-family="Courier,monospace" font-size="11.00">ImagesTest</text>
</a>
</g>
<!-- \\ImboClient\\Url\\ImagesTest&#45;&gt;\\PHPUnit_Framework_TestCase -->
<g id="edge33" class="edge"><title>\\ImboClient\\Url\\ImagesTest&#45;&gt;\\PHPUnit_Framework_TestCase</title>
<path fill="none" stroke="black" d="M641.804,-500.586C622.079,-497.661 599.924,-490.721 586,-475 457.893,-330.359 657.567,-182.674 522,-45 517.35,-40.2775 512.214,-36.185 506.717,-32.6476"/>
<polygon fill="none" stroke="black" points="508.215,-29.4723 497.799,-27.5349 504.733,-35.5451 508.215,-29.4723"/>
</g>
<!-- \\ImboClient\\Url\\Images -->
<g id="node39" class="node"><title>\\ImboClient\\Url\\Images</title>
<a xlink:href="library.ImboClient.Url.Images.html" xlink:title="Images" target="_parent">
<polygon fill="none" stroke="black" points="712,-844 656,-844 656,-808 712,-808 712,-844"/>
<text text-anchor="middle" x="684" y="-823.1" font-family="Courier,monospace" font-size="11.00">Images</text>
</a>
</g>
<!-- \\ImboClient\\Url\\Images&#45;&gt;\\ImboClient\\Url\\Url -->
<g id="edge43" class="edge"><title>\\ImboClient\\Url\\Images&#45;&gt;\\ImboClient\\Url\\Url</title>
<path fill="none" stroke="black" d="M655.355,-830.745C600.563,-839.821 480.179,-859.762 410.555,-871.295"/>
<polygon fill="none" stroke="black" points="409.958,-867.846 400.665,-872.933 411.102,-874.752 409.958,-867.846"/>
</g>
<!-- \\ImboClient\\Url\\UrlInterface -->
<g id="node44" class="node"><title>\\ImboClient\\Url\\UrlInterface</title>
<a xlink:href="library.ImboClient.Url.UrlInterface.html" xlink:title="UrlInterface" target="_parent">
<polygon fill="none" stroke="black" points="122,-925 24,-925 24,-889 122,-889 122,-925"/>
<text text-anchor="middle" x="73" y="-904.1" font-family="Courier,monospace" font-size="11.00">UrlInterface</text>
</a>
</g>
<!-- \\ImboClient\\Url\\Images&#45;&gt;\\ImboClient\\Url\\UrlInterface -->
<g id="edge63" class="edge"><title>\\ImboClient\\Url\\Images&#45;&gt;\\ImboClient\\Url\\UrlInterface</title>
<path fill="none" stroke="black" stroke-dasharray="1,5" d="M655.25,-817.855C597.946,-802.878 465.737,-774.633 358,-799"/>
</g>
<!-- \\ImboClient\\Url\\Status -->
<g id="node40" class="node"><title>\\ImboClient\\Url\\Status</title>
<a xlink:href="library.ImboClient.Url.Status.html" xlink:title="Status" target="_parent">
<polygon fill="none" stroke="black" points="712,-790 656,-790 656,-754 712,-754 712,-790"/>
<text text-anchor="middle" x="684" y="-769.1" font-family="Courier,monospace" font-size="11.00">Status</text>
</a>
</g>
<!-- \\ImboClient\\Url\\Status&#45;&gt;\\ImboClient\\Url\\Url -->
<g id="edge45" class="edge"><title>\\ImboClient\\Url\\Status&#45;&gt;\\ImboClient\\Url\\Url</title>
<path fill="none" stroke="black" d="M655.108,-779.371C635.506,-784.515 609.061,-791.737 586,-799 525.028,-818.202 455.979,-843.197 410,-860.313"/>
<polygon fill="none" stroke="black" points="408.695,-857.064 400.55,-863.841 411.143,-863.622 408.695,-857.064"/>
</g>
<!-- \\ImboClient\\Url\\Status&#45;&gt;\\ImboClient\\Url\\UrlInterface -->
<g id="edge65" class="edge"><title>\\ImboClient\\Url\\Status&#45;&gt;\\ImboClient\\Url\\UrlInterface</title>
<path fill="none" stroke="black" stroke-dasharray="1,5" d="M655.25,-771.707C597.946,-771.707 465.737,-774.633 358,-799"/>
</g>
<!-- \\ImboClient\\Url\\ImageInterface -->
<g id="node41" class="node"><title>\\ImboClient\\Url\\ImageInterface</title>
<a xlink:href="library.ImboClient.Url.ImageInterface.html" xlink:title="ImageInterface" target="_parent">
<polygon fill="none" stroke="black" points="413,-952 303,-952 303,-916 413,-916 413,-952"/>
<text text-anchor="middle" x="358" y="-931.1" font-family="Courier,monospace" font-size="11.00">ImageInterface</text>
</a>
</g>
<!-- \\ImboClient\\Url\\ImageInterface&#45;&gt;\\ImboClient\\Url\\UrlInterface -->
<g id="edge47" class="edge"><title>\\ImboClient\\Url\\ImageInterface&#45;&gt;\\ImboClient\\Url\\UrlInterface</title>
<path fill="none" stroke="black" d="M302.373,-928.73C253.421,-924.093 182.354,-917.36 132.327,-912.62"/>
<polygon fill="none" stroke="black" points="132.587,-909.129 122.301,-911.671 131.927,-916.098 132.587,-909.129"/>
</g>
<!-- \\ImboClient\\Url\\AccessTokenInterface -->
<g id="node42" class="node"><title>\\ImboClient\\Url\\AccessTokenInterface</title>
<a xlink:href="library.ImboClient.Url.AccessTokenInterface.html" xlink:title="AccessTokenInterface" target="_parent">
<polygon fill="none" stroke="black" points="434,-682 282,-682 282,-646 434,-646 434,-682"/>
<text text-anchor="middle" x="358" y="-661.1" font-family="Courier,monospace" font-size="11.00">AccessTokenInterface</text>
</a>
</g>
<!-- \\ImboClient\\Url\\Url&#45;&gt;\\ImboClient\\Url\\UrlInterface -->
<g id="edge67" class="edge"><title>\\ImboClient\\Url\\Url&#45;&gt;\\ImboClient\\Url\\UrlInterface</title>
<path fill="none" stroke="black" stroke-dasharray="1,5" d="M315.333,-884.042C266.754,-888.644 187.068,-896.194 132.425,-901.37"/>
<polygon fill="none" stroke="black" points="131.812,-897.913 122.187,-902.34 132.473,-904.881 131.812,-897.913"/>
</g>
<!-- \\ImboClient\\Url\\User -->
<g id="node45" class="node"><title>\\ImboClient\\Url\\User</title>
<a xlink:href="library.ImboClient.Url.User.html" xlink:title="User" target="_parent">
<polygon fill="none" stroke="black" points="711,-736 657,-736 657,-700 711,-700 711,-736"/>
<text text-anchor="middle" x="684" y="-715.1" font-family="Courier,monospace" font-size="11.00">User</text>
</a>
</g>
<!-- \\ImboClient\\Url\\User&#45;&gt;\\ImboClient\\Url\\Url -->
<g id="edge49" class="edge"><title>\\ImboClient\\Url\\User&#45;&gt;\\ImboClient\\Url\\Url</title>
<path fill="none" stroke="black" d="M656.898,-721.899C636.449,-725.664 608.218,-732.665 586,-745 552.176,-763.778 554.16,-782.497 522,-804 486.979,-827.416 443.588,-847.173 410.237,-860.67"/>
<polygon fill="none" stroke="black" points="408.665,-857.528 400.671,-864.481 411.257,-864.031 408.665,-857.528"/>
</g>
<!-- \\ImboClient\\Url\\User&#45;&gt;\\ImboClient\\Url\\UrlInterface -->
<g id="edge73" class="edge"><title>\\ImboClient\\Url\\User&#45;&gt;\\ImboClient\\Url\\UrlInterface</title>
<path fill="none" stroke="black" stroke-dasharray="1,5" d="M656.616,-725.219C600.682,-739.873 469.203,-773.849 358,-799"/>
<path fill="none" stroke="black" stroke-dasharray="1,5" d="M358,-799C271.16,-818.641 175.35,-859.121 119.879,-884.561"/>
<polygon fill="none" stroke="black" points="118.276,-881.446 110.666,-888.818 121.212,-887.8 118.276,-881.446"/>
</g>
<!-- \\ImboClient\\Url\\Metadata -->
<g id="node46" class="node"><title>\\ImboClient\\Url\\Metadata</title>
<a xlink:href="library.ImboClient.Url.Metadata.html" xlink:title="Metadata" target="_parent">
<polygon fill="none" stroke="black" points="719,-1006 649,-1006 649,-970 719,-970 719,-1006"/>
<text text-anchor="middle" x="684" y="-985.1" font-family="Courier,monospace" font-size="11.00">Metadata</text>
</a>
</g>
<!-- \\ImboClient\\Url\\Metadata&#45;&gt;\\ImboClient\\Url\\Url -->
<g id="edge51" class="edge"><title>\\ImboClient\\Url\\Metadata&#45;&gt;\\ImboClient\\Url\\Url</title>
<path fill="none" stroke="black" d="M648.146,-982.002C628.959,-977.853 605.361,-971.199 586,-961 553.073,-943.654 555.797,-922.583 522,-907 486.972,-890.85 443.81,-884.204 410.559,-881.54"/>
<polygon fill="none" stroke="black" points="410.8,-878.049 400.578,-880.836 410.306,-885.031 410.8,-878.049"/>
</g>
<!-- \\ImboClient\\Url\\Metadata&#45;&gt;\\ImboClient\\Url\\UrlInterface -->
<g id="edge75" class="edge"><title>\\ImboClient\\Url\\Metadata&#45;&gt;\\ImboClient\\Url\\UrlInterface</title>
<path fill="none" stroke="black" stroke-dasharray="1,5" d="M648.305,-990.408C566.56,-994.981 360.032,-1001.17 194,-961 166.095,-954.248 136.64,-941.245 113.778,-929.691"/>
<polygon fill="none" stroke="black" points="115.217,-926.495 104.726,-925.018 112.006,-932.715 115.217,-926.495"/>
</g>
<!-- \\ImboClient\\Url\\Image -->
<g id="node47" class="node"><title>\\ImboClient\\Url\\Image</title>
<a xlink:href="library.ImboClient.Url.Image.html" xlink:title="Image" target="_parent">
<polygon fill="none" stroke="black" points="711,-952 657,-952 657,-916 711,-916 711,-952"/>
<text text-anchor="middle" x="684" y="-931.1" font-family="Courier,monospace" font-size="11.00">Image</text>
</a>
</g>
<!-- \\ImboClient\\Url\\Image&#45;&gt;\\ImboClient\\Url\\ImageInterface -->
<g id="edge77" class="edge"><title>\\ImboClient\\Url\\Image&#45;&gt;\\ImboClient\\Url\\ImageInterface</title>
<path fill="none" stroke="black" stroke-dasharray="1,5" d="M656.766,-934C605.935,-934 495.312,-934 423.871,-934"/>
<polygon fill="none" stroke="black" points="423.627,-930.5 413.627,-934 423.627,-937.5 423.627,-930.5"/>
</g>
<!-- \\ImboClient\\Url\\Image&#45;&gt;\\ImboClient\\Url\\Url -->
<g id="edge53" class="edge"><title>\\ImboClient\\Url\\Image&#45;&gt;\\ImboClient\\Url\\Url</title>
<path fill="none" stroke="black" d="M656.772,-929.445C624.585,-924.065 569.398,-914.852 522,-907 484.882,-900.851 443.03,-893.962 410.895,-888.681"/>
<polygon fill="none" stroke="black" points="411.257,-885.194 400.822,-887.026 410.122,-892.101 411.257,-885.194"/>
</g>
<!-- \\ImboClient\\Url\\AccessToken -->
<g id="node48" class="node"><title>\\ImboClient\\Url\\AccessToken</title>
<a xlink:href="library.ImboClient.Url.AccessToken.html" xlink:title="AccessToken" target="_parent">
<polygon fill="none" stroke="black" points="729,-682 639,-682 639,-646 729,-646 729,-682"/>
<text text-anchor="middle" x="684" y="-661.1" font-family="Courier,monospace" font-size="11.00">AccessToken</text>
</a>
</g>
<!-- \\ImboClient\\Url\\AccessToken&#45;&gt;\\ImboClient\\Url\\AccessTokenInterface -->
<g id="edge79" class="edge"><title>\\ImboClient\\Url\\AccessToken&#45;&gt;\\ImboClient\\Url\\AccessTokenInterface</title>
<path fill="none" stroke="black" stroke-dasharray="1,5" d="M638.328,-664C588.198,-664 506.572,-664 444.296,-664"/>
<polygon fill="none" stroke="black" points="444.084,-660.5 434.084,-664 444.084,-667.5 444.084,-660.5"/>
</g>
<!-- \\ImboClient\\ClientTest -->
<g id="node50" class="node"><title>\\ImboClient\\ClientTest</title>
<a xlink:href="tests.ImboClient.ClientTest.html" xlink:title="ClientTest" target="_parent">
<polygon fill="none" stroke="black" points="726,-250 642,-250 642,-214 726,-214 726,-250"/>
<text text-anchor="middle" x="684" y="-229.1" font-family="Courier,monospace" font-size="11.00">ClientTest</text>
</a>
</g>
<!-- \\ImboClient\\ClientTest&#45;&gt;\\PHPUnit_Framework_TestCase -->
<g id="edge13" class="edge"><title>\\ImboClient\\ClientTest&#45;&gt;\\PHPUnit_Framework_TestCase</title>
<path fill="none" stroke="black" d="M641.822,-228.85C622.813,-225.468 601.261,-218.645 586,-205 528.906,-153.95 581.711,-92.9637 522,-45 516.045,-40.2169 509.569,-36.1343 502.742,-32.6584"/>
<polygon fill="none" stroke="black" points="503.78,-29.2833 493.232,-28.2858 500.856,-35.6432 503.78,-29.2833"/>
</g>
<!-- \\ImboClient\\Client -->
<g id="node51" class="node"><title>\\ImboClient\\Client</title>
<a xlink:href="library.ImboClient.Client.html" xlink:title="Client" target="_parent">
<polygon fill="none" stroke="black" points="712,-1844 656,-1844 656,-1808 712,-1808 712,-1844"/>
<text text-anchor="middle" x="684" y="-1823.1" font-family="Courier,monospace" font-size="11.00">Client</text>
</a>
</g>
<!-- \\ImboClient\\ClientInterface -->
<g id="node53" class="node"><title>\\ImboClient\\ClientInterface</title>
<a xlink:href="library.ImboClient.ClientInterface.html" xlink:title="ClientInterface" target="_parent">
<polygon fill="none" stroke="black" points="417,-1844 299,-1844 299,-1808 417,-1808 417,-1844"/>
<text text-anchor="middle" x="358" y="-1823.1" font-family="Courier,monospace" font-size="11.00">ClientInterface</text>
</a>
</g>
<!-- \\ImboClient\\Client&#45;&gt;\\ImboClient\\ClientInterface -->
<g id="edge61" class="edge"><title>\\ImboClient\\Client&#45;&gt;\\ImboClient\\ClientInterface</title>
<path fill="none" stroke="black" stroke-dasharray="1,5" d="M655.355,-1826C604.709,-1826 498.024,-1826 427.183,-1826"/>
<polygon fill="none" stroke="black" points="427.002,-1822.5 417.002,-1826 427.002,-1829.5 427.002,-1822.5"/>
</g>
<!-- \\ImboClient\\Version -->
<g id="node52" class="node"><title>\\ImboClient\\Version</title>
<a xlink:href="library.ImboClient.Version.html" xlink:title="Version" target="_parent">
<polygon fill="none" stroke="black" points="716,-196 652,-196 652,-160 716,-160 716,-196"/>
<text text-anchor="middle" x="684" y="-175.1" font-family="Courier,monospace" font-size="11.00">Version</text>
</a>
</g>
</g>
</svg>
