<?xml version="1.0" encoding="UTF-8" standalone="no"?>
<!DOCTYPE svg PUBLIC "-//W3C//DTD SVG 1.1//EN"
 "http://www.w3.org/Graphics/SVG/1.1/DTD/svg11.dtd">
<!-- Generated by graphviz version 2.26.3 (20100126.1600)
 -->
<!-- Title: G Pages: 1 -->
<svg width="406pt" height="1216pt"
 viewBox="0.00 0.00 406.00 1216.00" xmlns="http://www.w3.org/2000/svg" xmlns:xlink="http://www.w3.org/1999/xlink">
<g id="graph1" class="graph" transform="scale(1 1) rotate(0) translate(4 1212)">
<title>G</title>
<polygon fill="white" stroke="white" points="-4,5 -4,-1212 403,-1212 403,5 -4,5"/>
<g id="graph2" class="cluster"><title>cluster_ImboClient</title>
<polyline fill="none" stroke="gray" points="20,-8 378,-8 "/>
<path fill="none" stroke="gray" d="M378,-8C384,-8 390,-14 390,-20"/>
<polyline fill="none" stroke="gray" points="390,-20 390,-1188 "/>
<path fill="none" stroke="gray" d="M390,-1188C390,-1194 384,-1200 378,-1200"/>
<polyline fill="none" stroke="gray" points="378,-1200 20,-1200 "/>
<path fill="none" stroke="gray" d="M20,-1200C14,-1200 8,-1194 8,-1188"/>
<polyline fill="none" stroke="gray" points="8,-1188 8,-20 "/>
<path fill="none" stroke="gray" d="M8,-20C8,-14 14,-8 20,-8"/>
<text text-anchor="middle" x="199" y="-1186.1" font-family="Times Roman,serif" font-size="11.00" fill="gray">ImboClient</text>
</g>
<g id="graph3" class="cluster"><title>cluster_ImboClient\Driver</title>
<polyline fill="none" stroke="gray" points="229,-1042 339,-1042 "/>
<path fill="none" stroke="gray" d="M339,-1042C345,-1042 351,-1048 351,-1054"/>
<polyline fill="none" stroke="gray" points="351,-1054 351,-1158 "/>
<path fill="none" stroke="gray" d="M351,-1158C351,-1164 345,-1170 339,-1170"/>
<polyline fill="none" stroke="gray" points="339,-1170 229,-1170 "/>
<path fill="none" stroke="gray" d="M229,-1170C223,-1170 217,-1164 217,-1158"/>
<polyline fill="none" stroke="gray" points="217,-1158 217,-1054 "/>
<path fill="none" stroke="gray" d="M217,-1054C217,-1048 223,-1042 229,-1042"/>
<text text-anchor="middle" x="284" y="-1156.1" font-family="Times Roman,serif" font-size="11.00" fill="gray">Driver</text>
</g>
<g id="graph4" class="cluster"><title>cluster_ImboClient\Http</title>
<polyline fill="none" stroke="gray" points="198,-768 370,-768 "/>
<path fill="none" stroke="gray" d="M370,-768C376,-768 382,-774 382,-780"/>
<polyline fill="none" stroke="gray" points="382,-780 382,-1022 "/>
<path fill="none" stroke="gray" d="M382,-1022C382,-1028 376,-1034 370,-1034"/>
<polyline fill="none" stroke="gray" points="370,-1034 198,-1034 "/>
<path fill="none" stroke="gray" d="M198,-1034C192,-1034 186,-1028 186,-1022"/>
<polyline fill="none" stroke="gray" points="186,-1022 186,-780 "/>
<path fill="none" stroke="gray" d="M186,-780C186,-774 192,-768 198,-768"/>
<text text-anchor="middle" x="284" y="-1020.1" font-family="Times Roman,serif" font-size="11.00" fill="gray">Http</text>
</g>
<g id="graph5" class="cluster"><title>cluster_ImboClient\Http\Response</title>
<polyline fill="none" stroke="gray" points="222,-876 346,-876 "/>
<path fill="none" stroke="gray" d="M346,-876C352,-876 358,-882 358,-888"/>
<polyline fill="none" stroke="gray" points="358,-888 358,-992 "/>
<path fill="none" stroke="gray" d="M358,-992C358,-998 352,-1004 346,-1004"/>
<polyline fill="none" stroke="gray" points="346,-1004 222,-1004 "/>
<path fill="none" stroke="gray" d="M222,-1004C216,-1004 210,-998 210,-992"/>
<polyline fill="none" stroke="gray" points="210,-992 210,-888 "/>
<path fill="none" stroke="gray" d="M210,-888C210,-882 216,-876 222,-876"/>
<text text-anchor="middle" x="284" y="-990.1" font-family="Times Roman,serif" font-size="11.00" fill="gray">Response</text>
</g>
<g id="graph7" class="cluster"><title>cluster_ImboClient\Url</title>
<polyline fill="none" stroke="gray" points="28,-116 356,-116 "/>
<path fill="none" stroke="gray" d="M356,-116C362,-116 368,-122 368,-128"/>
<polyline fill="none" stroke="gray" points="368,-128 368,-748 "/>
<path fill="none" stroke="gray" d="M368,-748C368,-754 362,-760 356,-760"/>
<polyline fill="none" stroke="gray" points="356,-760 28,-760 "/>
<path fill="none" stroke="gray" d="M28,-760C22,-760 16,-754 16,-748"/>
<polyline fill="none" stroke="gray" points="16,-748 16,-128 "/>
<path fill="none" stroke="gray" d="M16,-128C16,-122 22,-116 28,-116"/>
<text text-anchor="middle" x="192" y="-746.1" font-family="Times Roman,serif" font-size="11.00" fill="gray">Url</text>
</g>
<g id="graph8" class="cluster"><title>cluster_ImboClient\Url\Images</title>
<polyline fill="none" stroke="gray" points="232,-494 336,-494 "/>
<path fill="none" stroke="gray" d="M336,-494C342,-494 348,-500 348,-506"/>
<polyline fill="none" stroke="gray" points="348,-506 348,-718 "/>
<path fill="none" stroke="gray" d="M348,-718C348,-724 342,-730 336,-730"/>
<polyline fill="none" stroke="gray" points="336,-730 232,-730 "/>
<path fill="none" stroke="gray" d="M232,-730C226,-730 220,-724 220,-718"/>
<polyline fill="none" stroke="gray" points="220,-718 220,-506 "/>
<path fill="none" stroke="gray" d="M220,-506C220,-500 226,-494 232,-494"/>
<text text-anchor="middle" x="284" y="-716.1" font-family="Times Roman,serif" font-size="11.00" fill="gray">Images</text>
</g>
<!-- \\ImboClient\\Driver\\DriverInterface -->
<g id="node3" class="node"><title>\\ImboClient\\Driver\\DriverInterface</title>
<a xlink:href="db_Driver_DriverInterface.html" xlink:title="DriverInterface" target="_parent">
<polygon fill="none" stroke="black" points="343,-1140 225,-1140 225,-1104 343,-1104 343,-1140"/>
<text text-anchor="middle" x="284" y="-1119.1" font-family="Courier,monospace" font-size="11.00">DriverInterface</text>
</a>
</g>
<!-- \\ImboClient\\Driver\\Curl -->
<g id="node4" class="node"><title>\\ImboClient\\Driver\\Curl</title>
<a xlink:href="db_Driver_Curl.html" xlink:title="Curl" target="_parent">
<polygon fill="none" stroke="black" points="311,-1086 257,-1086 257,-1050 311,-1050 311,-1086"/>
<text text-anchor="middle" x="284" y="-1065.1" font-family="Courier,monospace" font-size="11.00">Curl</text>
</a>
</g>
<!-- \\ImboClient\\Http\\Response\\Response -->
<g id="node7" class="node"><title>\\ImboClient\\Http\\Response\\Response</title>
<a xlink:href="db_Http_Response_Response.html" xlink:title="Response" target="_parent">
<polygon fill="none" stroke="black" points="319,-974 249,-974 249,-938 319,-938 319,-974"/>
<text text-anchor="middle" x="284" y="-953.1" font-family="Courier,monospace" font-size="11.00">Response</text>
</a>
</g>
<!-- \\ImboClient\\Http\\Response\\ResponseInterface -->
<g id="node8" class="node"><title>\\ImboClient\\Http\\Response\\ResponseInterface</title>
<a xlink:href="db_Http_Response_ResponseInterface.html" xlink:title="ResponseInterface" target="_parent">
<polygon fill="none" stroke="black" points="349,-920 219,-920 219,-884 349,-884 349,-920"/>
<text text-anchor="middle" x="284" y="-899.1" font-family="Courier,monospace" font-size="11.00">ResponseInterface</text>
</a>
</g>
<!-- \\ImboClient\\Http\\HeaderContainerInterface -->
<g id="node9" class="node"><title>\\ImboClient\\Http\\HeaderContainerInterface</title>
<a xlink:href="db_Http_HeaderContainerInterface.html" xlink:title="HeaderContainerInterface" target="_parent">
<polygon fill="none" stroke="black" points="373,-866 195,-866 195,-830 373,-830 373,-866"/>
<text text-anchor="middle" x="284" y="-845.1" font-family="Courier,monospace" font-size="11.00">HeaderContainerInterface</text>
</a>
</g>
<!-- \\ImboClient\\Http\\HeaderContainer -->
<g id="node10" class="node"><title>\\ImboClient\\Http\\HeaderContainer</title>
<a xlink:href="db_Http_HeaderContainer.html" xlink:title="HeaderContainer" target="_parent">
<polygon fill="none" stroke="black" points="343,-812 225,-812 225,-776 343,-776 343,-812"/>
<text text-anchor="middle" x="284" y="-791.1" font-family="Courier,monospace" font-size="11.00">HeaderContainer</text>
</a>
</g>
<!-- \\ImboClient\\Url\\Images\\Image -->
<g id="node14" class="node"><title>\\ImboClient\\Url\\Images\\Image</title>
<a xlink:href="db_Url_Images_Image.html" xlink:title="Image" target="_parent">
<polygon fill="none" stroke="black" points="311,-700 257,-700 257,-664 311,-664 311,-700"/>
<text text-anchor="middle" x="284" y="-679.1" font-family="Courier,monospace" font-size="11.00">Image</text>
</a>
</g>
<!-- \\ImboClient\\Url\\Images\\ImageInterface -->
<g id="node15" class="node"><title>\\ImboClient\\Url\\Images\\ImageInterface</title>
<a xlink:href="db_Url_Images_ImageInterface.html" xlink:title="ImageInterface" target="_parent">
<polygon fill="none" stroke="black" points="339,-646 229,-646 229,-610 339,-610 339,-646"/>
<text text-anchor="middle" x="284" y="-625.1" font-family="Courier,monospace" font-size="11.00">ImageInterface</text>
</a>
</g>
<!-- \\ImboClient\\Url\\Images\\QueryInterface -->
<g id="node16" class="node"><title>\\ImboClient\\Url\\Images\\QueryInterface</title>
<a xlink:href="db_Url_Images_QueryInterface.html" xlink:title="QueryInterface" target="_parent">
<polygon fill="none" stroke="black" points="339,-592 229,-592 229,-556 339,-556 339,-592"/>
<text text-anchor="middle" x="284" y="-571.1" font-family="Courier,monospace" font-size="11.00">QueryInterface</text>
</a>
</g>
<!-- \\ImboClient\\Url\\Images\\Query -->
<g id="node17" class="node"><title>\\ImboClient\\Url\\Images\\Query</title>
<a xlink:href="db_Url_Images_Query.html" xlink:title="Query" target="_parent">
<polygon fill="none" stroke="black" points="311,-538 257,-538 257,-502 311,-502 311,-538"/>
<text text-anchor="middle" x="284" y="-517.1" font-family="Courier,monospace" font-size="11.00">Query</text>
</a>
</g>
<!-- \\ImboClient\\Url\\Metadata -->
<g id="node18" class="node"><title>\\ImboClient\\Url\\Metadata</title>
<a xlink:href="db_Url_Metadata.html" xlink:title="Metadata" target="_parent">
<polygon fill="none" stroke="black" points="319,-484 249,-484 249,-448 319,-448 319,-484"/>
<text text-anchor="middle" x="284" y="-463.1" font-family="Courier,monospace" font-size="11.00">Metadata</text>
</a>
</g>
<!-- \\ImboClient\\Url\\Url -->
<g id="node25" class="node"><title>\\ImboClient\\Url\\Url</title>
<a xlink:href="db_Url_Url.html" xlink:title="«abstract»&lt;br/&gt;Url" target="_parent">
<polygon fill="none" stroke="black" points="115,-403 31,-403 31,-367 115,-367 115,-403"/>
<text text-anchor="start" x="39" y="-390.433" font-family="Courier,monospace" font-size="11.00">«abstract»</text>
<text text-anchor="start" x="62.5" y="-377.233" font-family="Courier,monospace" font-size="11.00">Url</text>
</a>
</g>
<!-- \\ImboClient\\Url\\Metadata&#45;&gt;\\ImboClient\\Url\\Url -->
<g id="edge10" class="edge"><title>\\ImboClient\\Url\\Metadata&#45;&gt;\\ImboClient\\Url\\Url</title>
<path fill="none" stroke="black" d="M248.137,-457.741C229.373,-453.015 206.17,-446.53 186,-439 162.33,-430.163 136.866,-418.222 116.113,-407.816"/>
<polygon fill="none" stroke="black" points="117.435,-404.562 106.933,-403.16 114.268,-410.805 117.435,-404.562"/>
</g>
<!-- \\ImboClient\\Url\\Image -->
<g id="node19" class="node"><title>\\ImboClient\\Url\\Image</title>
<a xlink:href="db_Url_Image.html" xlink:title="Image" target="_parent">
<polygon fill="none" stroke="black" points="311,-430 257,-430 257,-394 311,-394 311,-430"/>
<text text-anchor="middle" x="284" y="-409.1" font-family="Courier,monospace" font-size="11.00">Image</text>
</a>
</g>
<!-- \\ImboClient\\Url\\Image&#45;&gt;\\ImboClient\\Url\\Url -->
<g id="edge12" class="edge"><title>\\ImboClient\\Url\\Image&#45;&gt;\\ImboClient\\Url\\Url</title>
<path fill="none" stroke="black" d="M256.847,-408.525C223.84,-404.302 167.393,-397.079 125.732,-391.748"/>
<polygon fill="none" stroke="black" points="126.113,-388.268 115.75,-390.47 125.224,-395.211 126.113,-388.268"/>
</g>
<!-- \\ImboClient\\Url\\User -->
<g id="node20" class="node"><title>\\ImboClient\\Url\\User</title>
<a xlink:href="db_Url_User.html" xlink:title="User" target="_parent">
<polygon fill="none" stroke="black" points="311,-376 257,-376 257,-340 311,-340 311,-376"/>
<text text-anchor="middle" x="284" y="-355.1" font-family="Courier,monospace" font-size="11.00">User</text>
</a>
</g>
<!-- \\ImboClient\\Url\\User&#45;&gt;\\ImboClient\\Url\\Url -->
<g id="edge14" class="edge"><title>\\ImboClient\\Url\\User&#45;&gt;\\ImboClient\\Url\\Url</title>
<path fill="none" stroke="black" d="M256.847,-361.475C223.84,-365.698 167.393,-372.921 125.732,-378.252"/>
<polygon fill="none" stroke="black" points="125.224,-374.789 115.75,-379.53 126.113,-381.732 125.224,-374.789"/>
</g>
<!-- \\ImboClient\\Url\\ImageInterface -->
<g id="node21" class="node"><title>\\ImboClient\\Url\\ImageInterface</title>
<a xlink:href="db_Url_ImageInterface.html" xlink:title="ImageInterface" target="_parent">
<polygon fill="none" stroke="black" points="339,-160 229,-160 229,-124 339,-124 339,-160"/>
<text text-anchor="middle" x="284" y="-139.1" font-family="Courier,monospace" font-size="11.00">ImageInterface</text>
</a>
</g>
<!-- \\ImboClient\\Url\\UrlInterface -->
<g id="node22" class="node"><title>\\ImboClient\\Url\\UrlInterface</title>
<a xlink:href="db_Url_UrlInterface.html" xlink:title="UrlInterface" target="_parent">
<polygon fill="none" stroke="black" points="122,-160 24,-160 24,-124 122,-124 122,-160"/>
<text text-anchor="middle" x="73" y="-139.1" font-family="Courier,monospace" font-size="11.00">UrlInterface</text>
</a>
</g>
<!-- \\ImboClient\\Url\\ImageInterface&#45;&gt;\\ImboClient\\Url\\UrlInterface -->
<g id="edge16" class="edge"><title>\\ImboClient\\Url\\ImageInterface&#45;&gt;\\ImboClient\\Url\\UrlInterface</title>
<path fill="none" stroke="black" d="M228.286,-142C198.797,-142 162.575,-142 132.533,-142"/>
<polygon fill="none" stroke="black" points="132.186,-138.5 122.186,-142 132.186,-145.5 132.186,-138.5"/>
</g>
<!-- \\ImboClient\\Url\\AccessTokenInterface -->
<g id="node23" class="node"><title>\\ImboClient\\Url\\AccessTokenInterface</title>
<a xlink:href="db_Url_AccessTokenInterface.html" xlink:title="AccessTokenInterface" target="_parent">
<polygon fill="none" stroke="black" points="360,-268 208,-268 208,-232 360,-232 360,-268"/>
<text text-anchor="middle" x="284" y="-247.1" font-family="Courier,monospace" font-size="11.00">AccessTokenInterface</text>
</a>
</g>
<!-- \\ImboClient\\Url\\AccessToken -->
<g id="node24" class="node"><title>\\ImboClient\\Url\\AccessToken</title>
<a xlink:href="db_Url_AccessToken.html" xlink:title="AccessToken" target="_parent">
<polygon fill="none" stroke="black" points="329,-214 239,-214 239,-178 329,-178 329,-214"/>
<text text-anchor="middle" x="284" y="-193.1" font-family="Courier,monospace" font-size="11.00">AccessToken</text>
</a>
</g>
<!-- \\ImboClient\\Url\\Images -->
<g id="node26" class="node"><title>\\ImboClient\\Url\\Images</title>
<a xlink:href="db_Url_Images.html" xlink:title="Images" target="_parent">
<polygon fill="none" stroke="black" points="312,-322 256,-322 256,-286 312,-286 312,-322"/>
<text text-anchor="middle" x="284" y="-301.1" font-family="Courier,monospace" font-size="11.00">Images</text>
</a>
</g>
<!-- \\ImboClient\\Url\\Images&#45;&gt;\\ImboClient\\Url\\Url -->
<g id="edge18" class="edge"><title>\\ImboClient\\Url\\Images&#45;&gt;\\ImboClient\\Url\\Url</title>
<path fill="none" stroke="black" d="M255.273,-310.492C235.511,-315.302 208.816,-322.482 186,-331 162.33,-339.837 136.866,-351.778 116.113,-362.184"/>
<polygon fill="none" stroke="black" points="114.268,-359.195 106.933,-366.84 117.435,-365.438 114.268,-359.195"/>
</g>
<!-- \\ImboClient\\Client -->
<g id="node28" class="node"><title>\\ImboClient\\Client</title>
<a xlink:href="db_Client.html" xlink:title="Client" target="_parent">
<polygon fill="none" stroke="black" points="312,-106 256,-106 256,-70 312,-70 312,-106"/>
<text text-anchor="middle" x="284" y="-85.1" font-family="Courier,monospace" font-size="11.00">Client</text>
</a>
</g>
<!-- \\ImboClient\\ClientInterface -->
<g id="node29" class="node"><title>\\ImboClient\\ClientInterface</title>
<a xlink:href="db_ClientInterface.html" xlink:title="ClientInterface" target="_parent">
<polygon fill="none" stroke="black" points="343,-52 225,-52 225,-16 343,-16 343,-52"/>
<text text-anchor="middle" x="284" y="-31.1" font-family="Courier,monospace" font-size="11.00">ClientInterface</text>
</a>
</g>
</g>
</svg>
