<?xml version="1.0" encoding="UTF-8" standalone="no"?>
<!DOCTYPE svg PUBLIC "-//W3C//DTD SVG 1.1//EN"
 "http://www.w3.org/Graphics/SVG/1.1/DTD/svg11.dtd">
<!-- Generated by graphviz version 2.26.3 (20100126.1600)
 -->
<!-- Title: G Pages: 1 -->
<svg width="1122pt" height="824pt"
 viewBox="0.00 0.00 1122.00 824.00" xmlns="http://www.w3.org/2000/svg" xmlns:xlink="http://www.w3.org/1999/xlink">
<g id="graph1" class="graph" transform="scale(1 1) rotate(0) translate(4 820)">
<title>G</title>
<polygon fill="white" stroke="white" points="-4,5 -4,-820 1119,-820 1119,5 -4,5"/>
<g id="graph2" class="cluster"><title>cluster_Global</title>
<polyline fill="none" stroke="gray" points="545,-98 1094,-98 "/>
<path fill="none" stroke="gray" d="M1094,-98C1100,-98 1106,-104 1106,-110"/>
<polyline fill="none" stroke="gray" points="1106,-110 1106,-796 "/>
<path fill="none" stroke="gray" d="M1106,-796C1106,-802 1100,-808 1094,-808"/>
<polyline fill="none" stroke="gray" points="1094,-808 545,-808 "/>
<path fill="none" stroke="gray" d="M545,-808C539,-808 533,-802 533,-796"/>
<polyline fill="none" stroke="gray" points="533,-796 533,-110 "/>
<path fill="none" stroke="gray" d="M533,-110C533,-104 539,-98 545,-98"/>
<text text-anchor="middle" x="819.5" y="-794.1" font-family="Times Roman,serif" font-size="11.00" fill="gray">\</text>
</g>
<g id="graph3" class="cluster"><title>cluster_\ImboClient</title>
<polyline fill="none" stroke="gray" points="553,-106 1086,-106 "/>
<path fill="none" stroke="gray" d="M1086,-106C1092,-106 1098,-112 1098,-118"/>
<polyline fill="none" stroke="gray" points="1098,-118 1098,-766 "/>
<path fill="none" stroke="gray" d="M1098,-766C1098,-772 1092,-778 1086,-778"/>
<polyline fill="none" stroke="gray" points="1086,-778 553,-778 "/>
<path fill="none" stroke="gray" d="M553,-778C547,-778 541,-772 541,-766"/>
<polyline fill="none" stroke="gray" points="541,-766 541,-118 "/>
<path fill="none" stroke="gray" d="M541,-118C541,-112 547,-106 553,-106"/>
<text text-anchor="middle" x="819.5" y="-764.1" font-family="Times Roman,serif" font-size="11.00" fill="gray">ImboClient</text>
</g>
<g id="graph4" class="cluster"><title>cluster_\ImboClient\Http</title>
<polyline fill="none" stroke="gray" points="561,-404 1075,-404 "/>
<path fill="none" stroke="gray" d="M1075,-404C1081,-404 1087,-410 1087,-416"/>
<polyline fill="none" stroke="gray" points="1087,-416 1087,-736 "/>
<path fill="none" stroke="gray" d="M1087,-736C1087,-742 1081,-748 1075,-748"/>
<polyline fill="none" stroke="gray" points="1075,-748 561,-748 "/>
<path fill="none" stroke="gray" d="M561,-748C555,-748 549,-742 549,-736"/>
<polyline fill="none" stroke="gray" points="549,-736 549,-416 "/>
<path fill="none" stroke="gray" d="M549,-416C549,-410 555,-404 561,-404"/>
<text text-anchor="middle" x="818" y="-734.1" font-family="Times Roman,serif" font-size="11.00" fill="gray">Http</text>
</g>
<g id="graph5" class="cluster"><title>cluster_\ImboClient\EventSubscriber</title>
<polyline fill="none" stroke="gray" points="988,-268 1078,-268 "/>
<path fill="none" stroke="gray" d="M1078,-268C1084,-268 1090,-274 1090,-280"/>
<polyline fill="none" stroke="gray" points="1090,-280 1090,-384 "/>
<path fill="none" stroke="gray" d="M1090,-384C1090,-390 1084,-396 1078,-396"/>
<polyline fill="none" stroke="gray" points="1078,-396 988,-396 "/>
<path fill="none" stroke="gray" d="M988,-396C982,-396 976,-390 976,-384"/>
<polyline fill="none" stroke="gray" points="976,-384 976,-280 "/>
<path fill="none" stroke="gray" d="M976,-280C976,-274 982,-268 988,-268"/>
<text text-anchor="middle" x="1033" y="-382.1" font-family="Times Roman,serif" font-size="11.00" fill="gray">EventSubscriber</text>
</g>
<!-- \\ImboClient\\Http\\MetadataUrl -->
<g id="node4" class="node"><title>\\ImboClient\\Http\\MetadataUrl</title>
<polygon fill="none" stroke="black" points="1078,-718 988,-718 988,-682 1078,-682 1078,-718"/>
<text text-anchor="middle" x="1033" y="-697.1" font-family="Courier,monospace" font-size="11.00">MetadataUrl</text>
</g>
<!-- \\ImboClient\\Http\\Url -->
<g id="node8" class="node"><title>\\ImboClient\\Http\\Url</title>
<polygon fill="none" stroke="black" points="611,-583 557,-583 557,-547 611,-547 611,-583"/>
<text text-anchor="middle" x="584" y="-562.1" font-family="Courier,monospace" font-size="11.00">Url</text>
</g>
<!-- \\ImboClient\\Http\\MetadataUrl&#45;&gt;\\ImboClient\\Http\\Url -->
<g id="edge6" class="edge"><title>\\ImboClient\\Http\\MetadataUrl&#45;&gt;\\ImboClient\\Http\\Url</title>
<path fill="none" stroke="black" d="M987.477,-686.313C898.337,-659.511 702.371,-600.59 620.78,-576.059"/>
<polygon fill="none" stroke="black" points="621.768,-572.701 611.184,-573.173 619.752,-579.404 621.768,-572.701"/>
</g>
<!-- \\ImboClient\\Http\\ImagesUrl -->
<g id="node5" class="node"><title>\\ImboClient\\Http\\ImagesUrl</title>
<polygon fill="none" stroke="black" points="1071,-664 995,-664 995,-628 1071,-628 1071,-664"/>
<text text-anchor="middle" x="1033" y="-643.1" font-family="Courier,monospace" font-size="11.00">ImagesUrl</text>
</g>
<!-- \\ImboClient\\Http\\ImagesUrl&#45;&gt;\\ImboClient\\Http\\Url -->
<g id="edge8" class="edge"><title>\\ImboClient\\Http\\ImagesUrl&#45;&gt;\\ImboClient\\Http\\Url</title>
<path fill="none" stroke="black" d="M994.33,-639.024C908.872,-623.607 704.891,-586.809 621.001,-571.675"/>
<polygon fill="none" stroke="black" points="621.611,-568.229 611.148,-569.898 620.368,-575.117 621.611,-568.229"/>
</g>
<!-- \\ImboClient\\Http\\StatsUrl -->
<g id="node6" class="node"><title>\\ImboClient\\Http\\StatsUrl</title>
<polygon fill="none" stroke="black" points="1068,-610 998,-610 998,-574 1068,-574 1068,-610"/>
<text text-anchor="middle" x="1033" y="-589.1" font-family="Courier,monospace" font-size="11.00">StatsUrl</text>
</g>
<!-- \\ImboClient\\Http\\StatsUrl&#45;&gt;\\ImboClient\\Http\\Url -->
<g id="edge10" class="edge"><title>\\ImboClient\\Http\\StatsUrl&#45;&gt;\\ImboClient\\Http\\Url</title>
<path fill="none" stroke="black" d="M997.392,-589.859C913.949,-584.841 706.417,-572.361 621.312,-567.244"/>
<polygon fill="none" stroke="black" points="621.275,-563.735 611.083,-566.629 620.855,-570.723 621.275,-563.735"/>
</g>
<!-- \\ImboClient\\Http\\UserUrl -->
<g id="node7" class="node"><title>\\ImboClient\\Http\\UserUrl</title>
<polygon fill="none" stroke="black" points="1065,-556 1001,-556 1001,-520 1065,-520 1065,-556"/>
<text text-anchor="middle" x="1033" y="-535.1" font-family="Courier,monospace" font-size="11.00">UserUrl</text>
</g>
<!-- \\ImboClient\\Http\\UserUrl&#45;&gt;\\ImboClient\\Http\\Url -->
<g id="edge16" class="edge"><title>\\ImboClient\\Http\\UserUrl&#45;&gt;\\ImboClient\\Http\\Url</title>
<path fill="none" stroke="black" d="M1000.71,-539.942C919.541,-544.823 707.34,-557.583 621.173,-562.765"/>
<polygon fill="none" stroke="black" points="620.84,-559.278 611.068,-563.372 621.26,-566.266 620.84,-559.278"/>
</g>
<!-- \\Guzzle\\Http\\Url -->
<g id="node26" class="node"><title>\\Guzzle\\Http\\Url</title>
<ellipse fill="none" stroke="black" cx="92" cy="-565" rx="91.9239" ry="18.3848"/>
<text text-anchor="middle" x="92" y="-561.4" font-family="Times Roman,serif" font-size="14.00" fill="gray">\Guzzle\Http\Url</text>
</g>
<!-- \\ImboClient\\Http\\Url&#45;&gt;\\Guzzle\\Http\\Url -->
<g id="edge18" class="edge"><title>\\ImboClient\\Http\\Url&#45;&gt;\\Guzzle\\Http\\Url</title>
<path fill="none" stroke="black" d="M556.847,-565C489.09,-565 309.748,-565 194.669,-565"/>
<polygon fill="none" stroke="black" points="194.43,-561.5 184.43,-565 194.43,-568.5 194.43,-561.5"/>
</g>
<!-- \\ImboClient\\Http\\StatusUrl -->
<g id="node9" class="node"><title>\\ImboClient\\Http\\StatusUrl</title>
<polygon fill="none" stroke="black" points="1071,-502 995,-502 995,-466 1071,-466 1071,-502"/>
<text text-anchor="middle" x="1033" y="-481.1" font-family="Courier,monospace" font-size="11.00">StatusUrl</text>
</g>
<!-- \\ImboClient\\Http\\StatusUrl&#45;&gt;\\ImboClient\\Http\\Url -->
<g id="edge20" class="edge"><title>\\ImboClient\\Http\\StatusUrl&#45;&gt;\\ImboClient\\Http\\Url</title>
<path fill="none" stroke="black" d="M994.621,-502.043C988.386,-505.013 982.006,-508.077 976,-511 947.406,-524.919 942.689,-534.661 912,-543 809.695,-570.798 683.164,-569.838 621.427,-567.219"/>
<polygon fill="none" stroke="black" points="621.532,-563.72 611.381,-566.753 621.208,-570.712 621.532,-563.72"/>
</g>
<!-- \\ImboClient\\Http\\ImageUrl -->
<g id="node10" class="node"><title>\\ImboClient\\Http\\ImageUrl</title>
<polygon fill="none" stroke="black" points="1068,-448 998,-448 998,-412 1068,-412 1068,-448"/>
<text text-anchor="middle" x="1033" y="-427.1" font-family="Courier,monospace" font-size="11.00">ImageUrl</text>
</g>
<!-- \\ImboClient\\Http\\ImageUrl&#45;&gt;\\ImboClient\\Http\\Url -->
<g id="edge22" class="edge"><title>\\ImboClient\\Http\\ImageUrl&#45;&gt;\\ImboClient\\Http\\Url</title>
<path fill="none" stroke="black" d="M997.335,-443.597C989.873,-447.32 982.351,-451.793 976,-457 939.154,-487.206 953.835,-520.2 912,-543 817.771,-594.355 685.011,-582.138 621.158,-572.031"/>
<polygon fill="none" stroke="black" points="621.591,-568.555 611.154,-570.374 620.447,-575.461 621.591,-568.555"/>
</g>
<!-- \\ImboClient\\EventSubscriber\\AccessToken -->
<g id="node12" class="node"><title>\\ImboClient\\EventSubscriber\\AccessToken</title>
<polygon fill="none" stroke="black" points="1078,-366 988,-366 988,-330 1078,-330 1078,-366"/>
<text text-anchor="middle" x="1033" y="-345.1" font-family="Courier,monospace" font-size="11.00">AccessToken</text>
</g>
<!-- \\Symfony\\Component\\EventDispatcher\\EventSubscriberInterface -->
<g id="node21" class="node"><title>\\Symfony\\Component\\EventDispatcher\\EventSubscriberInterface</title>
<ellipse fill="none" stroke="black" cx="584" cy="-72" rx="326.891" ry="18.3848"/>
<text text-anchor="middle" x="584" y="-68.4" font-family="Times Roman,serif" font-size="14.00" fill="gray">\Symfony\Component\EventDispatcher\EventSubscriberInterface</text>
</g>
<!-- \\ImboClient\\EventSubscriber\\AccessToken&#45;&gt;\\Symfony\\Component\\EventDispatcher\\EventSubscriberInterface -->
<g id="edge12" class="edge"><title>\\ImboClient\\EventSubscriber\\AccessToken&#45;&gt;\\Symfony\\Component\\EventDispatcher\\EventSubscriberInterface</title>
<path fill="none" stroke="black" stroke-dasharray="1,5" d="M993.126,-329.885C987.322,-327.026 981.465,-324.015 976,-321 839.527,-245.71 685.628,-142.136 618.448,-95.931"/>
<polygon fill="none" stroke="black" points="620.153,-92.8554 609.933,-90.0622 616.18,-98.619 620.153,-92.8554"/>
</g>
<!-- \\ImboClient\\EventSubscriber\\Authenticate -->
<g id="node13" class="node"><title>\\ImboClient\\EventSubscriber\\Authenticate</title>
<polygon fill="none" stroke="black" points="1082,-312 984,-312 984,-276 1082,-276 1082,-312"/>
<text text-anchor="middle" x="1033" y="-291.1" font-family="Courier,monospace" font-size="11.00">Authenticate</text>
</g>
<!-- \\ImboClient\\EventSubscriber\\Authenticate&#45;&gt;\\Symfony\\Component\\EventDispatcher\\EventSubscriberInterface -->
<g id="edge24" class="edge"><title>\\ImboClient\\EventSubscriber\\Authenticate&#45;&gt;\\Symfony\\Component\\EventDispatcher\\EventSubscriberInterface</title>
<path fill="none" stroke="black" stroke-dasharray="1,5" d="M985.263,-275.997C982.113,-274.68 979.002,-273.341 976,-272 845.48,-213.704 696.355,-133.789 625.538,-94.9956"/>
<polygon fill="none" stroke="black" points="626.932,-91.7682 616.482,-90.0246 623.564,-97.9046 626.932,-91.7682"/>
</g>
<!-- \\ImboClient\\Version -->
<g id="node14" class="node"><title>\\ImboClient\\Version</title>
<polygon fill="none" stroke="black" points="1065,-258 1001,-258 1001,-222 1065,-222 1065,-258"/>
<text text-anchor="middle" x="1033" y="-237.1" font-family="Courier,monospace" font-size="11.00">Version</text>
</g>
<!-- \\ImboClient\\ImagesQuery -->
<g id="node15" class="node"><title>\\ImboClient\\ImagesQuery</title>
<polygon fill="none" stroke="black" points="1078,-204 988,-204 988,-168 1078,-168 1078,-204"/>
<text text-anchor="middle" x="1033" y="-183.1" font-family="Courier,monospace" font-size="11.00">ImagesQuery</text>
</g>
<!-- \\ImboClient\\ImboClient -->
<g id="node16" class="node"><title>\\ImboClient\\ImboClient</title>
<polygon fill="none" stroke="black" points="1075,-150 991,-150 991,-114 1075,-114 1075,-150"/>
<text text-anchor="middle" x="1033" y="-129.1" font-family="Courier,monospace" font-size="11.00">ImboClient</text>
</g>
<!-- \\Guzzle\\Service\\Client -->
<g id="node23" class="node"><title>\\Guzzle\\Service\\Client</title>
<ellipse fill="none" stroke="black" cx="584" cy="-18" rx="120.208" ry="18.3848"/>
<text text-anchor="middle" x="584" y="-14.4" font-family="Times Roman,serif" font-size="14.00" fill="gray">\Guzzle\Service\Client</text>
</g>
<!-- \\ImboClient\\ImboClient&#45;&gt;\\Guzzle\\Service\\Client -->
<g id="edge14" class="edge"><title>\\ImboClient\\ImboClient&#45;&gt;\\Guzzle\\Service\\Client</title>
<path fill="none" stroke="black" d="M1014.79,-113.92C992.623,-93.1828 953.033,-60.1064 912,-45 847.622,-21.2993 771.482,-13.8911 708.774,-12.7061"/>
<polygon fill="none" stroke="black" points="708.477,-9.20184 698.43,-12.5644 708.381,-16.2012 708.477,-9.20184"/>
</g>
</g>
</svg>
