<?xml version="1.0" encoding="UTF-8" standalone="no"?>
<!DOCTYPE svg PUBLIC "-//W3C//DTD SVG 1.1//EN"
 "http://www.w3.org/Graphics/SVG/1.1/DTD/svg11.dtd">
<!-- Generated by graphviz version 2.26.3 (20100126.1600)
 -->
<!-- Title: G Pages: 1 -->
<svg width="766pt" height="1256pt"
 viewBox="0.00 0.00 766.00 1256.00" xmlns="http://www.w3.org/2000/svg" xmlns:xlink="http://www.w3.org/1999/xlink">
<g id="graph1" class="graph" transform="scale(1 1) rotate(0) translate(4 1252)">
<title>G</title>
<polygon fill="white" stroke="white" points="-4,5 -4,-1252 763,-1252 763,5 -4,5"/>
<g id="graph2" class="cluster"><title>cluster_ImboClient</title>
<polyline fill="none" stroke="gray" points="20,-98 738,-98 "/>
<path fill="none" stroke="gray" d="M738,-98C744,-98 750,-104 750,-110"/>
<polyline fill="none" stroke="gray" points="750,-110 750,-1228 "/>
<path fill="none" stroke="gray" d="M750,-1228C750,-1234 744,-1240 738,-1240"/>
<polyline fill="none" stroke="gray" points="738,-1240 20,-1240 "/>
<path fill="none" stroke="gray" d="M20,-1240C14,-1240 8,-1234 8,-1228"/>
<polyline fill="none" stroke="gray" points="8,-1228 8,-110 "/>
<path fill="none" stroke="gray" d="M8,-110C8,-104 14,-98 20,-98"/>
<text text-anchor="middle" x="379" y="-1226.1" font-family="Times Roman,serif" font-size="11.00" fill="gray">ImboClient</text>
</g>
<g id="graph3" class="cluster"><title>cluster_ImboClient\Driver</title>
<polyline fill="none" stroke="gray" points="283,-1052 680,-1052 "/>
<path fill="none" stroke="gray" d="M680,-1052C686,-1052 692,-1058 692,-1064"/>
<polyline fill="none" stroke="gray" points="692,-1064 692,-1198 "/>
<path fill="none" stroke="gray" d="M692,-1198C692,-1204 686,-1210 680,-1210"/>
<polyline fill="none" stroke="gray" points="680,-1210 283,-1210 "/>
<path fill="none" stroke="gray" d="M283,-1210C277,-1210 271,-1204 271,-1198"/>
<polyline fill="none" stroke="gray" points="271,-1198 271,-1064 "/>
<path fill="none" stroke="gray" d="M271,-1064C271,-1058 277,-1052 283,-1052"/>
<text text-anchor="middle" x="481.5" y="-1196.1" font-family="Times Roman,serif" font-size="11.00" fill="gray">Driver</text>
</g>
<g id="graph4" class="cluster"><title>cluster_ImboClient\Driver\cURL</title>
<polyline fill="none" stroke="gray" points="616,-1106 672,-1106 "/>
<path fill="none" stroke="gray" d="M672,-1106C678,-1106 684,-1112 684,-1118"/>
<polyline fill="none" stroke="gray" points="684,-1118 684,-1168 "/>
<path fill="none" stroke="gray" d="M684,-1168C684,-1174 678,-1180 672,-1180"/>
<polyline fill="none" stroke="gray" points="672,-1180 616,-1180 "/>
<path fill="none" stroke="gray" d="M616,-1180C610,-1180 604,-1174 604,-1168"/>
<polyline fill="none" stroke="gray" points="604,-1168 604,-1118 "/>
<path fill="none" stroke="gray" d="M604,-1118C604,-1112 610,-1106 616,-1106"/>
<text text-anchor="middle" x="644" y="-1166.1" font-family="Times Roman,serif" font-size="11.00" fill="gray">cURL</text>
</g>
<g id="graph6" class="cluster"><title>cluster_ImboClient\Exception</title>
<polyline fill="none" stroke="gray" points="558,-862 730,-862 "/>
<path fill="none" stroke="gray" d="M730,-862C736,-862 742,-868 742,-874"/>
<polyline fill="none" stroke="gray" points="742,-874 742,-1032 "/>
<path fill="none" stroke="gray" d="M742,-1032C742,-1038 736,-1044 730,-1044"/>
<polyline fill="none" stroke="gray" points="730,-1044 558,-1044 "/>
<path fill="none" stroke="gray" d="M558,-1044C552,-1044 546,-1038 546,-1032"/>
<polyline fill="none" stroke="gray" points="546,-1032 546,-874 "/>
<path fill="none" stroke="gray" d="M546,-874C546,-868 552,-862 558,-862"/>
<text text-anchor="middle" x="644" y="-1030.1" font-family="Times Roman,serif" font-size="11.00" fill="gray">Exception</text>
</g>
<g id="graph7" class="cluster"><title>cluster_ImboClient\Http</title>
<polyline fill="none" stroke="gray" points="252,-696 699,-696 "/>
<path fill="none" stroke="gray" d="M699,-696C705,-696 711,-702 711,-708"/>
<polyline fill="none" stroke="gray" points="711,-708 711,-842 "/>
<path fill="none" stroke="gray" d="M711,-842C711,-848 705,-854 699,-854"/>
<polyline fill="none" stroke="gray" points="699,-854 252,-854 "/>
<path fill="none" stroke="gray" d="M252,-854C246,-854 240,-848 240,-842"/>
<polyline fill="none" stroke="gray" points="240,-842 240,-708 "/>
<path fill="none" stroke="gray" d="M240,-708C240,-702 246,-696 252,-696"/>
<text text-anchor="middle" x="475.5" y="-840.1" font-family="Times Roman,serif" font-size="11.00" fill="gray">Http</text>
</g>
<g id="graph8" class="cluster"><title>cluster_ImboClient\Http\Response</title>
<polyline fill="none" stroke="gray" points="276,-750 676,-750 "/>
<path fill="none" stroke="gray" d="M676,-750C682,-750 688,-756 688,-762"/>
<polyline fill="none" stroke="gray" points="688,-762 688,-812 "/>
<path fill="none" stroke="gray" d="M688,-812C688,-818 682,-824 676,-824"/>
<polyline fill="none" stroke="gray" points="676,-824 276,-824 "/>
<path fill="none" stroke="gray" d="M276,-824C270,-824 264,-818 264,-812"/>
<polyline fill="none" stroke="gray" points="264,-812 264,-762 "/>
<path fill="none" stroke="gray" d="M264,-762C264,-756 270,-750 276,-750"/>
<text text-anchor="middle" x="476" y="-810.1" font-family="Times Roman,serif" font-size="11.00" fill="gray">Response</text>
</g>
<g id="graph10" class="cluster"><title>cluster_ImboClient\Url</title>
<polyline fill="none" stroke="gray" points="28,-206 686,-206 "/>
<path fill="none" stroke="gray" d="M686,-206C692,-206 698,-212 698,-218"/>
<polyline fill="none" stroke="gray" points="698,-218 698,-676 "/>
<path fill="none" stroke="gray" d="M698,-676C698,-682 692,-688 686,-688"/>
<polyline fill="none" stroke="gray" points="686,-688 28,-688 "/>
<path fill="none" stroke="gray" d="M28,-688C22,-688 16,-682 16,-676"/>
<polyline fill="none" stroke="gray" points="16,-676 16,-218 "/>
<path fill="none" stroke="gray" d="M16,-218C16,-212 22,-206 28,-206"/>
<text text-anchor="middle" x="357" y="-674.1" font-family="Times Roman,serif" font-size="11.00" fill="gray">Url</text>
</g>
<g id="graph11" class="cluster"><title>cluster_ImboClient\Url\Images</title>
<polyline fill="none" stroke="gray" points="286,-530 667,-530 "/>
<path fill="none" stroke="gray" d="M667,-530C673,-530 679,-536 679,-542"/>
<polyline fill="none" stroke="gray" points="679,-542 679,-646 "/>
<path fill="none" stroke="gray" d="M679,-646C679,-652 673,-658 667,-658"/>
<polyline fill="none" stroke="gray" points="667,-658 286,-658 "/>
<path fill="none" stroke="gray" d="M286,-658C280,-658 274,-652 274,-646"/>
<polyline fill="none" stroke="gray" points="274,-646 274,-542 "/>
<path fill="none" stroke="gray" d="M274,-542C274,-536 280,-530 286,-530"/>
<text text-anchor="middle" x="476.5" y="-644.1" font-family="Times Roman,serif" font-size="11.00" fill="gray">Images</text>
</g>
<!-- \\ImboClient\\Driver\\cURL\\Wrapper -->
<g id="node4" class="node"><title>\\ImboClient\\Driver\\cURL\\Wrapper</title>
<a xlink:href="Driver.cURL.Wrapper.html" xlink:title="Wrapper" target="_parent">
<polygon fill="none" stroke="black" points="676,-1150 612,-1150 612,-1114 676,-1114 676,-1150"/>
<text text-anchor="middle" x="644" y="-1129.1" font-family="Courier,monospace" font-size="11.00">Wrapper</text>
</a>
</g>
<!-- \\ImboClient\\Driver\\DriverInterface -->
<g id="node5" class="node"><title>\\ImboClient\\Driver\\DriverInterface</title>
<a xlink:href="Driver.DriverInterface.html" xlink:title="DriverInterface" target="_parent">
<polygon fill="none" stroke="black" points="397,-1096 279,-1096 279,-1060 397,-1060 397,-1096"/>
<text text-anchor="middle" x="338" y="-1075.1" font-family="Courier,monospace" font-size="11.00">DriverInterface</text>
</a>
</g>
<!-- \\ImboClient\\Driver\\cURL -->
<g id="node6" class="node"><title>\\ImboClient\\Driver\\cURL</title>
<a xlink:href="Driver.cURL.html" xlink:title="cURL" target="_parent">
<polygon fill="none" stroke="black" points="671,-1096 617,-1096 617,-1060 671,-1060 671,-1096"/>
<text text-anchor="middle" x="644" y="-1075.1" font-family="Courier,monospace" font-size="11.00">cURL</text>
</a>
</g>
<!-- \\ImboClient\\Driver\\cURL&#45;&gt;\\ImboClient\\Driver\\DriverInterface -->
<g id="edge51" class="edge"><title>\\ImboClient\\Driver\\cURL&#45;&gt;\\ImboClient\\Driver\\DriverInterface</title>
<path fill="none" stroke="black" stroke-dasharray="1,5" d="M616.845,-1078C570.263,-1078 473.749,-1078 407.44,-1078"/>
<polygon fill="none" stroke="black" points="407.069,-1074.5 397.069,-1078 407.069,-1081.5 407.069,-1074.5"/>
</g>
<!-- \\ImboClient\\Exception\\ServerException -->
<g id="node9" class="node"><title>\\ImboClient\\Exception\\ServerException</title>
<a xlink:href="Exception.ServerException.html" xlink:title="ServerException" target="_parent">
<polygon fill="none" stroke="black" points="703,-1014 585,-1014 585,-978 703,-978 703,-1014"/>
<text text-anchor="middle" x="644" y="-993.1" font-family="Courier,monospace" font-size="11.00">ServerException</text>
</a>
</g>
<!-- \\ImboClient\\Exception -->
<g id="node39" class="node"><title>\\ImboClient\\Exception</title>
<a xlink:href="Exception.html" xlink:title="Exception" target="_parent">
<polygon fill="none" stroke="black" points="376,-960 300,-960 300,-924 376,-924 376,-960"/>
<text text-anchor="middle" x="338" y="-939.1" font-family="Courier,monospace" font-size="11.00">Exception</text>
</a>
</g>
<!-- \\ImboClient\\Exception\\ServerException&#45;&gt;\\ImboClient\\Exception -->
<g id="edge53" class="edge"><title>\\ImboClient\\Exception\\ServerException&#45;&gt;\\ImboClient\\Exception</title>
<path fill="none" stroke="black" stroke-dasharray="1,5" d="M584.637,-985.524C527,-975.353 440.556,-960.098 386.803,-950.612"/>
<polygon fill="none" stroke="black" points="387.289,-947.144 376.833,-948.853 386.073,-954.038 387.289,-947.144"/>
</g>
<!-- \\RuntimeException -->
<g id="node47" class="node"><title>\\RuntimeException</title>
<ellipse fill="none" stroke="black" cx="338" cy="-72" rx="103.238" ry="18.3848"/>
<text text-anchor="middle" x="338" y="-68.4" font-family="Times Roman,serif" font-size="14.00" fill="gray">\RuntimeException</text>
</g>
<!-- \\ImboClient\\Exception\\ServerException&#45;&gt;\\RuntimeException -->
<g id="edge25" class="edge"><title>\\ImboClient\\Exception\\ServerException&#45;&gt;\\RuntimeException</title>
<path fill="none" stroke="black" d="M584.745,-991.681C570.017,-987.705 555.687,-980.798 546,-969 422.277,-818.323 614.338,-237.17 482,-94 473.263,-84.5481 462.309,-77.9849 450.364,-73.5353"/>
<polygon fill="none" stroke="black" points="451.186,-70.1237 440.595,-70.4052 449.05,-76.7898 451.186,-70.1237"/>
</g>
<!-- \\ImboClient\\Exception\\InvalidArgumentException -->
<g id="node10" class="node"><title>\\ImboClient\\Exception\\InvalidArgumentException</title>
<a xlink:href="Exception.InvalidArgumentException.html" xlink:title="InvalidArgumentException" target="_parent">
<polygon fill="none" stroke="black" points="733,-906 555,-906 555,-870 733,-870 733,-906"/>
<text text-anchor="middle" x="644" y="-885.1" font-family="Courier,monospace" font-size="11.00">InvalidArgumentException</text>
</a>
</g>
<!-- \\ImboClient\\Exception\\InvalidArgumentException&#45;&gt;\\ImboClient\\Exception -->
<g id="edge55" class="edge"><title>\\ImboClient\\Exception\\InvalidArgumentException&#45;&gt;\\ImboClient\\Exception</title>
<path fill="none" stroke="black" stroke-dasharray="1,5" d="M554.257,-903.837C499.613,-913.48 431.902,-925.429 386.955,-933.361"/>
<polygon fill="none" stroke="black" points="386.122,-929.954 376.882,-935.138 387.339,-936.847 386.122,-929.954"/>
</g>
<!-- \\InvalidArgumentException -->
<g id="node49" class="node"><title>\\InvalidArgumentException</title>
<ellipse fill="none" stroke="black" cx="338" cy="-18" rx="143.043" ry="18.3848"/>
<text text-anchor="middle" x="338" y="-14.4" font-family="Times Roman,serif" font-size="14.00" fill="gray">\InvalidArgumentException</text>
</g>
<!-- \\ImboClient\\Exception\\InvalidArgumentException&#45;&gt;\\InvalidArgumentException -->
<g id="edge27" class="edge"><title>\\ImboClient\\Exception\\InvalidArgumentException&#45;&gt;\\InvalidArgumentException</title>
<path fill="none" stroke="black" d="M595.951,-869.952C577.209,-860.397 557.498,-846.691 546,-828 454.528,-679.302 598.877,-174.684 482,-45 477.855,-40.4004 473.195,-36.4314 468.158,-33.0147"/>
<polygon fill="none" stroke="black" points="469.73,-29.8774 459.346,-27.7722 466.151,-35.8932 469.73,-29.8774"/>
</g>
<!-- \\ImboClient\\Exception\\RuntimeException -->
<g id="node11" class="node"><title>\\ImboClient\\Exception\\RuntimeException</title>
<a xlink:href="Exception.RuntimeException.html" xlink:title="RuntimeException" target="_parent">
<polygon fill="none" stroke="black" points="706,-960 582,-960 582,-924 706,-924 706,-960"/>
<text text-anchor="middle" x="644" y="-939.1" font-family="Courier,monospace" font-size="11.00">RuntimeException</text>
</a>
</g>
<!-- \\ImboClient\\Exception\\RuntimeException&#45;&gt;\\ImboClient\\Exception -->
<g id="edge57" class="edge"><title>\\ImboClient\\Exception\\RuntimeException&#45;&gt;\\ImboClient\\Exception</title>
<path fill="none" stroke="black" stroke-dasharray="1,5" d="M581.338,-942C523.801,-942 439.708,-942 386.96,-942"/>
<polygon fill="none" stroke="black" points="386.846,-938.5 376.846,-942 386.846,-945.5 386.846,-938.5"/>
</g>
<!-- \\ImboClient\\Exception\\RuntimeException&#45;&gt;\\RuntimeException -->
<g id="edge29" class="edge"><title>\\ImboClient\\Exception\\RuntimeException&#45;&gt;\\RuntimeException</title>
<path fill="none" stroke="black" d="M581.471,-936.704C567.925,-932.61 554.985,-925.89 546,-915 429.532,-773.849 606.537,-228.085 482,-94 473.309,-84.6421 462.443,-78.1201 450.598,-73.6793"/>
<polygon fill="none" stroke="black" points="451.504,-70.2939 440.912,-70.5496 449.352,-76.9548 451.504,-70.2939"/>
</g>
<!-- \\ImboClient\\Http\\Response\\Response -->
<g id="node14" class="node"><title>\\ImboClient\\Http\\Response\\Response</title>
<a xlink:href="Http.Response.Response.html" xlink:title="Response" target="_parent">
<polygon fill="none" stroke="black" points="679,-794 609,-794 609,-758 679,-758 679,-794"/>
<text text-anchor="middle" x="644" y="-773.1" font-family="Courier,monospace" font-size="11.00">Response</text>
</a>
</g>
<!-- \\ImboClient\\Http\\Response\\ResponseInterface -->
<g id="node15" class="node"><title>\\ImboClient\\Http\\Response\\ResponseInterface</title>
<a xlink:href="Http.Response.ResponseInterface.html" xlink:title="ResponseInterface" target="_parent">
<polygon fill="none" stroke="black" points="403,-794 273,-794 273,-758 403,-758 403,-794"/>
<text text-anchor="middle" x="338" y="-773.1" font-family="Courier,monospace" font-size="11.00">ResponseInterface</text>
</a>
</g>
<!-- \\ImboClient\\Http\\Response\\Response&#45;&gt;\\ImboClient\\Http\\Response\\ResponseInterface -->
<g id="edge61" class="edge"><title>\\ImboClient\\Http\\Response\\Response&#45;&gt;\\ImboClient\\Http\\Response\\ResponseInterface</title>
<path fill="none" stroke="black" stroke-dasharray="1,5" d="M608.299,-776C560.883,-776 475.904,-776 413.854,-776"/>
<polygon fill="none" stroke="black" points="413.714,-772.5 403.714,-776 413.714,-779.5 413.714,-772.5"/>
</g>
<!-- \\ImboClient\\Http\\HeaderContainerInterface -->
<g id="node16" class="node"><title>\\ImboClient\\Http\\HeaderContainerInterface</title>
<a xlink:href="Http.HeaderContainerInterface.html" xlink:title="HeaderContainerInterface" target="_parent">
<polygon fill="none" stroke="black" points="427,-740 249,-740 249,-704 427,-704 427,-740"/>
<text text-anchor="middle" x="338" y="-719.1" font-family="Courier,monospace" font-size="11.00">HeaderContainerInterface</text>
</a>
</g>
<!-- \\ImboClient\\Http\\HeaderContainer -->
<g id="node17" class="node"><title>\\ImboClient\\Http\\HeaderContainer</title>
<a xlink:href="Http.HeaderContainer.html" xlink:title="HeaderContainer" target="_parent">
<polygon fill="none" stroke="black" points="703,-740 585,-740 585,-704 703,-704 703,-740"/>
<text text-anchor="middle" x="644" y="-719.1" font-family="Courier,monospace" font-size="11.00">HeaderContainer</text>
</a>
</g>
<!-- \\ImboClient\\Http\\HeaderContainer&#45;&gt;\\ImboClient\\Http\\HeaderContainerInterface -->
<g id="edge59" class="edge"><title>\\ImboClient\\Http\\HeaderContainer&#45;&gt;\\ImboClient\\Http\\HeaderContainerInterface</title>
<path fill="none" stroke="black" stroke-dasharray="1,5" d="M584.637,-722C543.018,-722 486.377,-722 437.872,-722"/>
<polygon fill="none" stroke="black" points="437.653,-718.5 427.653,-722 437.653,-725.5 437.653,-718.5"/>
</g>
<!-- \\ImboClient\\Url\\Images\\ImageInterface -->
<g id="node21" class="node"><title>\\ImboClient\\Url\\Images\\ImageInterface</title>
<a xlink:href="Url.Images.ImageInterface.html" xlink:title="ImageInterface" target="_parent">
<polygon fill="none" stroke="black" points="393,-628 283,-628 283,-592 393,-592 393,-628"/>
<text text-anchor="middle" x="338" y="-607.1" font-family="Courier,monospace" font-size="11.00">ImageInterface</text>
</a>
</g>
<!-- \\ImboClient\\Url\\Images\\QueryInterface -->
<g id="node22" class="node"><title>\\ImboClient\\Url\\Images\\QueryInterface</title>
<a xlink:href="Url.Images.QueryInterface.html" xlink:title="QueryInterface" target="_parent">
<polygon fill="none" stroke="black" points="393,-574 283,-574 283,-538 393,-538 393,-574"/>
<text text-anchor="middle" x="338" y="-553.1" font-family="Courier,monospace" font-size="11.00">QueryInterface</text>
</a>
</g>
<!-- \\ImboClient\\Url\\Images\\Image -->
<g id="node23" class="node"><title>\\ImboClient\\Url\\Images\\Image</title>
<a xlink:href="Url.Images.Image.html" xlink:title="Image" target="_parent">
<polygon fill="none" stroke="black" points="671,-628 617,-628 617,-592 671,-592 671,-628"/>
<text text-anchor="middle" x="644" y="-607.1" font-family="Courier,monospace" font-size="11.00">Image</text>
</a>
</g>
<!-- \\ImboClient\\Url\\Images\\Image&#45;&gt;\\ImboClient\\Url\\Images\\ImageInterface -->
<g id="edge39" class="edge"><title>\\ImboClient\\Url\\Images\\Image&#45;&gt;\\ImboClient\\Url\\Images\\ImageInterface</title>
<path fill="none" stroke="black" stroke-dasharray="1,5" d="M616.845,-610C569.43,-610 470.281,-610 403.912,-610"/>
<polygon fill="none" stroke="black" points="403.554,-606.5 393.554,-610 403.554,-613.5 403.554,-606.5"/>
</g>
<!-- \\ImboClient\\Url\\Images\\Query -->
<g id="node24" class="node"><title>\\ImboClient\\Url\\Images\\Query</title>
<a xlink:href="Url.Images.Query.html" xlink:title="Query" target="_parent">
<polygon fill="none" stroke="black" points="671,-574 617,-574 617,-538 671,-538 671,-574"/>
<text text-anchor="middle" x="644" y="-553.1" font-family="Courier,monospace" font-size="11.00">Query</text>
</a>
</g>
<!-- \\ImboClient\\Url\\Images\\Query&#45;&gt;\\ImboClient\\Url\\Images\\QueryInterface -->
<g id="edge41" class="edge"><title>\\ImboClient\\Url\\Images\\Query&#45;&gt;\\ImboClient\\Url\\Images\\QueryInterface</title>
<path fill="none" stroke="black" stroke-dasharray="1,5" d="M616.845,-556C569.43,-556 470.281,-556 403.912,-556"/>
<polygon fill="none" stroke="black" points="403.554,-552.5 393.554,-556 403.554,-559.5 403.554,-552.5"/>
</g>
<!-- \\ImboClient\\Url\\Images -->
<g id="node25" class="node"><title>\\ImboClient\\Url\\Images</title>
<a xlink:href="Url.Images.html" xlink:title="Images" target="_parent">
<polygon fill="none" stroke="black" points="672,-520 616,-520 616,-484 672,-484 672,-520"/>
<text text-anchor="middle" x="644" y="-499.1" font-family="Courier,monospace" font-size="11.00">Images</text>
</a>
</g>
<!-- \\ImboClient\\Url\\Url -->
<g id="node29" class="node"><title>\\ImboClient\\Url\\Url</title>
<a xlink:href="Url.Url.html" xlink:title="«abstract»&lt;br/&gt;Url" target="_parent">
<polygon fill="none" stroke="black" points="380,-430 296,-430 296,-394 380,-394 380,-430"/>
<text text-anchor="start" x="304" y="-417.433" font-family="Courier,monospace" font-size="11.00">«abstract»</text>
<text text-anchor="start" x="327.5" y="-404.233" font-family="Courier,monospace" font-size="11.00">Url</text>
</a>
</g>
<!-- \\ImboClient\\Url\\Images&#45;&gt;\\ImboClient\\Url\\Url -->
<g id="edge13" class="edge"><title>\\ImboClient\\Url\\Images&#45;&gt;\\ImboClient\\Url\\Url</title>
<path fill="none" stroke="black" d="M615.215,-494.275C595.659,-488.976 569.226,-481.716 546,-475 492.813,-459.621 432.261,-441.174 390.262,-428.229"/>
<polygon fill="none" stroke="black" points="391.119,-424.83 380.531,-425.226 389.054,-431.519 391.119,-424.83"/>
</g>
<!-- \\ImboClient\\Url\\UrlInterface -->
<g id="node30" class="node"><title>\\ImboClient\\Url\\UrlInterface</title>
<a xlink:href="Url.UrlInterface.html" xlink:title="UrlInterface" target="_parent">
<polygon fill="none" stroke="black" points="122,-411 24,-411 24,-375 122,-375 122,-411"/>
<text text-anchor="middle" x="73" y="-390.1" font-family="Courier,monospace" font-size="11.00">UrlInterface</text>
</a>
</g>
<!-- \\ImboClient\\Url\\Images&#45;&gt;\\ImboClient\\Url\\UrlInterface -->
<g id="edge33" class="edge"><title>\\ImboClient\\Url\\Images&#45;&gt;\\ImboClient\\Url\\UrlInterface</title>
<path fill="none" stroke="black" stroke-dasharray="1,5" d="M615.171,-500.651C560.748,-497.841 439.246,-490.306 338,-475"/>
</g>
<!-- \\ImboClient\\Url\\Status -->
<g id="node26" class="node"><title>\\ImboClient\\Url\\Status</title>
<a xlink:href="Url.Status.html" xlink:title="Status" target="_parent">
<polygon fill="none" stroke="black" points="672,-466 616,-466 616,-430 672,-430 672,-466"/>
<text text-anchor="middle" x="644" y="-445.1" font-family="Courier,monospace" font-size="11.00">Status</text>
</a>
</g>
<!-- \\ImboClient\\Url\\Status&#45;&gt;\\ImboClient\\Url\\Url -->
<g id="edge15" class="edge"><title>\\ImboClient\\Url\\Status&#45;&gt;\\ImboClient\\Url\\Url</title>
<path fill="none" stroke="black" d="M615.487,-444.646C564.224,-438.615 455.781,-425.857 390.677,-418.197"/>
<polygon fill="none" stroke="black" points="390.956,-414.706 380.616,-417.014 390.138,-421.658 390.956,-414.706"/>
</g>
<!-- \\ImboClient\\Url\\Status&#45;&gt;\\ImboClient\\Url\\UrlInterface -->
<g id="edge35" class="edge"><title>\\ImboClient\\Url\\Status&#45;&gt;\\ImboClient\\Url\\UrlInterface</title>
<path fill="none" stroke="black" stroke-dasharray="1,5" d="M615.171,-455.089C560.748,-467.466 439.246,-490.306 338,-475"/>
<path fill="none" stroke="black" stroke-dasharray="1,5" d="M338,-475C272.772,-465.139 256.942,-458.756 194,-439 171.501,-431.938 147.117,-422.937 126.174,-414.773"/>
<polygon fill="none" stroke="black" points="127.4,-411.494 116.812,-411.091 124.837,-418.008 127.4,-411.494"/>
</g>
<!-- \\ImboClient\\Url\\ImageInterface -->
<g id="node27" class="node"><title>\\ImboClient\\Url\\ImageInterface</title>
<a xlink:href="Url.ImageInterface.html" xlink:title="ImageInterface" target="_parent">
<polygon fill="none" stroke="black" points="393,-339 283,-339 283,-303 393,-303 393,-339"/>
<text text-anchor="middle" x="338" y="-318.1" font-family="Courier,monospace" font-size="11.00">ImageInterface</text>
</a>
</g>
<!-- \\ImboClient\\Url\\ImageInterface&#45;&gt;\\ImboClient\\Url\\UrlInterface -->
<g id="edge17" class="edge"><title>\\ImboClient\\Url\\ImageInterface&#45;&gt;\\ImboClient\\Url\\UrlInterface</title>
<path fill="none" stroke="black" d="M282.447,-336.094C238.424,-348.055 177.059,-364.727 132.13,-376.934"/>
<polygon fill="none" stroke="black" points="130.966,-373.624 122.233,-379.623 132.801,-380.379 130.966,-373.624"/>
</g>
<!-- \\ImboClient\\Url\\AccessTokenInterface -->
<g id="node28" class="node"><title>\\ImboClient\\Url\\AccessTokenInterface</title>
<a xlink:href="Url.AccessTokenInterface.html" xlink:title="AccessTokenInterface" target="_parent">
<polygon fill="none" stroke="black" points="414,-250 262,-250 262,-214 414,-214 414,-250"/>
<text text-anchor="middle" x="338" y="-229.1" font-family="Courier,monospace" font-size="11.00">AccessTokenInterface</text>
</a>
</g>
<!-- \\ImboClient\\Url\\Url&#45;&gt;\\ImboClient\\Url\\UrlInterface -->
<g id="edge37" class="edge"><title>\\ImboClient\\Url\\Url&#45;&gt;\\ImboClient\\Url\\UrlInterface</title>
<path fill="none" stroke="black" stroke-dasharray="1,5" d="M295.423,-408.947C251.304,-405.784 182,-400.815 132.481,-397.265"/>
<polygon fill="none" stroke="black" points="132.455,-393.754 122.231,-396.53 131.955,-400.736 132.455,-393.754"/>
</g>
<!-- \\ImboClient\\Url\\User -->
<g id="node31" class="node"><title>\\ImboClient\\Url\\User</title>
<a xlink:href="Url.User.html" xlink:title="User" target="_parent">
<polygon fill="none" stroke="black" points="671,-412 617,-412 617,-376 671,-376 671,-412"/>
<text text-anchor="middle" x="644" y="-391.1" font-family="Courier,monospace" font-size="11.00">User</text>
</a>
</g>
<!-- \\ImboClient\\Url\\User&#45;&gt;\\ImboClient\\Url\\Url -->
<g id="edge19" class="edge"><title>\\ImboClient\\Url\\User&#45;&gt;\\ImboClient\\Url\\Url</title>
<path fill="none" stroke="black" d="M616.845,-395.597C566.168,-398.578 456.39,-405.036 390.704,-408.9"/>
<polygon fill="none" stroke="black" points="390.333,-405.415 380.556,-409.497 390.744,-412.403 390.333,-405.415"/>
</g>
<!-- \\ImboClient\\Url\\User&#45;&gt;\\ImboClient\\Url\\UrlInterface -->
<g id="edge43" class="edge"><title>\\ImboClient\\Url\\User&#45;&gt;\\ImboClient\\Url\\UrlInterface</title>
<path fill="none" stroke="black" stroke-dasharray="1,5" d="M616.999,-390.343C563.691,-383.562 441.147,-370.151 338,-375"/>
</g>
<!-- \\ImboClient\\Url\\Metadata -->
<g id="node32" class="node"><title>\\ImboClient\\Url\\Metadata</title>
<a xlink:href="Url.Metadata.html" xlink:title="Metadata" target="_parent">
<polygon fill="none" stroke="black" points="679,-358 609,-358 609,-322 679,-322 679,-358"/>
<text text-anchor="middle" x="644" y="-337.1" font-family="Courier,monospace" font-size="11.00">Metadata</text>
</a>
</g>
<!-- \\ImboClient\\Url\\Metadata&#45;&gt;\\ImboClient\\Url\\Url -->
<g id="edge21" class="edge"><title>\\ImboClient\\Url\\Metadata&#45;&gt;\\ImboClient\\Url\\Url</title>
<path fill="none" stroke="black" d="M608.345,-349.058C575.56,-357.327 525.576,-369.78 482,-380 451.821,-387.078 417.99,-394.616 390.706,-400.597"/>
<polygon fill="none" stroke="black" points="389.612,-397.254 380.591,-402.809 391.108,-404.092 389.612,-397.254"/>
</g>
<!-- \\ImboClient\\Url\\Metadata&#45;&gt;\\ImboClient\\Url\\UrlInterface -->
<g id="edge45" class="edge"><title>\\ImboClient\\Url\\Metadata&#45;&gt;\\ImboClient\\Url\\UrlInterface</title>
<path fill="none" stroke="black" stroke-dasharray="1,5" d="M608.322,-345.652C551.362,-354.32 436.279,-370.38 338,-375"/>
<path fill="none" stroke="black" stroke-dasharray="1,5" d="M338,-375C267.248,-378.326 185.998,-384.141 132.319,-388.261"/>
<polygon fill="none" stroke="black" points="131.994,-384.775 122.294,-389.035 132.534,-391.754 131.994,-384.775"/>
</g>
<!-- \\ImboClient\\Url\\Image -->
<g id="node33" class="node"><title>\\ImboClient\\Url\\Image</title>
<a xlink:href="Url.Image.html" xlink:title="Image" target="_parent">
<polygon fill="none" stroke="black" points="671,-304 617,-304 617,-268 671,-268 671,-304"/>
<text text-anchor="middle" x="644" y="-283.1" font-family="Courier,monospace" font-size="11.00">Image</text>
</a>
</g>
<!-- \\ImboClient\\Url\\Image&#45;&gt;\\ImboClient\\Url\\ImageInterface -->
<g id="edge47" class="edge"><title>\\ImboClient\\Url\\Image&#45;&gt;\\ImboClient\\Url\\ImageInterface</title>
<path fill="none" stroke="black" stroke-dasharray="1,5" d="M616.845,-289.106C569.333,-294.54 469.873,-305.916 403.502,-313.508"/>
<polygon fill="none" stroke="black" points="403.092,-310.032 393.554,-314.646 403.887,-316.987 403.092,-310.032"/>
</g>
<!-- \\ImboClient\\Url\\Image&#45;&gt;\\ImboClient\\Url\\Url -->
<g id="edge23" class="edge"><title>\\ImboClient\\Url\\Image&#45;&gt;\\ImboClient\\Url\\Url</title>
<path fill="none" stroke="black" d="M616.667,-289.497C596.096,-293.052 567.816,-299.966 546,-313 510.649,-334.122 517.87,-359.772 482,-380 454.186,-395.686 419.305,-403.683 390.84,-407.76"/>
<polygon fill="none" stroke="black" points="390.129,-404.323 380.668,-409.092 391.038,-411.264 390.129,-404.323"/>
</g>
<!-- \\ImboClient\\Url\\AccessToken -->
<g id="node34" class="node"><title>\\ImboClient\\Url\\AccessToken</title>
<a xlink:href="Url.AccessToken.html" xlink:title="AccessToken" target="_parent">
<polygon fill="none" stroke="black" points="689,-250 599,-250 599,-214 689,-214 689,-250"/>
<text text-anchor="middle" x="644" y="-229.1" font-family="Courier,monospace" font-size="11.00">AccessToken</text>
</a>
</g>
<!-- \\ImboClient\\Url\\AccessToken&#45;&gt;\\ImboClient\\Url\\AccessTokenInterface -->
<g id="edge49" class="edge"><title>\\ImboClient\\Url\\AccessToken&#45;&gt;\\ImboClient\\Url\\AccessTokenInterface</title>
<path fill="none" stroke="black" stroke-dasharray="1,5" d="M598.189,-232C552.341,-232 480.687,-232 424.172,-232"/>
<polygon fill="none" stroke="black" points="424.165,-228.5 414.165,-232 424.165,-235.5 424.165,-228.5"/>
</g>
<!-- \\ImboClient\\Client -->
<g id="node36" class="node"><title>\\ImboClient\\Client</title>
<a xlink:href="Client.html" xlink:title="Client" target="_parent">
<polygon fill="none" stroke="black" points="672,-196 616,-196 616,-160 672,-160 672,-196"/>
<text text-anchor="middle" x="644" y="-175.1" font-family="Courier,monospace" font-size="11.00">Client</text>
</a>
</g>
<!-- \\ImboClient\\ClientInterface -->
<g id="node38" class="node"><title>\\ImboClient\\ClientInterface</title>
<a xlink:href="ClientInterface.html" xlink:title="ClientInterface" target="_parent">
<polygon fill="none" stroke="black" points="397,-196 279,-196 279,-160 397,-160 397,-196"/>
<text text-anchor="middle" x="338" y="-175.1" font-family="Courier,monospace" font-size="11.00">ClientInterface</text>
</a>
</g>
<!-- \\ImboClient\\Client&#45;&gt;\\ImboClient\\ClientInterface -->
<g id="edge31" class="edge"><title>\\ImboClient\\Client&#45;&gt;\\ImboClient\\ClientInterface</title>
<path fill="none" stroke="black" stroke-dasharray="1,5" d="M615.487,-178C568.378,-178 472.982,-178 407.306,-178"/>
<polygon fill="none" stroke="black" points="407.033,-174.5 397.033,-178 407.033,-181.5 407.033,-174.5"/>
</g>
<!-- \\ImboClient\\Version -->
<g id="node37" class="node"><title>\\ImboClient\\Version</title>
<a xlink:href="Version.html" xlink:title="Version" target="_parent">
<polygon fill="none" stroke="black" points="676,-142 612,-142 612,-106 676,-106 676,-142"/>
<text text-anchor="middle" x="644" y="-121.1" font-family="Courier,monospace" font-size="11.00">Version</text>
</a>
</g>
</g>
</svg>
