<?xml version="1.0" encoding="UTF-8" standalone="no"?>
<!DOCTYPE svg PUBLIC "-//W3C//DTD SVG 1.1//EN"
 "http://www.w3.org/Graphics/SVG/1.1/DTD/svg11.dtd">
<!-- Generated by graphviz version 2.26.3 (20100126.1600)
 -->
<!-- Title: G Pages: 1 -->
<svg width="1525pt" height="662pt"
 viewBox="0.00 0.00 1525.00 662.00" xmlns="http://www.w3.org/2000/svg" xmlns:xlink="http://www.w3.org/1999/xlink">
<g id="graph1" class="graph" transform="scale(1 1) rotate(0) translate(4 658)">
<title>G</title>
<polygon fill="white" stroke="white" points="-4,5 -4,-658 1522,-658 1522,5 -4,5"/>
<g id="graph2" class="cluster"><title>cluster_Global</title>
<polyline fill="none" stroke="gray" points="244,-98 1497,-98 "/>
<path fill="none" stroke="gray" d="M1497,-98C1503,-98 1509,-104 1509,-110"/>
<polyline fill="none" stroke="gray" points="1509,-110 1509,-634 "/>
<path fill="none" stroke="gray" d="M1509,-634C1509,-640 1503,-646 1497,-646"/>
<polyline fill="none" stroke="gray" points="1497,-646 244,-646 "/>
<path fill="none" stroke="gray" d="M244,-646C238,-646 232,-640 232,-634"/>
<polyline fill="none" stroke="gray" points="232,-634 232,-110 "/>
<path fill="none" stroke="gray" d="M232,-110C232,-104 238,-98 244,-98"/>
<text text-anchor="middle" x="870.5" y="-632.1" font-family="Times Roman,serif" font-size="11.00" fill="gray">Global</text>
</g>
<g id="graph3" class="cluster"><title>cluster_\ImboClient</title>
<polyline fill="none" stroke="gray" points="252,-106 1489,-106 "/>
<path fill="none" stroke="gray" d="M1489,-106C1495,-106 1501,-112 1501,-118"/>
<polyline fill="none" stroke="gray" points="1501,-118 1501,-604 "/>
<path fill="none" stroke="gray" d="M1501,-604C1501,-610 1495,-616 1489,-616"/>
<polyline fill="none" stroke="gray" points="1489,-616 252,-616 "/>
<path fill="none" stroke="gray" d="M252,-616C246,-616 240,-610 240,-604"/>
<polyline fill="none" stroke="gray" points="240,-604 240,-118 "/>
<path fill="none" stroke="gray" d="M240,-118C240,-112 246,-106 252,-106"/>
<text text-anchor="middle" x="870.5" y="-602.1" font-family="Times Roman,serif" font-size="11.00" fill="gray">ImboClient</text>
</g>
<g id="graph4" class="cluster"><title>cluster_\ImboClient\Http</title>
<polyline fill="none" stroke="gray" points="260,-404 1479,-404 "/>
<path fill="none" stroke="gray" d="M1479,-404C1485,-404 1491,-410 1491,-416"/>
<polyline fill="none" stroke="gray" points="1491,-416 1491,-574 "/>
<path fill="none" stroke="gray" d="M1491,-574C1491,-580 1485,-586 1479,-586"/>
<polyline fill="none" stroke="gray" points="1479,-586 260,-586 "/>
<path fill="none" stroke="gray" d="M260,-586C254,-586 248,-580 248,-574"/>
<polyline fill="none" stroke="gray" points="248,-574 248,-416 "/>
<path fill="none" stroke="gray" d="M248,-416C248,-410 254,-404 260,-404"/>
<text text-anchor="middle" x="869.5" y="-572.1" font-family="Times Roman,serif" font-size="11.00" fill="gray">Http</text>
</g>
<g id="graph5" class="cluster"><title>cluster_\ImboClient\EventSubscriber</title>
<polyline fill="none" stroke="gray" points="1400,-268 1481,-268 "/>
<path fill="none" stroke="gray" d="M1481,-268C1487,-268 1493,-274 1493,-280"/>
<polyline fill="none" stroke="gray" points="1493,-280 1493,-384 "/>
<path fill="none" stroke="gray" d="M1493,-384C1493,-390 1487,-396 1481,-396"/>
<polyline fill="none" stroke="gray" points="1481,-396 1400,-396 "/>
<path fill="none" stroke="gray" d="M1400,-396C1394,-396 1388,-390 1388,-384"/>
<polyline fill="none" stroke="gray" points="1388,-384 1388,-280 "/>
<path fill="none" stroke="gray" d="M1388,-280C1388,-274 1394,-268 1400,-268"/>
<text text-anchor="middle" x="1440.5" y="-382.1" font-family="Times Roman,serif" font-size="11.00" fill="gray">EventSubscriber</text>
</g>
<!-- \\ImboClient\\Http\\MetadataUrl -->
<g id="node4" class="node"><title>\\ImboClient\\Http\\MetadataUrl</title>
<polygon fill="none" stroke="black" points="1483,-556 1399,-556 1399,-520 1483,-520 1483,-556"/>
<text text-anchor="middle" x="1441" y="-535.1" font-family="Times Roman,serif" font-size="11.00">MetadataUrl</text>
</g>
<!-- \\ImboClient\\Http\\ImageUrl -->
<g id="node10" class="node"><title>\\ImboClient\\Http\\ImageUrl</title>
<polygon fill="none" stroke="black" points="1026,-556 962,-556 962,-520 1026,-520 1026,-556"/>
<text text-anchor="middle" x="994" y="-535.1" font-family="Times Roman,serif" font-size="11.00">ImageUrl</text>
</g>
<!-- \\ImboClient\\Http\\MetadataUrl&#45;&gt;\\ImboClient\\Http\\ImageUrl -->
<g id="edge6" class="edge"><title>\\ImboClient\\Http\\MetadataUrl&#45;&gt;\\ImboClient\\Http\\ImageUrl</title>
<path fill="none" stroke="black" d="M1398.95,-538C1313.93,-538 1122.44,-538 1036.8,-538"/>
<polygon fill="none" stroke="black" points="1036.65,-534.5 1026.65,-538 1036.65,-541.5 1036.65,-534.5"/>
</g>
<!-- \\ImboClient\\Http\\ImagesUrl -->
<g id="node5" class="node"><title>\\ImboClient\\Http\\ImagesUrl</title>
<polygon fill="none" stroke="black" points="593,-556 523,-556 523,-520 593,-520 593,-556"/>
<text text-anchor="middle" x="558" y="-535.1" font-family="Times Roman,serif" font-size="11.00">ImagesUrl</text>
</g>
<!-- \\ImboClient\\Http\\UserUrl -->
<g id="node7" class="node"><title>\\ImboClient\\Http\\UserUrl</title>
<polygon fill="none" stroke="black" points="444,-556 388,-556 388,-520 444,-520 444,-556"/>
<text text-anchor="middle" x="416" y="-535.1" font-family="Times Roman,serif" font-size="11.00">UserUrl</text>
</g>
<!-- \\ImboClient\\Http\\ImagesUrl&#45;&gt;\\ImboClient\\Http\\UserUrl -->
<g id="edge8" class="edge"><title>\\ImboClient\\Http\\ImagesUrl&#45;&gt;\\ImboClient\\Http\\UserUrl</title>
<path fill="none" stroke="black" d="M522.167,-538C501.644,-538 475.875,-538 454.865,-538"/>
<polygon fill="none" stroke="black" points="454.672,-534.5 444.672,-538 454.672,-541.5 454.672,-534.5"/>
</g>
<!-- \\ImboClient\\Http\\StatsUrl -->
<g id="node6" class="node"><title>\\ImboClient\\Http\\StatsUrl</title>
<polygon fill="none" stroke="black" points="446,-502 386,-502 386,-466 446,-466 446,-502"/>
<text text-anchor="middle" x="416" y="-481.1" font-family="Times Roman,serif" font-size="11.00">StatsUrl</text>
</g>
<!-- \\ImboClient\\Http\\Url -->
<g id="node8" class="node"><title>\\ImboClient\\Http\\Url</title>
<polygon fill="none" stroke="black" points="310,-502 256,-502 256,-466 310,-466 310,-502"/>
<text text-anchor="middle" x="283" y="-481.1" font-family="Times Roman,serif" font-size="11.00">Url</text>
</g>
<!-- \\ImboClient\\Http\\StatsUrl&#45;&gt;\\ImboClient\\Http\\Url -->
<g id="edge10" class="edge"><title>\\ImboClient\\Http\\StatsUrl&#45;&gt;\\ImboClient\\Http\\Url</title>
<path fill="none" stroke="black" d="M385.487,-484C366.156,-484 341.019,-484 320.478,-484"/>
<polygon fill="none" stroke="black" points="320.21,-480.5 310.21,-484 320.21,-487.5 320.21,-480.5"/>
</g>
<!-- \\ImboClient\\Http\\UserUrl&#45;&gt;\\ImboClient\\Http\\Url -->
<g id="edge16" class="edge"><title>\\ImboClient\\Http\\UserUrl&#45;&gt;\\ImboClient\\Http\\Url</title>
<path fill="none" stroke="black" d="M387.468,-526.416C367.611,-518.353 340.961,-507.533 319.549,-498.839"/>
<polygon fill="none" stroke="black" points="320.705,-495.531 310.122,-495.012 318.071,-502.017 320.705,-495.531"/>
</g>
<!-- \\Guzzle\\Http\\Url -->
<g id="node26" class="node"><title>\\Guzzle\\Http\\Url</title>
<ellipse fill="none" stroke="black" cx="92" cy="-484" rx="91.9239" ry="18.3848"/>
<text text-anchor="middle" x="92" y="-480.4" font-family="Times Roman,serif" font-size="14.00" fill="gray">\Guzzle\Http\Url</text>
</g>
<!-- \\ImboClient\\Http\\Url&#45;&gt;\\Guzzle\\Http\\Url -->
<g id="edge18" class="edge"><title>\\ImboClient\\Http\\Url&#45;&gt;\\Guzzle\\Http\\Url</title>
<path fill="none" stroke="black" d="M255.634,-484C239.101,-484 216.883,-484 194.16,-484"/>
<polygon fill="none" stroke="black" points="194.056,-480.5 184.056,-484 194.056,-487.5 194.056,-480.5"/>
</g>
<!-- \\ImboClient\\Http\\StatusUrl -->
<g id="node9" class="node"><title>\\ImboClient\\Http\\StatusUrl</title>
<polygon fill="none" stroke="black" points="450,-448 382,-448 382,-412 450,-412 450,-448"/>
<text text-anchor="middle" x="416" y="-427.1" font-family="Times Roman,serif" font-size="11.00">StatusUrl</text>
</g>
<!-- \\ImboClient\\Http\\StatusUrl&#45;&gt;\\ImboClient\\Http\\Url -->
<g id="edge20" class="edge"><title>\\ImboClient\\Http\\StatusUrl&#45;&gt;\\ImboClient\\Http\\Url</title>
<path fill="none" stroke="black" d="M381.749,-443.906C362.655,-451.659 338.88,-461.312 319.444,-469.203"/>
<polygon fill="none" stroke="black" points="317.956,-466.03 310.007,-473.035 320.589,-472.516 317.956,-466.03"/>
</g>
<!-- \\ImboClient\\Http\\ImageUrl&#45;&gt;\\ImboClient\\Http\\ImagesUrl -->
<g id="edge22" class="edge"><title>\\ImboClient\\Http\\ImageUrl&#45;&gt;\\ImboClient\\Http\\ImagesUrl</title>
<path fill="none" stroke="black" d="M961.229,-538C884.346,-538 692.227,-538 603.827,-538"/>
<polygon fill="none" stroke="black" points="603.576,-534.5 593.576,-538 603.576,-541.5 603.576,-534.5"/>
</g>
<!-- \\ImboClient\\EventSubscriber\\AccessToken -->
<g id="node12" class="node"><title>\\ImboClient\\EventSubscriber\\AccessToken</title>
<polygon fill="none" stroke="black" points="1483,-366 1399,-366 1399,-330 1483,-330 1483,-366"/>
<text text-anchor="middle" x="1441" y="-345.1" font-family="Times Roman,serif" font-size="11.00">AccessToken</text>
</g>
<!-- \\Symfony\\Component\\EventDispatcher\\EventSubscriberInterface -->
<g id="node21" class="node"><title>\\Symfony\\Component\\EventDispatcher\\EventSubscriberInterface</title>
<ellipse fill="none" stroke="black" cx="994" cy="-72" rx="326.891" ry="18.3848"/>
<text text-anchor="middle" x="994" y="-68.4" font-family="Times Roman,serif" font-size="14.00" fill="gray">\Symfony\Component\EventDispatcher\EventSubscriberInterface</text>
</g>
<!-- \\ImboClient\\EventSubscriber\\AccessToken&#45;&gt;\\Symfony\\Component\\EventDispatcher\\EventSubscriberInterface -->
<g id="edge12" class="edge"><title>\\ImboClient\\EventSubscriber\\AccessToken&#45;&gt;\\Symfony\\Component\\EventDispatcher\\EventSubscriberInterface</title>
<path fill="none" stroke="black" stroke-dasharray="1,5" d="M1404.56,-329.995C1398.96,-327.072 1393.3,-324.013 1388,-321 1252.38,-243.82 1097.51,-141.624 1029.35,-95.896"/>
<polygon fill="none" stroke="black" points="1030.95,-92.7579 1020.7,-90.0856 1027.05,-98.5681 1030.95,-92.7579"/>
</g>
<!-- \\ImboClient\\EventSubscriber\\Authenticate -->
<g id="node13" class="node"><title>\\ImboClient\\EventSubscriber\\Authenticate</title>
<polygon fill="none" stroke="black" points="1484,-312 1398,-312 1398,-276 1484,-276 1484,-312"/>
<text text-anchor="middle" x="1441" y="-291.1" font-family="Times Roman,serif" font-size="11.00">Authenticate</text>
</g>
<!-- \\ImboClient\\EventSubscriber\\Authenticate&#45;&gt;\\Symfony\\Component\\EventDispatcher\\EventSubscriberInterface -->
<g id="edge24" class="edge"><title>\\ImboClient\\EventSubscriber\\Authenticate&#45;&gt;\\Symfony\\Component\\EventDispatcher\\EventSubscriberInterface</title>
<path fill="none" stroke="black" stroke-dasharray="1,5" d="M1397.78,-276.382C1394.46,-274.93 1391.17,-273.459 1388,-272 1257.97,-212.115 1108.14,-133.256 1036.48,-94.9111"/>
<polygon fill="none" stroke="black" points="1037.77,-91.6352 1027.31,-89.9967 1034.47,-97.8051 1037.77,-91.6352"/>
</g>
<!-- \\ImboClient\\Version -->
<g id="node14" class="node"><title>\\ImboClient\\Version</title>
<polygon fill="none" stroke="black" points="1469,-258 1413,-258 1413,-222 1469,-222 1469,-258"/>
<text text-anchor="middle" x="1441" y="-237.1" font-family="Times Roman,serif" font-size="11.00">Version</text>
</g>
<!-- \\ImboClient\\ImagesQuery -->
<g id="node15" class="node"><title>\\ImboClient\\ImagesQuery</title>
<polygon fill="none" stroke="black" points="1485,-204 1397,-204 1397,-168 1485,-168 1485,-204"/>
<text text-anchor="middle" x="1441" y="-183.1" font-family="Times Roman,serif" font-size="11.00">ImagesQuery</text>
</g>
<!-- \\ImboClient\\ImboClient -->
<g id="node16" class="node"><title>\\ImboClient\\ImboClient</title>
<polygon fill="none" stroke="black" points="1478,-150 1404,-150 1404,-114 1478,-114 1478,-150"/>
<text text-anchor="middle" x="1441" y="-129.1" font-family="Times Roman,serif" font-size="11.00">ImboClient</text>
</g>
<!-- \\Guzzle\\Service\\Client -->
<g id="node23" class="node"><title>\\Guzzle\\Service\\Client</title>
<ellipse fill="none" stroke="black" cx="994" cy="-18" rx="120.208" ry="18.3848"/>
<text text-anchor="middle" x="994" y="-14.4" font-family="Times Roman,serif" font-size="14.00" fill="gray">\Guzzle\Service\Client</text>
</g>
<!-- \\ImboClient\\ImboClient&#45;&gt;\\Guzzle\\Service\\Client -->
<g id="edge14" class="edge"><title>\\ImboClient\\ImboClient&#45;&gt;\\Guzzle\\Service\\Client</title>
<path fill="none" stroke="black" d="M1423.15,-113.918C1401.41,-93.1804 1362.53,-60.1029 1322,-45 1257.59,-20.9973 1181.28,-13.5913 1118.48,-12.484"/>
<polygon fill="none" stroke="black" points="1118.17,-8.97996 1108.12,-12.3559 1118.08,-15.9794 1118.17,-8.97996"/>
</g>
</g>
</svg>
